%TF.GenerationSoftware,KiCad,Pcbnew,10.0.4*%
%TF.CreationDate,2026-09-19T11:06:27+05:30*%
%TF.ProjectId,Dev,4465762e-6b69-4636-9164-5f7063625858,rev?*%
%TF.SameCoordinates,Original*%
%TF.FileFunction,Copper,L1,Top*%
%TF.FilePolarity,Positive*%
%FSLAX46Y46*%
G04 Gerber Fmt 4.6, Leading zero omitted, Abs format (unit mm)*
G04 Created by KiCad (PCBNEW 10.0.4) date 2026-09-19 11:06:27*
%MOMM*%
%LPD*%
G01*
G04 APERTURE LIST*
G04 Aperture macros list*
%AMRoundRect*
0 Rectangle with rounded corners*
0 $1 Rounding radius*
0 $2 $3 $4 $5 $6 $7 $8 $9 X,Y pos of 4 corners*
0 Add a 4 corners polygon primitive as box body*
4,1,4,$2,$3,$4,$5,$6,$7,$8,$9,$2,$3,0*
0 Add four circle primitives for the rounded corners*
1,1,$1+$1,$2,$3*
1,1,$1+$1,$4,$5*
1,1,$1+$1,$6,$7*
1,1,$1+$1,$8,$9*
0 Add four rect primitives between the rounded corners*
20,1,$1+$1,$2,$3,$4,$5,0*
20,1,$1+$1,$4,$5,$6,$7,0*
20,1,$1+$1,$6,$7,$8,$9,0*
20,1,$1+$1,$8,$9,$2,$3,0*%
G04 Aperture macros list end*
%TA.AperFunction,SMDPad,CuDef*%
%ADD10RoundRect,0.135000X-0.135000X-0.185000X0.135000X-0.185000X0.135000X0.185000X-0.135000X0.185000X0*%
%TD*%
%TA.AperFunction,SMDPad,CuDef*%
%ADD11RoundRect,0.140000X0.170000X-0.140000X0.170000X0.140000X-0.170000X0.140000X-0.170000X-0.140000X0*%
%TD*%
%TA.AperFunction,SMDPad,CuDef*%
%ADD12RoundRect,0.200000X0.800000X-0.200000X0.800000X0.200000X-0.800000X0.200000X-0.800000X-0.200000X0*%
%TD*%
%TA.AperFunction,SMDPad,CuDef*%
%ADD13RoundRect,0.250000X-0.450000X-0.350000X0.450000X-0.350000X0.450000X0.350000X-0.450000X0.350000X0*%
%TD*%
%TA.AperFunction,SMDPad,CuDef*%
%ADD14RoundRect,0.140000X-0.140000X-0.170000X0.140000X-0.170000X0.140000X0.170000X-0.140000X0.170000X0*%
%TD*%
%TA.AperFunction,SMDPad,CuDef*%
%ADD15RoundRect,0.050000X-0.387500X-0.050000X0.387500X-0.050000X0.387500X0.050000X-0.387500X0.050000X0*%
%TD*%
%TA.AperFunction,SMDPad,CuDef*%
%ADD16RoundRect,0.050000X-0.050000X-0.387500X0.050000X-0.387500X0.050000X0.387500X-0.050000X0.387500X0*%
%TD*%
%TA.AperFunction,HeatsinkPad*%
%ADD17R,3.200000X3.200000*%
%TD*%
%TA.AperFunction,ComponentPad*%
%ADD18R,1.700000X1.700000*%
%TD*%
%TA.AperFunction,ComponentPad*%
%ADD19C,1.700000*%
%TD*%
%TA.AperFunction,SMDPad,CuDef*%
%ADD20RoundRect,0.162500X-0.650000X-0.162500X0.650000X-0.162500X0.650000X0.162500X-0.650000X0.162500X0*%
%TD*%
%TA.AperFunction,SMDPad,CuDef*%
%ADD21RoundRect,0.225000X-0.225000X-0.250000X0.225000X-0.250000X0.225000X0.250000X-0.225000X0.250000X0*%
%TD*%
%TA.AperFunction,SMDPad,CuDef*%
%ADD22RoundRect,0.150000X0.150000X0.575000X-0.150000X0.575000X-0.150000X-0.575000X0.150000X-0.575000X0*%
%TD*%
%TA.AperFunction,SMDPad,CuDef*%
%ADD23RoundRect,0.075000X0.075000X0.650000X-0.075000X0.650000X-0.075000X-0.650000X0.075000X-0.650000X0*%
%TD*%
%TA.AperFunction,ComponentPad*%
%ADD24O,1.000000X2.100000*%
%TD*%
%TA.AperFunction,ComponentPad*%
%ADD25O,1.000000X1.600000*%
%TD*%
%TA.AperFunction,SMDPad,CuDef*%
%ADD26RoundRect,0.150000X0.150000X-0.587500X0.150000X0.587500X-0.150000X0.587500X-0.150000X-0.587500X0*%
%TD*%
%TA.AperFunction,ViaPad*%
%ADD27C,0.250000*%
%TD*%
%TA.AperFunction,ViaPad*%
%ADD28C,0.500000*%
%TD*%
%TA.AperFunction,ViaPad*%
%ADD29C,0.450000*%
%TD*%
%TA.AperFunction,Conductor*%
%ADD30C,0.300000*%
%TD*%
%TA.AperFunction,Conductor*%
%ADD31C,0.200000*%
%TD*%
%TA.AperFunction,Conductor*%
%ADD32C,0.175000*%
%TD*%
%TA.AperFunction,Conductor*%
%ADD33C,0.127000*%
%TD*%
G04 APERTURE END LIST*
D10*
%TO.P,R3,1*%
%TO.N,Net-(J1-CC2)*%
X166580000Y-68180000D03*
%TO.P,R3,2*%
%TO.N,Net-(U1-USB_DM)*%
X167600000Y-68180000D03*
%TD*%
%TO.P,R5,1*%
%TO.N,Net-(C16-Pad2)*%
X161000000Y-60800000D03*
%TO.P,R5,2*%
%TO.N,/X_OUT*%
X162020000Y-60800000D03*
%TD*%
D11*
%TO.P,C1,1*%
%TO.N,Net-(C1-Pad1)*%
X160400000Y-72160000D03*
%TO.P,C1,2*%
%TO.N,GND*%
X160400000Y-71200000D03*
%TD*%
D12*
%TO.P,SW1,1,1_1*%
%TO.N,GND*%
X165200000Y-61400000D03*
%TO.P,SW1,2,2_2*%
%TO.N,Net-(R6-Pad1)*%
X165200000Y-57200000D03*
%TD*%
D13*
%TO.P,Y1,1,1_1*%
%TO.N,Net-(C16-Pad2)*%
X159600000Y-84700000D03*
%TO.P,Y1,2,G_2*%
%TO.N,GND*%
X161800000Y-84700000D03*
%TO.P,Y1,3,G_3*%
X161800000Y-83000000D03*
%TO.P,Y1,4,4_4*%
%TO.N,/X_IN*%
X159600000Y-83000000D03*
%TD*%
D11*
%TO.P,C7,1*%
%TO.N,Net-(C1-Pad1)*%
X165400000Y-74360000D03*
%TO.P,C7,2*%
%TO.N,GND*%
X165400000Y-73400000D03*
%TD*%
D14*
%TO.P,C11,1*%
%TO.N,+1V1*%
X165440000Y-78200000D03*
%TO.P,C11,2*%
%TO.N,GND*%
X166400000Y-78200000D03*
%TD*%
D11*
%TO.P,C4,1*%
%TO.N,Net-(C1-Pad1)*%
X157600000Y-72200000D03*
%TO.P,C4,2*%
%TO.N,GND*%
X157600000Y-71240000D03*
%TD*%
D15*
%TO.P,U1,1,IOVDD_1*%
%TO.N,+3V3*%
X157125000Y-74200000D03*
%TO.P,U1,2,GPIO0_2*%
%TO.N,/GPIO5*%
X157125000Y-74600000D03*
%TO.P,U1,3,GPIO1_3*%
%TO.N,/GPIO4*%
X157125000Y-75000000D03*
%TO.P,U1,4,GPIO2_4*%
%TO.N,/GPIO3*%
X157125000Y-75400000D03*
%TO.P,U1,5,GPIO3_5*%
%TO.N,/GPIO2*%
X157125000Y-75800000D03*
%TO.P,U1,6,GPIO4_6*%
%TO.N,/GPIO1*%
X157125000Y-76200000D03*
%TO.P,U1,7,GPIO5_7*%
%TO.N,/GPIO0*%
X157125000Y-76600000D03*
%TO.P,U1,8,GPIO6_8*%
%TO.N,/GPIO15*%
X157125000Y-77000000D03*
%TO.P,U1,9,GPIO7_9*%
%TO.N,/GPIO14*%
X157125000Y-77400000D03*
%TO.P,U1,10,IOVDD_10*%
%TO.N,+3V3*%
X157125000Y-77800000D03*
%TO.P,U1,11,GPIO8_11*%
%TO.N,/GPIO13*%
X157125000Y-78200000D03*
%TO.P,U1,12,GPIO9_12*%
%TO.N,/GPIO12*%
X157125000Y-78600000D03*
%TO.P,U1,13,GPIO10_13*%
%TO.N,/GPIO10*%
X157125000Y-79000000D03*
%TO.P,U1,14,GPIO11_14*%
%TO.N,/GPIO11*%
X157125000Y-79400000D03*
D16*
%TO.P,U1,15,GPIO12_15*%
%TO.N,/GPIO9*%
X157962500Y-80237500D03*
%TO.P,U1,16,GPIO13_16*%
%TO.N,/GPIO8*%
X158362500Y-80237500D03*
%TO.P,U1,17,GPIO14_17*%
%TO.N,/GPIO7*%
X158762500Y-80237500D03*
%TO.P,U1,18,GPIO15_18*%
%TO.N,/GPIO6*%
X159162500Y-80237500D03*
%TO.P,U1,19,TESTEN_19*%
%TO.N,GND*%
X159562500Y-80237500D03*
%TO.P,U1,20,XIN_20*%
%TO.N,/X_IN*%
X159962500Y-80237500D03*
%TO.P,U1,21,XOUT_21*%
%TO.N,/SWCLK*%
X160362500Y-80237500D03*
%TO.P,U1,22,IOVDD_22*%
%TO.N,+3V3*%
X160762500Y-80237500D03*
%TO.P,U1,23,DVDD_23*%
X161162500Y-80237500D03*
%TO.P,U1,24,SWCLK_24*%
%TO.N,/X_OUT*%
X161562500Y-80237500D03*
%TO.P,U1,25,SWDIO_25*%
%TO.N,/SWDIO*%
X161962500Y-80237500D03*
%TO.P,U1,26,RUN_26*%
%TO.N,/GPI026_ADC2*%
X162362500Y-80237500D03*
%TO.P,U1,27,GPIO16_27*%
%TO.N,/GPIO16*%
X162762500Y-80237500D03*
%TO.P,U1,28,GPIO17_28*%
%TO.N,/GPIO17*%
X163162500Y-80237500D03*
D15*
%TO.P,U1,29,GPIO18_29*%
%TO.N,/GPIO18*%
X164000000Y-79400000D03*
%TO.P,U1,30,GPIO19_30*%
%TO.N,/GPIO19*%
X164000000Y-79000000D03*
%TO.P,U1,31,GPIO20_31*%
%TO.N,/GPIO20*%
X164000000Y-78600000D03*
%TO.P,U1,32,GPIO21_32*%
%TO.N,/GPIO21*%
X164000000Y-78200000D03*
%TO.P,U1,33,IOVDD_33*%
%TO.N,+3V3*%
X164000000Y-77800000D03*
%TO.P,U1,34,GPIO22_34*%
%TO.N,/GPIO22*%
X164000000Y-77400000D03*
%TO.P,U1,35,GPIO23_35*%
%TO.N,/RUN*%
X164000000Y-77000000D03*
%TO.P,U1,36,GPIO24_36*%
%TO.N,/GPIO23*%
X164000000Y-76600000D03*
%TO.P,U1,37,GPIO25_37*%
%TO.N,unconnected-(U1-GPIO25-Pad37)*%
X164000000Y-76200000D03*
%TO.P,U1,38,GPIO26/ADC0_38*%
%TO.N,/GPIO24*%
X164000000Y-75800000D03*
%TO.P,U1,39,GPIO27/ADC1_39*%
%TO.N,/GPI026_ADC1*%
X164000000Y-75400000D03*
%TO.P,U1,40,GPIO28/ADC2_40*%
%TO.N,/GPI026_ADCO*%
X164000000Y-75000000D03*
%TO.P,U1,41,GPIO29/ADC3_41*%
%TO.N,/GPI026_ADC3*%
X164000000Y-74600000D03*
%TO.P,U1,42,IOVDD_42*%
%TO.N,+3V3*%
X164000000Y-74200000D03*
D16*
%TO.P,U1,43,ADC_AVDD_43*%
%TO.N,+1V1*%
X163162500Y-73362500D03*
%TO.P,U1,44,VREG_VIN_44*%
%TO.N,+3V3*%
X162762500Y-73362500D03*
%TO.P,U1,45,VREG_VOUT_45*%
X162362500Y-73362500D03*
%TO.P,U1,46,USB_DM_46*%
%TO.N,Net-(U1-USB_DM)*%
X161962500Y-73362500D03*
%TO.P,U1,47,USB_DP_47*%
%TO.N,Net-(U1-USB_DP)*%
X161562500Y-73362500D03*
%TO.P,U1,48,USB_VDD_48*%
%TO.N,+1V1*%
X161162500Y-73362500D03*
%TO.P,U1,49,IOVDD_49*%
%TO.N,+3V3*%
X160762500Y-73362500D03*
%TO.P,U1,50,DVDD_50*%
X160362500Y-73362500D03*
%TO.P,U1,51,QSPI_SD3_51*%
%TO.N,/QSPI_SD3*%
X159962500Y-73362500D03*
%TO.P,U1,52,QSPI_SCLK_52*%
%TO.N,/QSPI_SCLK*%
X159562500Y-73362500D03*
%TO.P,U1,53,QSPI_SD0_53*%
%TO.N,/QSPI_SD0*%
X159162500Y-73362500D03*
%TO.P,U1,54,QSPI_SD2_54*%
%TO.N,/QSPI_SD2*%
X158762500Y-73362500D03*
%TO.P,U1,55,QSPI_SD1_55*%
%TO.N,/QSPI_SD1*%
X158362500Y-73362500D03*
%TO.P,U1,56,~{QSPI_SS}_56*%
%TO.N,/QSPI_SS*%
X157962500Y-73362500D03*
D17*
%TO.P,U1,57,GND_57*%
%TO.N,GND*%
X160562500Y-76800000D03*
%TD*%
D10*
%TO.P,R6,1*%
%TO.N,Net-(R6-Pad1)*%
X161580000Y-81400000D03*
%TO.P,R6,2*%
%TO.N,/QSPI_SS*%
X162600000Y-81400000D03*
%TD*%
%TO.P,R7,1*%
%TO.N,/QSPI_SS*%
X166400000Y-70600000D03*
%TO.P,R7,2*%
%TO.N,unconnected-(R7-Pad2)*%
X167420000Y-70600000D03*
%TD*%
D14*
%TO.P,C6,1*%
%TO.N,Net-(C1-Pad1)*%
X154440000Y-77200000D03*
%TO.P,C6,2*%
%TO.N,GND*%
X155400000Y-77200000D03*
%TD*%
D10*
%TO.P,R2,1*%
%TO.N,/USB_D+*%
X166580000Y-66190000D03*
%TO.P,R2,2*%
%TO.N,GND*%
X167600000Y-66190000D03*
%TD*%
D11*
%TO.P,C2,1*%
%TO.N,Net-(C1-Pad1)*%
X159000000Y-71800000D03*
%TO.P,C2,2*%
%TO.N,GND*%
X159000000Y-70840000D03*
%TD*%
D14*
%TO.P,C5,1*%
%TO.N,Net-(C1-Pad1)*%
X154200000Y-79070000D03*
%TO.P,C5,2*%
%TO.N,GND*%
X155160000Y-79070000D03*
%TD*%
D11*
%TO.P,C8,1*%
%TO.N,Net-(C1-Pad1)*%
X167370000Y-74360000D03*
%TO.P,C8,2*%
%TO.N,GND*%
X167370000Y-73400000D03*
%TD*%
D18*
%TO.P,J2,1,Pin_1_1*%
%TO.N,/GPIO0*%
X169800000Y-48140000D03*
D19*
%TO.P,J2,2,Pin_2_2*%
%TO.N,/GPIO1*%
X169800000Y-50680000D03*
%TO.P,J2,3,Pin_3_3*%
%TO.N,GND*%
X169800000Y-53220000D03*
%TO.P,J2,4,Pin_4_4*%
%TO.N,/GPIO2*%
X169800000Y-55760000D03*
%TO.P,J2,5,Pin_5_5*%
%TO.N,/GPIO3*%
X169800000Y-58300000D03*
%TO.P,J2,6,Pin_6_6*%
%TO.N,/GPIO4*%
X169800000Y-60840000D03*
%TO.P,J2,7,Pin_7_7*%
%TO.N,/GPIO5*%
X169800000Y-63380000D03*
%TO.P,J2,8,Pin_8_8*%
%TO.N,GND*%
X169800000Y-65920000D03*
%TO.P,J2,9,Pin_9_9*%
%TO.N,/GPIO6*%
X169800000Y-68460000D03*
%TO.P,J2,10,Pin_10_10*%
%TO.N,/GPIO7*%
X169800000Y-71000000D03*
%TO.P,J2,11,Pin_11_11*%
%TO.N,/GPIO8*%
X169800000Y-73540000D03*
%TO.P,J2,12,Pin_12_12*%
%TO.N,/GPIO9*%
X169800000Y-76080000D03*
%TO.P,J2,13,Pin_13_13*%
%TO.N,GND*%
X169800000Y-78620000D03*
%TO.P,J2,14,Pin_14_14*%
%TO.N,/GPIO10*%
X169800000Y-81160000D03*
%TO.P,J2,15,Pin_15_15*%
%TO.N,/GPIO11*%
X169800000Y-83700000D03*
%TO.P,J2,16,Pin_16_16*%
%TO.N,/GPIO12*%
X169800000Y-86240000D03*
%TO.P,J2,17,Pin_17_17*%
%TO.N,/GPIO13*%
X169800000Y-88780000D03*
%TO.P,J2,18,Pin_18_18*%
%TO.N,GND*%
X169800000Y-91320000D03*
%TO.P,J2,19,Pin_19_19*%
%TO.N,/GPIO14*%
X169800000Y-93860000D03*
%TO.P,J2,20,Pin_20_20*%
%TO.N,/GPIO15*%
X169800000Y-96400000D03*
%TD*%
D20*
%TO.P,U3,1,~{CS}_1*%
%TO.N,/QSPI_SS*%
X157012500Y-65695000D03*
%TO.P,U3,2,DO/IO_{1}_2*%
%TO.N,/QSPI_SD1*%
X157012500Y-66965000D03*
%TO.P,U3,3,~{WP}/IO_{2}_3*%
%TO.N,/QSPI_SD2*%
X157012500Y-68235000D03*
%TO.P,U3,4,GND_4*%
%TO.N,GND*%
X157012500Y-69505000D03*
%TO.P,U3,5,DI/IO_{0}_5*%
%TO.N,/QSPI_SD0*%
X164187500Y-69505000D03*
%TO.P,U3,6,CLK_6*%
%TO.N,/QSPI_SCLK*%
X164187500Y-68235000D03*
%TO.P,U3,7,~{HOLD}/~{RESET}/IO_{3}_7*%
%TO.N,/QSPI_SD3*%
X164187500Y-66965000D03*
%TO.P,U3,8,VCC_8*%
%TO.N,+3V3*%
X164187500Y-65695000D03*
%TD*%
D21*
%TO.P,C14,1*%
%TO.N,+3V3*%
X155250000Y-55400000D03*
%TO.P,C14,2*%
%TO.N,GND*%
X156800000Y-55400000D03*
%TD*%
D14*
%TO.P,C3,1*%
%TO.N,Net-(C1-Pad1)*%
X156200000Y-64600000D03*
%TO.P,C3,2*%
%TO.N,GND*%
X157160000Y-64600000D03*
%TD*%
D22*
%TO.P,J1,A1,GND_A1*%
%TO.N,GND*%
X163850000Y-53445000D03*
%TO.P,J1,A4,VBUS_A4*%
%TO.N,VBUS*%
X163050000Y-53445000D03*
D23*
%TO.P,J1,A5,CC1_A5*%
%TO.N,Net-(J1-CC1)*%
X161850000Y-53445000D03*
%TO.P,J1,A6,D+_A6*%
%TO.N,/USB_D+*%
X160850000Y-53445000D03*
%TO.P,J1,A7,D-_A7*%
%TO.N,/USB_D-*%
X160350000Y-53445000D03*
%TO.P,J1,A8*%
%TO.N,N/C*%
X159350000Y-53445000D03*
D22*
%TO.P,J1,A9,VBUS_A9*%
%TO.N,VBUS*%
X158150000Y-53445000D03*
%TO.P,J1,A12,GND_A12*%
%TO.N,GND*%
X157350000Y-53445000D03*
%TO.P,J1,B1,GND_B1*%
X157350000Y-53445000D03*
%TO.P,J1,B4,VBUS_B4*%
%TO.N,VBUS*%
X158150000Y-53445000D03*
D23*
%TO.P,J1,B5,CC2_B5*%
%TO.N,Net-(J1-CC2)*%
X158850000Y-53445000D03*
%TO.P,J1,B6,D+_B6*%
%TO.N,/USB_D+*%
X159850000Y-53445000D03*
%TO.P,J1,B7,D-_B7*%
%TO.N,/USB_D-*%
X161350000Y-53445000D03*
%TO.P,J1,B8*%
%TO.N,N/C*%
X162350000Y-53445000D03*
D22*
%TO.P,J1,B9,VBUS_B9*%
%TO.N,VBUS*%
X163050000Y-53445000D03*
%TO.P,J1,B12,GND_B12*%
%TO.N,GND*%
X163850000Y-53445000D03*
D24*
%TO.P,J1,SH,SHIELD_SH*%
X164920000Y-52530000D03*
D25*
X164920000Y-48350000D03*
D24*
X156280000Y-52530000D03*
D25*
X156280000Y-48350000D03*
%TD*%
D26*
%TO.P,U2,1,GND_1*%
%TO.N,GND*%
X157200000Y-58000000D03*
%TO.P,U2,2,VO_2*%
%TO.N,+3V3*%
X159100000Y-58000000D03*
%TO.P,U2,3,VI_3*%
%TO.N,VBUS*%
X158150000Y-56125000D03*
%TD*%
D10*
%TO.P,R1,1*%
%TO.N,Net-(J1-CC1)*%
X166580000Y-64200000D03*
%TO.P,R1,2*%
%TO.N,GND*%
X167600000Y-64200000D03*
%TD*%
D11*
%TO.P,C16,1*%
%TO.N,GND*%
X164000000Y-84160000D03*
%TO.P,C16,2*%
%TO.N,Net-(C16-Pad2)*%
X164000000Y-83200000D03*
%TD*%
D18*
%TO.P,J4,1,Pin_1_1*%
%TO.N,/SWCLK*%
X158260000Y-96000000D03*
D19*
%TO.P,J4,2,Pin_2_2*%
%TO.N,GND*%
X160800000Y-96000000D03*
%TO.P,J4,3,Pin_3_3*%
%TO.N,/SWD*%
X163340000Y-96000000D03*
%TD*%
D11*
%TO.P,C9,1*%
%TO.N,Net-(C1-Pad1)*%
X161800000Y-72160000D03*
%TO.P,C9,2*%
%TO.N,GND*%
X161800000Y-71200000D03*
%TD*%
D10*
%TO.P,R4,1*%
%TO.N,/USB_D-*%
X161180000Y-58200000D03*
%TO.P,R4,2*%
%TO.N,Net-(U1-USB_DP)*%
X162200000Y-58200000D03*
%TD*%
D21*
%TO.P,C13,1*%
%TO.N,VBUS*%
X157450000Y-60200000D03*
%TO.P,C13,2*%
%TO.N,GND*%
X159000000Y-60200000D03*
%TD*%
D14*
%TO.P,C12,1*%
%TO.N,+1V1*%
X157000000Y-81800000D03*
%TO.P,C12,2*%
%TO.N,GND*%
X157960000Y-81800000D03*
%TD*%
D11*
%TO.P,C10,1*%
%TO.N,+1V1*%
X165200000Y-72080000D03*
%TO.P,C10,2*%
%TO.N,GND*%
X165200000Y-71120000D03*
%TD*%
D18*
%TO.P,J3,1,Pin_1_1*%
%TO.N,VBUS*%
X151600000Y-48140000D03*
D19*
%TO.P,J3,2,Pin_2_2*%
%TO.N,unconnected-(J3-Pin_2-Pad2)*%
X151600000Y-50680000D03*
%TO.P,J3,3,Pin_3_3*%
%TO.N,GND*%
X151600000Y-53220000D03*
%TO.P,J3,4,Pin_4_4*%
%TO.N,/GPI026_ADC2*%
X151600000Y-55760000D03*
%TO.P,J3,5,Pin_5_5*%
%TO.N,+3V3*%
X151600000Y-58300000D03*
%TO.P,J3,6,Pin_6_6*%
%TO.N,/GPI026_ADCO*%
X151600000Y-60840000D03*
%TO.P,J3,7,Pin_7_7*%
%TO.N,/GPI026_ADC1*%
X151600000Y-63380000D03*
%TO.P,J3,8,Pin_8_8*%
%TO.N,GND*%
X151600000Y-65920000D03*
%TO.P,J3,9,Pin_9_9*%
%TO.N,/GPIO24*%
X151600000Y-68460000D03*
%TO.P,J3,10,Pin_10_10*%
%TO.N,/GPIO23*%
X151600000Y-71000000D03*
%TO.P,J3,11,Pin_11_11*%
%TO.N,/RUN*%
X151600000Y-73540000D03*
%TO.P,J3,12,Pin_12_12*%
%TO.N,/GPIO22*%
X151600000Y-76080000D03*
%TO.P,J3,13,Pin_13_13*%
%TO.N,GND*%
X151600000Y-78620000D03*
%TO.P,J3,14,Pin_14_14*%
%TO.N,/GPIO21*%
X151600000Y-81160000D03*
%TO.P,J3,15,Pin_15_15*%
%TO.N,/GPIO20*%
X151600000Y-83700000D03*
%TO.P,J3,16,Pin_16_16*%
%TO.N,/GPIO19*%
X151600000Y-86240000D03*
%TO.P,J3,17,Pin_17_17*%
%TO.N,/GPIO18*%
X151600000Y-88780000D03*
%TO.P,J3,18,Pin_18_18*%
%TO.N,GND*%
X151600000Y-91320000D03*
%TO.P,J3,19,Pin_19_19*%
%TO.N,/GPIO17*%
X151600000Y-93860000D03*
%TO.P,J3,20,Pin_20_20*%
%TO.N,/GPIO16*%
X151600000Y-96400000D03*
%TD*%
D11*
%TO.P,C15,1*%
%TO.N,GND*%
X157600000Y-84160000D03*
%TO.P,C15,2*%
%TO.N,/X_IN*%
X157600000Y-83200000D03*
%TD*%
%TO.P,C17,1*%
%TO.N,+3V3*%
X163400000Y-72160000D03*
%TO.P,C17,2*%
%TO.N,GND*%
X163400000Y-71200000D03*
%TD*%
D27*
%TO.N,Net-(J1-CC2)*%
X159800000Y-53400000D03*
D28*
X162600000Y-59200000D03*
X166200000Y-67099999D03*
X165700000Y-65800000D03*
X159000000Y-55600000D03*
D27*
X158850000Y-53445000D03*
D28*
%TO.N,Net-(U1-USB_DM)*%
X164000000Y-70400000D03*
D27*
X161963000Y-73362000D03*
D28*
%TO.N,Net-(C16-Pad2)*%
X163900000Y-83300000D03*
X155500000Y-80900000D03*
X160300000Y-62800000D03*
X160300000Y-61400000D03*
X158600000Y-84000000D03*
%TO.N,Net-(C1-Pad1)*%
X166900000Y-74300000D03*
X161100000Y-69800000D03*
X161900000Y-69500000D03*
X165500000Y-74300000D03*
X162800000Y-68200000D03*
X158500000Y-63900000D03*
X159700000Y-69500000D03*
X155000000Y-75300000D03*
X156700000Y-72600000D03*
X154400000Y-75800000D03*
%TO.N,GND*%
X159550000Y-81200000D03*
X163100000Y-82900000D03*
X160400000Y-70300000D03*
X164700000Y-54300000D03*
X158000000Y-64600000D03*
X167600000Y-65300000D03*
X160000000Y-60200000D03*
X157600000Y-85000000D03*
X166400000Y-77300000D03*
X156000000Y-79100000D03*
X155400000Y-76300000D03*
X161800000Y-85900000D03*
X164000000Y-85000000D03*
X167600000Y-63300000D03*
X156300000Y-58000000D03*
X165200000Y-60400000D03*
X160600000Y-74600000D03*
X164300000Y-71100000D03*
X164500000Y-73400000D03*
X156500000Y-54300000D03*
X158800000Y-81800000D03*
X161800000Y-70300000D03*
X157600000Y-70400000D03*
X159000000Y-70000000D03*
X167400000Y-72500000D03*
%TO.N,Net-(R6-Pad1)*%
X161700000Y-81400000D03*
X165700000Y-80100000D03*
D27*
%TO.N,/X_IN*%
X159963000Y-80237000D03*
D28*
X160700000Y-81300000D03*
%TO.N,+1V1*%
X157300000Y-80200000D03*
X165100000Y-78500000D03*
%TO.N,+3V3*%
X160650000Y-73250000D03*
X158700000Y-57400000D03*
X164200000Y-71900000D03*
X163000000Y-77800000D03*
X162650000Y-73250000D03*
D29*
X157000000Y-74100000D03*
D28*
X165600000Y-69200000D03*
D27*
X157125000Y-77800000D03*
D28*
X155800000Y-55600000D03*
D29*
X162450000Y-73700000D03*
X163900000Y-74100000D03*
D27*
X164000000Y-77800000D03*
D28*
%TO.N,/GPIO2*%
X155750000Y-75000000D03*
%TO.N,/GPIO12*%
X155750000Y-75700000D03*
X161300000Y-87800000D03*
X154900000Y-78100000D03*
X154100000Y-82300000D03*
X164100000Y-87800000D03*
%TO.N,/GPIO11*%
X163400000Y-85700000D03*
X164800000Y-87100000D03*
%TO.N,/GPIO17*%
X164400000Y-81400000D03*
X165800000Y-81400000D03*
%TO.N,/GPIO18*%
X166150000Y-80700000D03*
%TO.N,/GPIO19*%
X154100000Y-81200000D03*
X165000000Y-79650000D03*
%TO.N,/QSPI_SD3*%
X162300000Y-66800000D03*
%TO.N,/QSPI_SCLK*%
X162600000Y-70600000D03*
D27*
X159562000Y-73362000D03*
D28*
%TO.N,/QSPI_SD2*%
X156700000Y-71300000D03*
D27*
X158762000Y-73362000D03*
D28*
%TO.N,/QSPI_SD1*%
X158900000Y-67000000D03*
%TO.N,/QSPI_SS*%
X163600000Y-81800000D03*
X167100000Y-69700000D03*
X158300000Y-66300000D03*
X158900000Y-65800000D03*
X164400000Y-82200000D03*
X155650000Y-73800000D03*
%TO.N,/USB_D+*%
X161900000Y-57200000D03*
X160850000Y-51800000D03*
%TO.N,VBUS*%
X157700000Y-59900000D03*
X161900000Y-55400000D03*
X158100000Y-58000000D03*
X160500000Y-54900000D03*
%TO.N,Net-(J1-CC1)*%
X161850000Y-51800000D03*
X161800000Y-50300000D03*
X168300000Y-60600000D03*
X166700000Y-63900000D03*
%TO.N,/USB_D-*%
X161400000Y-54700000D03*
D27*
X161350000Y-53445000D03*
X160350000Y-53445000D03*
%TD*%
%TO.N,Net-(J1-CC2)*%
D30*
X163800000Y-60400000D02*
X163800000Y-60900000D01*
X166600000Y-67500000D02*
X166600000Y-68200000D01*
X164100000Y-64300000D02*
X164700000Y-64900000D01*
X165800000Y-65599999D02*
X165800000Y-65700000D01*
X165800000Y-65700000D02*
X165700000Y-65800000D01*
X166200000Y-67099999D02*
X166600000Y-67500000D01*
X166600000Y-68200000D02*
X166580000Y-68180000D01*
X163700000Y-61000000D02*
X163700000Y-64000000D01*
X165100000Y-64900000D02*
X165800000Y-65599999D01*
X164700000Y-64900000D02*
X165100000Y-64900000D01*
X163800000Y-60900000D02*
X163700000Y-61000000D01*
X163700000Y-64000000D02*
X164000000Y-64300000D01*
X159100000Y-55700000D02*
X159000000Y-55600000D01*
X164000000Y-64300000D02*
X164100000Y-64300000D01*
X162600000Y-59200000D02*
X163800000Y-60400000D01*
%TO.N,Net-(U1-USB_DM)*%
X167600000Y-68400000D02*
X167600000Y-68200000D01*
X167600000Y-68400000D02*
X167600000Y-68300000D01*
X166500000Y-69300000D02*
X166600000Y-69200000D01*
X167600000Y-68300000D02*
X167600000Y-68200000D01*
X166800000Y-69000000D02*
X167000000Y-69000000D01*
X167000000Y-69000000D02*
X167600000Y-68400000D01*
X167400000Y-68600000D02*
X167500000Y-68500000D01*
X164800000Y-70300000D02*
X164900000Y-70300000D01*
X166300000Y-69500000D02*
X166400000Y-69400000D01*
X166200000Y-69600000D02*
X166300000Y-69500000D01*
X166000000Y-69800000D02*
X166100000Y-69700000D01*
X166600000Y-69200000D02*
X166700000Y-69100000D01*
X165700000Y-70100000D02*
X165800000Y-70000000D01*
X166700000Y-69100000D02*
X166800000Y-69000000D01*
X167600000Y-68200000D02*
X167600000Y-68180000D01*
X164400000Y-70300000D02*
X164500000Y-70300000D01*
X167500000Y-68500000D02*
X167600000Y-68400000D01*
X165200000Y-70300000D02*
X165300000Y-70300000D01*
X164200000Y-70300000D02*
X164300000Y-70300000D01*
X164500000Y-70300000D02*
X164600000Y-70300000D01*
X164100000Y-70400000D02*
X164200000Y-70300000D01*
X165800000Y-70000000D02*
X165900000Y-69900000D01*
X166400000Y-69400000D02*
X166500000Y-69300000D01*
X165500000Y-70300000D02*
X166800000Y-69000000D01*
X165500000Y-70300000D02*
X165600000Y-70200000D01*
X164700000Y-70300000D02*
X164800000Y-70300000D01*
X164100000Y-70300000D02*
X164200000Y-70300000D01*
X167300000Y-68700000D02*
X167400000Y-68600000D01*
X165600000Y-70200000D02*
X165700000Y-70100000D01*
X166800000Y-69000000D02*
X166900000Y-69000000D01*
X165100000Y-70300000D02*
X165200000Y-70300000D01*
X166900000Y-69000000D02*
X167000000Y-69000000D01*
X164300000Y-70300000D02*
X164400000Y-70300000D01*
X167100000Y-68900000D02*
X167200000Y-68800000D01*
X165000000Y-70300000D02*
X165100000Y-70300000D01*
X164000000Y-70400000D02*
X164100000Y-70300000D01*
X165400000Y-70300000D02*
X165500000Y-70300000D01*
X165900000Y-69900000D02*
X166000000Y-69800000D01*
X165300000Y-70300000D02*
X165400000Y-70300000D01*
X166100000Y-69700000D02*
X166200000Y-69600000D01*
X164600000Y-70300000D02*
X164700000Y-70300000D01*
X164900000Y-70300000D02*
X165000000Y-70300000D01*
X167200000Y-68800000D02*
X167300000Y-68700000D01*
X167000000Y-69000000D02*
X167100000Y-68900000D01*
X164200000Y-70300000D02*
X165500000Y-70300000D01*
%TO.N,Net-(C16-Pad2)*%
X155400000Y-64200000D02*
X157300000Y-62300000D01*
X159600000Y-84700000D02*
X159300000Y-84700000D01*
X157700000Y-62700000D02*
X160200000Y-62700000D01*
X159300000Y-84700000D02*
X158600000Y-84000000D01*
X155400000Y-64599999D02*
X155400000Y-64200000D01*
X158600000Y-84000000D02*
X158900000Y-84100000D01*
X163900000Y-83300000D02*
X164000000Y-83200000D01*
X153400000Y-68400000D02*
X154500000Y-67300000D01*
X160300000Y-61400000D02*
X160900000Y-60800000D01*
X160900000Y-60800000D02*
X161000000Y-60800000D01*
X154800000Y-80900000D02*
X153400000Y-79500000D01*
X157300000Y-62300000D02*
X157700000Y-62700000D01*
X154500000Y-67300000D02*
X154500000Y-65500000D01*
X160200000Y-62700000D02*
X160300000Y-62800000D01*
X155500000Y-80900000D02*
X154800000Y-80900000D01*
X153400000Y-79500000D02*
X153400000Y-68400000D01*
X154500000Y-65500000D02*
X155400000Y-64599999D01*
%TO.N,Net-(C1-Pad1)*%
X156400000Y-64200000D02*
X156400000Y-64300000D01*
X157900000Y-72000000D02*
X158000000Y-72000000D01*
X156700000Y-72200000D02*
X156800000Y-72200000D01*
X158000000Y-72200000D02*
X158100000Y-72200000D01*
X159500000Y-65100000D02*
X159400000Y-65000000D01*
X155100000Y-68900000D02*
X155100000Y-69000000D01*
X155300000Y-70700000D02*
X155400000Y-70800000D01*
X157200000Y-63800000D02*
X157100000Y-63800000D01*
X155100000Y-69700000D02*
X155100000Y-69800000D01*
X158700000Y-64300000D02*
X158600000Y-64200000D01*
X158100000Y-63900000D02*
X158000000Y-63800000D01*
X159900000Y-72200000D02*
X160000000Y-72200000D01*
X159000000Y-64600000D02*
X158900000Y-64500000D01*
X155700000Y-66100000D02*
X155700000Y-66200000D01*
X161100000Y-69800000D02*
X161000000Y-69700000D01*
X156400000Y-64300000D02*
X156400000Y-64400000D01*
X159100000Y-72200000D02*
X159200000Y-72200000D01*
X155400000Y-70800000D02*
X155500000Y-70900000D01*
X157200000Y-63800000D02*
X157100000Y-63800000D01*
X156500000Y-64100000D02*
X156400000Y-64200000D01*
X159600000Y-65300000D02*
X159600000Y-65200000D01*
X155700000Y-65900000D02*
X155700000Y-66000000D01*
X158900000Y-64500000D02*
X158800000Y-64400000D01*
X159600000Y-68200000D02*
X159600000Y-68100000D01*
X160100000Y-72200000D02*
X160200000Y-72200000D01*
X154300000Y-76000000D02*
X154200000Y-76100000D01*
X157500000Y-72200000D02*
X157600000Y-72200000D01*
X154400000Y-77200000D02*
X154440000Y-77200000D01*
X158500000Y-64100000D02*
X158400000Y-64000000D01*
X155800000Y-65200000D02*
X155700000Y-65300000D01*
X157800000Y-72000000D02*
X157900000Y-72000000D01*
X159100000Y-72200000D02*
X159200000Y-72200000D01*
X157000000Y-72300000D02*
X157100000Y-72200000D01*
X155100000Y-69100000D02*
X155100000Y-69200000D01*
X159700000Y-67800000D02*
X159700000Y-67700000D01*
X159600000Y-65600000D02*
X159600000Y-65500000D01*
X161100000Y-66700000D02*
X161000000Y-66600000D01*
X160400000Y-72200000D02*
X160500000Y-72200000D01*
X158200000Y-63900000D02*
X158100000Y-63900000D01*
X156700000Y-63900000D02*
X156600000Y-64000000D01*
X157700000Y-63800000D02*
X157600000Y-63800000D01*
X158200000Y-63800000D02*
X158100000Y-63800000D01*
X154500000Y-75800000D02*
X154400000Y-75900000D01*
X155100000Y-69700000D02*
X155100000Y-69800000D01*
X156400000Y-64600000D02*
X156300000Y-64700000D01*
X158100000Y-72200000D02*
X158200000Y-72200000D01*
X154200000Y-78300000D02*
X154200000Y-78400000D01*
X155300000Y-70700000D02*
X155400000Y-70800000D01*
X159600000Y-67300000D02*
X159600000Y-67200000D01*
X155100000Y-69300000D02*
X155100000Y-69400000D01*
X155700000Y-67400000D02*
X155700000Y-67500000D01*
X155700000Y-66200000D02*
X155700000Y-66300000D01*
X155200000Y-68800000D02*
X155100000Y-68900000D01*
X158300000Y-72200000D02*
X158400000Y-72200000D01*
X156800000Y-72200000D02*
X156900000Y-72200000D01*
X159700000Y-68500000D02*
X159700000Y-68400000D01*
X156700000Y-72200000D02*
X156800000Y-72200000D01*
X155700000Y-68100000D02*
X155700000Y-68200000D01*
X155100000Y-70500000D02*
X155200000Y-70600000D01*
X155700000Y-71100000D02*
X155800000Y-71200000D01*
X158900000Y-64500000D02*
X158800000Y-64400000D01*
X154200000Y-76900000D02*
X154200000Y-77000000D01*
X160100000Y-72200000D02*
X160200000Y-72200000D01*
X158300000Y-63800000D02*
X162700000Y-68200000D01*
X159600000Y-66600000D02*
X159600000Y-66500000D01*
X158200000Y-72200000D02*
X158300000Y-72200000D01*
X159700000Y-67900000D02*
X159700000Y-67800000D01*
X156100000Y-71700000D02*
X156200000Y-71800000D01*
X156000000Y-71700000D02*
X156000000Y-71500000D01*
X157700000Y-63800000D02*
X157600000Y-63800000D01*
X154200000Y-79000000D02*
X154200000Y-79100000D01*
X158900000Y-72200000D02*
X159000000Y-72200000D01*
X158800000Y-64400000D02*
X158700000Y-64300000D01*
X160700000Y-72200000D02*
X160800000Y-72200000D01*
X154200000Y-77700000D02*
X154200000Y-77800000D01*
X156400000Y-64400000D02*
X156400000Y-64500000D01*
X155700000Y-66700000D02*
X155700000Y-66800000D01*
X159100000Y-64700000D02*
X159000000Y-64600000D01*
X156000000Y-71500000D02*
X156000000Y-71600000D01*
X159700000Y-66700000D02*
X159700000Y-66600000D01*
X155800000Y-71200000D02*
X155900000Y-71300000D01*
X159200000Y-72200000D02*
X159300000Y-72200000D01*
X157700000Y-72000000D02*
X157800000Y-72000000D01*
X161900000Y-68400000D02*
X161900000Y-68300000D01*
X161900000Y-68100000D02*
X161900000Y-68000000D01*
X155100000Y-69200000D02*
X155100000Y-69300000D01*
X156400000Y-64300000D02*
X156400000Y-64400000D01*
X156000000Y-65000000D02*
X155900000Y-65100000D01*
X155400000Y-65600000D02*
X155300000Y-65700000D01*
X155400000Y-70800000D02*
X155500000Y-70900000D01*
X156900000Y-72200000D02*
X157000000Y-72200000D01*
X157700000Y-72200000D02*
X157800000Y-72200000D01*
X157400000Y-63800000D02*
X157300000Y-63800000D01*
X158400000Y-64000000D02*
X158300000Y-63900000D01*
X155100000Y-69000000D02*
X155100000Y-69100000D01*
X155700000Y-67400000D02*
X155700000Y-67500000D01*
X157600000Y-72200000D02*
X157700000Y-72200000D01*
X159600000Y-67100000D02*
X159600000Y-67000000D01*
X155500000Y-70900000D02*
X155600000Y-71000000D01*
X155300000Y-68700000D02*
X155200000Y-68800000D01*
X160400000Y-66000000D02*
X160300000Y-65900000D01*
X157600000Y-72200000D02*
X157700000Y-72200000D01*
X157500000Y-63800000D02*
X157400000Y-63800000D01*
X156100000Y-71700000D02*
X156200000Y-71800000D01*
X158100000Y-72000000D02*
X158200000Y-72000000D01*
X156200000Y-64599999D02*
X156200000Y-64400000D01*
X156300000Y-71900000D02*
X156400000Y-72000000D01*
X155800000Y-71200000D02*
X155900000Y-71300000D01*
X158300000Y-63900000D02*
X158200000Y-63800000D01*
X154200000Y-77300000D02*
X154200000Y-77400000D01*
X155100000Y-69600000D02*
X155100000Y-69700000D01*
X155100000Y-70000000D02*
X155100000Y-70100000D01*
X155700000Y-67200000D02*
X155700000Y-67300000D01*
X156900000Y-72400000D02*
X157000000Y-72300000D01*
X155700000Y-67700000D02*
X155700000Y-67800000D01*
X155500000Y-68500000D02*
X155400000Y-68600000D01*
X155700000Y-67500000D02*
X155700000Y-67600000D01*
X156000000Y-71500000D02*
X156000000Y-71600000D01*
X158000000Y-72000000D02*
X158100000Y-72000000D01*
X155100000Y-66500000D02*
X155100000Y-66600000D01*
X157900000Y-63800000D02*
X157800000Y-63800000D01*
X158900000Y-71900000D02*
X159000000Y-71800000D01*
X156300000Y-64300000D02*
X156200000Y-64400000D01*
X154400000Y-76800000D02*
X154400000Y-76900000D01*
X159700000Y-67500000D02*
X159700000Y-67400000D01*
X154200000Y-79100000D02*
X154200000Y-79070000D01*
X160600000Y-66200000D02*
X160500000Y-66100000D01*
X159600000Y-66400000D02*
X159600000Y-66300000D01*
X159600000Y-66900000D02*
X159600000Y-66800000D01*
X155600000Y-71000000D02*
X155700000Y-71100000D01*
X156300000Y-64700000D02*
X156200000Y-64800000D01*
X157000000Y-72000000D02*
X157100000Y-72000000D01*
X155100000Y-69400000D02*
X155100000Y-69500000D01*
X154200000Y-76300000D02*
X154200000Y-76400000D01*
X156200000Y-64400000D02*
X156200000Y-64500000D01*
X155700000Y-66800000D02*
X155700000Y-66900000D01*
X155700000Y-66000000D02*
X155700000Y-66100000D01*
X158000000Y-72200000D02*
X158100000Y-72200000D01*
X155100000Y-67100000D02*
X155100000Y-67200000D01*
X155900000Y-65100000D02*
X155800000Y-65200000D01*
X156000000Y-71600000D02*
X156100000Y-71700000D01*
X161900000Y-69300000D02*
X161900000Y-69200000D01*
X159600000Y-66300000D02*
X159600000Y-66200000D01*
X161900000Y-67800000D02*
X161900000Y-67700000D01*
X154200000Y-77000000D02*
X154200000Y-77100000D01*
X154400000Y-76500000D02*
X154400000Y-76600000D01*
X156400000Y-72100000D02*
X154400000Y-74100000D01*
X155100000Y-68100000D02*
X155100000Y-68200000D01*
X154200000Y-77500000D02*
X154200000Y-77600000D01*
X159500000Y-65100000D02*
X159400000Y-65000000D01*
X157200000Y-72000000D02*
X157300000Y-72000000D01*
X156800000Y-63800000D02*
X156700000Y-63900000D01*
X159700000Y-67300000D02*
X159700000Y-67200000D01*
X159000000Y-72200000D02*
X159100000Y-72200000D01*
X161700000Y-67300000D02*
X161600000Y-67200000D01*
X156400000Y-64400000D02*
X156400000Y-64500000D01*
X159700000Y-67200000D02*
X159700000Y-67100000D01*
X155700000Y-65300000D02*
X155700000Y-65400000D01*
X159700000Y-67000000D02*
X159700000Y-66900000D01*
X155700000Y-66300000D02*
X155700000Y-66400000D01*
X157600000Y-63800000D02*
X157500000Y-63800000D01*
X157300000Y-72200000D02*
X157400000Y-72200000D01*
X157500000Y-63800000D02*
X157400000Y-63800000D01*
X157600000Y-72200000D02*
X157500000Y-72100000D01*
X161500000Y-72200000D02*
X161600000Y-72200000D01*
X157000000Y-63800000D02*
X156900000Y-63800000D01*
X156100000Y-71700000D02*
X156200000Y-71800000D01*
X157800000Y-72000000D02*
X158800000Y-72000000D01*
X156200000Y-64800000D02*
X156100000Y-64900000D01*
X161900000Y-68600000D02*
X161900000Y-68500000D01*
X155700000Y-65300000D02*
X155600000Y-65400000D01*
X154200000Y-76200000D02*
X154200000Y-76300000D01*
X158600000Y-72000000D02*
X158700000Y-72000000D01*
X155100000Y-70500000D02*
X155200000Y-70600000D01*
X157200000Y-63800000D02*
X157100000Y-63800000D01*
X159600000Y-66500000D02*
X159600000Y-66400000D01*
X155700000Y-65500000D02*
X155700000Y-65600000D01*
X155900000Y-71300000D02*
X156000000Y-71400000D01*
X155100000Y-69500000D02*
X155100000Y-69600000D01*
X165400000Y-74400000D02*
X165400000Y-74360000D01*
X155500000Y-70900000D02*
X155600000Y-71000000D01*
X155700000Y-65400000D02*
X155700000Y-65500000D01*
X159600000Y-68300000D02*
X159600000Y-68200000D01*
X155100000Y-69800000D02*
X155100000Y-69900000D01*
X155100000Y-68900000D02*
X155100000Y-69000000D01*
X155100000Y-69000000D02*
X155100000Y-69100000D01*
X157000000Y-63800000D02*
X156900000Y-63800000D01*
X155600000Y-71000000D02*
X155700000Y-71100000D01*
X161400000Y-72200000D02*
X161500000Y-72200000D01*
X154200000Y-76100000D02*
X154200000Y-76200000D01*
X155700000Y-66500000D02*
X155700000Y-66600000D01*
X155100000Y-66400000D02*
X155100000Y-66500000D01*
X158600000Y-64200000D02*
X158500000Y-64100000D01*
X156000000Y-71600000D02*
X156100000Y-71700000D01*
X156100000Y-64900000D02*
X156000000Y-65000000D01*
X155600000Y-68400000D02*
X155500000Y-68500000D01*
X160900000Y-72200000D02*
X161000000Y-72200000D01*
X160900000Y-66500000D02*
X160800000Y-66400000D01*
X155100000Y-67000000D02*
X155100000Y-67100000D01*
X159700000Y-65600000D02*
X159700000Y-65500000D01*
X161900000Y-68900000D02*
X161900000Y-68800000D01*
X160500000Y-69200000D02*
X160400000Y-69100000D01*
X155100000Y-68500000D02*
X155100000Y-68600000D01*
X158300000Y-72200000D02*
X158400000Y-72200000D01*
X156900000Y-63800000D02*
X156800000Y-63800000D01*
X158400000Y-72000000D02*
X158500000Y-72000000D01*
X158100000Y-63800000D02*
X158000000Y-63800000D01*
X159600000Y-65900000D02*
X159600000Y-65800000D01*
X155700000Y-67100000D02*
X155700000Y-67200000D01*
X158600000Y-72200000D02*
X158700000Y-72200000D01*
X157300000Y-63800000D02*
X157200000Y-63800000D01*
X158300000Y-63900000D02*
X158200000Y-63800000D01*
X160700000Y-69400000D02*
X160600000Y-69300000D01*
X156800000Y-63800000D02*
X156700000Y-63900000D01*
X157100000Y-72200000D02*
X157200000Y-72200000D01*
X157900000Y-63800000D02*
X157800000Y-63800000D01*
X159600000Y-72200000D02*
X159700000Y-72200000D01*
X155700000Y-67900000D02*
X155700000Y-68000000D01*
X156000000Y-71400000D02*
X156000000Y-71500000D01*
X156400000Y-72000000D02*
X156500000Y-72100000D01*
X154200000Y-76400000D02*
X154200000Y-76500000D01*
X155700000Y-65700000D02*
X155700000Y-65800000D01*
X154200000Y-77200000D02*
X154200000Y-77300000D01*
X155600000Y-68400000D02*
X155500000Y-68500000D01*
X155700000Y-66000000D02*
X155700000Y-66100000D01*
X159700000Y-67600000D02*
X159700000Y-67500000D01*
X155200000Y-70600000D02*
X155300000Y-70700000D01*
X155700000Y-67800000D02*
X155700000Y-67900000D01*
X155300000Y-70700000D02*
X155400000Y-70800000D01*
X157300000Y-63800000D02*
X157200000Y-63800000D01*
X160900000Y-69600000D02*
X160800000Y-69500000D01*
X157800000Y-72200000D02*
X157900000Y-72200000D01*
X159700000Y-66100000D02*
X159700000Y-66000000D01*
X161800000Y-72200000D02*
X161800000Y-72160000D01*
X156800000Y-63800000D02*
X156700000Y-63900000D01*
X159600000Y-68100000D02*
X159600000Y-68000000D01*
X155700000Y-66900000D02*
X155700000Y-67000000D01*
X155700000Y-65500000D02*
X155700000Y-65600000D01*
X156200000Y-71800000D02*
X156300000Y-71900000D01*
X161000000Y-72200000D02*
X161100000Y-72200000D01*
X158400000Y-72200000D02*
X158500000Y-72200000D01*
X159700000Y-66200000D02*
X159700000Y-66100000D01*
X160300000Y-72200000D02*
X160400000Y-72200000D01*
X155700000Y-66600000D02*
X155700000Y-66700000D01*
X161900000Y-68800000D02*
X161900000Y-68700000D01*
X157100000Y-72200000D02*
X157200000Y-72200000D01*
X159700000Y-68000000D02*
X159700000Y-67900000D01*
X160800000Y-66400000D02*
X160700000Y-66300000D01*
X156300000Y-71900000D02*
X156400000Y-72000000D01*
X160200000Y-65800000D02*
X160100000Y-65700000D01*
X159700000Y-65400000D02*
X159700000Y-65300000D01*
X161900000Y-68300000D02*
X161900000Y-68200000D01*
X156600000Y-72000000D02*
X156700000Y-72000000D01*
X159700000Y-66800000D02*
X159700000Y-66700000D01*
X157800000Y-63900000D02*
X157700000Y-63900000D01*
X155700000Y-67100000D02*
X155700000Y-67200000D01*
X157000000Y-72200000D02*
X157100000Y-72200000D01*
X159700000Y-66500000D02*
X159700000Y-66400000D01*
X159600000Y-67800000D02*
X159600000Y-67700000D01*
X155100000Y-69100000D02*
X155100000Y-69200000D01*
X159700000Y-66400000D02*
X159700000Y-66300000D01*
X157500000Y-72100000D02*
X156400000Y-72100000D01*
X156800000Y-63800000D02*
X158300000Y-63800000D01*
X155100000Y-66300000D02*
X155100000Y-66400000D01*
X159600000Y-66200000D02*
X159600000Y-66100000D01*
X155100000Y-69200000D02*
X155100000Y-69300000D01*
X161300000Y-66900000D02*
X161200000Y-66800000D01*
X158400000Y-63900000D02*
X158300000Y-63900000D01*
X156000000Y-71500000D02*
X156000000Y-71600000D01*
X160700000Y-66300000D02*
X160600000Y-66200000D01*
X159600000Y-67600000D02*
X159600000Y-67500000D01*
X156400000Y-64200000D02*
X156300000Y-64300000D01*
X155100000Y-66700000D02*
X155100000Y-66800000D01*
X154800000Y-75500000D02*
X154700000Y-75600000D01*
X158300000Y-72000000D02*
X158400000Y-72000000D01*
X159700000Y-69000000D02*
X159700000Y-68900000D01*
X155700000Y-66400000D02*
X155700000Y-66500000D01*
X155100000Y-70300000D02*
X155100000Y-70400000D01*
X155700000Y-67000000D02*
X155700000Y-67100000D01*
X155700000Y-68000000D02*
X155700000Y-68100000D01*
X155700000Y-67900000D02*
X155700000Y-68000000D01*
X157400000Y-72200000D02*
X157500000Y-72200000D01*
X159600000Y-65800000D02*
X159600000Y-65700000D01*
X155200000Y-68800000D02*
X155100000Y-68900000D01*
X157000000Y-63800000D02*
X156900000Y-63800000D01*
X155100000Y-69900000D02*
X155100000Y-70000000D01*
X161900000Y-68000000D02*
X161900000Y-67900000D01*
X155700000Y-66500000D02*
X155700000Y-66600000D01*
X156100000Y-64900000D02*
X156000000Y-65000000D01*
X156300000Y-64700000D02*
X156200000Y-64800000D01*
X155100000Y-67500000D02*
X155100000Y-67600000D01*
X157200000Y-72200000D02*
X157300000Y-72200000D01*
X159600000Y-66700000D02*
X159600000Y-66600000D01*
X161100000Y-72200000D02*
X161200000Y-72200000D01*
X159400000Y-65000000D02*
X159300000Y-64900000D01*
X159700000Y-67100000D02*
X159700000Y-67000000D01*
X155100000Y-70200000D02*
X155100000Y-70300000D01*
X154200000Y-76800000D02*
X154200000Y-76900000D01*
X159600000Y-67000000D02*
X159600000Y-66900000D01*
X159700000Y-68400000D02*
X159600000Y-68300000D01*
X155100000Y-69900000D02*
X155100000Y-70000000D01*
X159700000Y-68900000D02*
X159700000Y-68800000D01*
X157000000Y-72200000D02*
X157100000Y-72200000D01*
X158700000Y-64300000D02*
X158600000Y-64200000D01*
X156800000Y-72200000D02*
X156900000Y-72200000D01*
X154400000Y-76900000D02*
X154400000Y-77000000D01*
X155700000Y-66600000D02*
X155700000Y-66700000D01*
X159600000Y-66800000D02*
X159600000Y-66700000D01*
X155100000Y-70100000D02*
X155100000Y-70200000D01*
X155700000Y-66900000D02*
X155700000Y-67000000D01*
X155200000Y-70600000D02*
X155300000Y-70700000D01*
X159700000Y-69100000D02*
X159700000Y-69000000D01*
X156500000Y-72100000D02*
X156600000Y-72200000D01*
X159600000Y-67200000D02*
X159600000Y-67100000D01*
X155700000Y-67600000D02*
X155700000Y-67700000D01*
X155700000Y-65800000D02*
X155700000Y-65900000D01*
X159700000Y-69500000D02*
X159700000Y-69400000D01*
X154200000Y-78000000D02*
X154200000Y-78100000D01*
X155700000Y-68200000D02*
X155700000Y-68300000D01*
X159700000Y-65500000D02*
X159700000Y-65400000D01*
X155100000Y-69300000D02*
X155100000Y-69400000D01*
X158800000Y-72000000D02*
X158900000Y-71900000D01*
X161500000Y-67100000D02*
X161400000Y-67000000D01*
X160200000Y-72200000D02*
X160300000Y-72200000D01*
X155700000Y-65800000D02*
X155700000Y-65900000D01*
X157800000Y-63800000D02*
X157700000Y-63800000D01*
X157800000Y-63800000D02*
X157700000Y-63800000D01*
X155500000Y-65500000D02*
X155400000Y-65600000D01*
X161300000Y-72200000D02*
X161400000Y-72200000D01*
X159300000Y-72200000D02*
X159400000Y-72200000D01*
X156900000Y-63800000D02*
X156800000Y-63800000D01*
X157700000Y-72200000D02*
X157800000Y-72200000D01*
X159500000Y-65100000D02*
X159400000Y-65000000D01*
X158100000Y-72200000D02*
X158200000Y-72200000D01*
X155800000Y-65200000D02*
X155700000Y-65300000D01*
X157300000Y-72200000D02*
X157400000Y-72200000D01*
X155700000Y-66400000D02*
X155700000Y-66500000D01*
X155100000Y-69400000D02*
X155100000Y-69500000D01*
X159700000Y-67400000D02*
X159700000Y-67300000D01*
X154200000Y-79100000D02*
X154200000Y-79070000D01*
X156500000Y-64100000D02*
X156400000Y-64200000D01*
X155900000Y-65100000D02*
X155800000Y-65200000D01*
X157100000Y-63800000D02*
X157000000Y-63800000D01*
X157300000Y-72200000D02*
X157400000Y-72200000D01*
X159700000Y-69300000D02*
X159700000Y-69200000D01*
X156500000Y-72100000D02*
X156600000Y-72200000D01*
X154400000Y-76200000D02*
X154400000Y-76300000D01*
X160400000Y-69100000D02*
X160300000Y-69000000D01*
X155100000Y-70000000D02*
X155100000Y-70100000D01*
X155400000Y-68600000D02*
X155300000Y-68700000D01*
X155500000Y-68500000D02*
X155400000Y-68600000D01*
X156600000Y-64000000D02*
X156500000Y-64100000D01*
X155700000Y-66800000D02*
X155700000Y-66900000D01*
X166900000Y-74300000D02*
X167000000Y-74400000D01*
X154200000Y-77800000D02*
X154200000Y-77900000D01*
X158800000Y-72200000D02*
X158900000Y-72200000D01*
X159100000Y-64700000D02*
X159000000Y-64600000D01*
X157700000Y-63900000D02*
X157600000Y-63900000D01*
X161600000Y-67200000D02*
X161500000Y-67100000D01*
X158500000Y-72200000D02*
X158600000Y-72200000D01*
X155700000Y-68200000D02*
X155700000Y-68300000D01*
X157500000Y-72000000D02*
X157600000Y-72000000D01*
X159300000Y-72200000D02*
X159400000Y-72200000D01*
X154200000Y-78200000D02*
X154200000Y-78300000D01*
X155100000Y-70000000D02*
X155100000Y-70100000D01*
X160000000Y-65600000D02*
X159900000Y-65500000D01*
X154200000Y-76600000D02*
X154200000Y-76700000D01*
X159100000Y-64700000D02*
X159000000Y-64600000D01*
X159600000Y-65700000D02*
X159600000Y-65600000D01*
X161900000Y-68200000D02*
X161900000Y-68100000D01*
X157100000Y-63800000D02*
X157000000Y-63800000D01*
X159700000Y-68800000D02*
X159700000Y-68700000D01*
X156700000Y-63900000D02*
X156600000Y-64000000D01*
X154400000Y-75900000D02*
X154400000Y-76000000D01*
X156300000Y-64700000D02*
X156200000Y-64800000D01*
X158500000Y-63900000D02*
X158400000Y-63900000D01*
X155100000Y-69000000D02*
X155100000Y-69100000D01*
X156700000Y-72000000D02*
X156800000Y-72000000D01*
X159600000Y-68000000D02*
X159600000Y-67900000D01*
X157900000Y-72200000D02*
X158000000Y-72200000D01*
X155700000Y-65700000D02*
X155700000Y-65800000D01*
X159000000Y-64600000D02*
X158900000Y-64500000D01*
X155100000Y-70100000D02*
X155100000Y-70200000D01*
X155100000Y-69700000D02*
X155100000Y-69800000D01*
X154400000Y-77000000D02*
X154400000Y-77100000D01*
X158600000Y-64200000D02*
X158500000Y-64100000D01*
X155700000Y-66200000D02*
X155700000Y-66300000D01*
X160200000Y-68900000D02*
X160100000Y-68800000D01*
X155100000Y-68600000D02*
X155100000Y-68700000D01*
X159700000Y-68700000D02*
X159700000Y-68600000D01*
X155700000Y-65400000D02*
X155700000Y-65500000D01*
X156000000Y-71500000D02*
X155100000Y-70600000D01*
X154400000Y-75800000D02*
X154400000Y-75900000D01*
X155700000Y-67500000D02*
X155700000Y-67600000D01*
X161900000Y-67700000D02*
X161900000Y-67600000D01*
X154400000Y-76700000D02*
X154400000Y-76800000D01*
X156800000Y-72500000D02*
X156900000Y-72400000D01*
X156400000Y-64400000D02*
X156400000Y-64500000D01*
X155100000Y-65700000D02*
X156200000Y-64599999D01*
X159900000Y-65500000D02*
X159800000Y-65400000D01*
X154400000Y-74100000D02*
X154400000Y-77200000D01*
X156900000Y-72000000D02*
X157000000Y-72000000D01*
X155100000Y-69500000D02*
X155100000Y-69600000D01*
X156200000Y-64800000D02*
X156100000Y-64900000D01*
X156400000Y-72100000D02*
X156000000Y-71700000D01*
X154400000Y-77100000D02*
X154400000Y-77200000D01*
X155700000Y-67000000D02*
X155700000Y-67100000D01*
X159700000Y-68600000D02*
X159700000Y-68500000D01*
X156600000Y-64000000D02*
X156500000Y-64100000D01*
X159900000Y-68600000D02*
X159800000Y-68500000D01*
X157400000Y-72200000D02*
X157500000Y-72200000D01*
X156900000Y-72200000D02*
X157000000Y-72200000D01*
X160300000Y-65900000D02*
X160200000Y-65800000D01*
X156000000Y-71400000D02*
X156000000Y-71500000D01*
X156800000Y-72000000D02*
X156900000Y-72000000D01*
X159700000Y-65800000D02*
X159700000Y-65700000D01*
X155900000Y-71300000D02*
X156000000Y-71400000D01*
X154200000Y-78800000D02*
X154200000Y-78900000D01*
X161900000Y-68500000D02*
X161900000Y-68400000D01*
X155700000Y-68000000D02*
X155700000Y-68100000D01*
X156400000Y-72000000D02*
X156500000Y-72100000D01*
X161900000Y-69400000D02*
X161900000Y-69300000D01*
X159700000Y-72200000D02*
X159800000Y-72200000D01*
X158800000Y-64400000D02*
X158700000Y-64300000D01*
X155700000Y-68300000D02*
X155600000Y-68400000D01*
X158200000Y-72200000D02*
X158300000Y-72200000D01*
X155100000Y-67600000D02*
X155100000Y-67700000D01*
X155700000Y-65300000D02*
X155700000Y-65400000D01*
X159600000Y-65500000D02*
X159600000Y-65400000D01*
X158400000Y-64000000D02*
X158300000Y-63900000D01*
X159000000Y-64600000D02*
X158900000Y-64500000D01*
X159600000Y-66000000D02*
X159600000Y-65900000D01*
X156500000Y-72000000D02*
X156600000Y-72000000D01*
X155400000Y-70800000D02*
X155500000Y-70900000D01*
X155100000Y-69800000D02*
X155100000Y-69900000D01*
X157500000Y-72200000D02*
X157600000Y-72200000D01*
X155100000Y-66100000D02*
X155100000Y-66200000D01*
X159600000Y-67900000D02*
X159600000Y-67800000D01*
X157500000Y-63800000D02*
X157400000Y-63800000D01*
X158000000Y-63800000D02*
X157900000Y-63900000D01*
X159700000Y-65700000D02*
X159700000Y-65600000D01*
X155500000Y-70900000D02*
X155600000Y-71000000D01*
X155100000Y-67700000D02*
X155100000Y-67800000D01*
X155800000Y-71200000D02*
X155900000Y-71300000D01*
X160000000Y-72200000D02*
X160100000Y-72200000D01*
X159700000Y-68300000D02*
X159700000Y-68200000D01*
X157100000Y-63800000D02*
X157000000Y-63800000D01*
X160400000Y-72200000D02*
X160400000Y-72160000D01*
X160000000Y-72200000D02*
X160100000Y-72200000D01*
X155100000Y-69500000D02*
X155100000Y-69600000D01*
X155700000Y-67800000D02*
X155700000Y-67900000D01*
X155700000Y-71100000D02*
X155800000Y-71200000D01*
X155700000Y-66700000D02*
X155700000Y-66800000D01*
X158900000Y-64500000D02*
X158800000Y-64400000D01*
X161800000Y-72200000D02*
X161800000Y-72160000D01*
X157100000Y-72200000D02*
X157200000Y-72200000D01*
X156400000Y-64600000D02*
X156300000Y-64700000D01*
X155700000Y-67300000D02*
X155700000Y-67400000D01*
X157600000Y-63800000D02*
X157500000Y-63800000D01*
X155100000Y-68200000D02*
X155100000Y-68300000D01*
X155100000Y-66800000D02*
X155100000Y-66900000D01*
X158500000Y-64100000D02*
X158400000Y-64000000D01*
X155900000Y-65100000D02*
X155800000Y-65200000D01*
X156000000Y-65000000D02*
X155900000Y-65100000D01*
X159200000Y-64800000D02*
X159100000Y-64700000D01*
X160800000Y-69500000D02*
X160700000Y-69400000D01*
X155600000Y-71000000D02*
X155700000Y-71100000D01*
X157400000Y-63800000D02*
X157300000Y-63800000D01*
X155100000Y-68000000D02*
X155100000Y-68100000D01*
X155400000Y-68600000D02*
X155300000Y-68700000D01*
X157400000Y-63800000D02*
X157300000Y-63800000D01*
X155700000Y-67700000D02*
X155700000Y-67800000D01*
X154400000Y-76600000D02*
X154400000Y-76700000D01*
X158000000Y-63800000D02*
X157900000Y-63800000D01*
X157700000Y-63800000D02*
X157600000Y-63800000D01*
X155100000Y-66900000D02*
X155100000Y-67000000D01*
X157600000Y-72200000D02*
X157800000Y-72000000D01*
X158300000Y-63900000D02*
X158200000Y-63800000D01*
X156400000Y-64500000D02*
X156400000Y-64600000D01*
X156500000Y-64100000D02*
X156400000Y-64200000D01*
X158700000Y-72200000D02*
X158800000Y-72200000D01*
X160800000Y-72200000D02*
X160900000Y-72200000D01*
X161400000Y-67000000D02*
X161300000Y-66900000D01*
X160400000Y-72200000D02*
X161800000Y-72200000D01*
X159800000Y-68500000D02*
X159700000Y-68400000D01*
X158300000Y-63900000D02*
X158200000Y-63900000D01*
X160300000Y-72200000D02*
X160400000Y-72200000D01*
X156600000Y-72200000D02*
X156700000Y-72200000D01*
X156900000Y-63800000D02*
X156800000Y-63800000D01*
X155100000Y-69200000D02*
X155100000Y-69300000D01*
X156000000Y-71600000D02*
X156100000Y-71700000D01*
X156900000Y-63800000D02*
X156800000Y-63800000D01*
X155100000Y-70600000D02*
X155100000Y-65700000D01*
X154400000Y-76000000D02*
X154400000Y-76100000D01*
X161800000Y-67400000D02*
X161700000Y-67300000D01*
X158400000Y-64000000D02*
X158300000Y-63900000D01*
X155100000Y-70300000D02*
X155100000Y-70400000D01*
X167400000Y-74400000D02*
X167370000Y-74360000D01*
X155700000Y-71100000D02*
X155800000Y-71200000D01*
X156200000Y-71800000D02*
X156300000Y-71900000D01*
X156600000Y-72200000D02*
X156700000Y-72200000D01*
X154200000Y-78900000D02*
X154200000Y-79000000D01*
X157300000Y-63800000D02*
X157200000Y-63800000D01*
X156700000Y-63900000D02*
X156600000Y-64000000D01*
X160400000Y-72200000D02*
X160400000Y-72160000D01*
X154200000Y-77400000D02*
X154200000Y-79100000D01*
X155000000Y-75300000D02*
X154900000Y-75400000D01*
X159400000Y-72200000D02*
X159500000Y-72200000D01*
X155800000Y-65200000D02*
X155700000Y-65300000D01*
X158500000Y-64100000D02*
X158400000Y-64000000D01*
X160100000Y-65700000D02*
X160000000Y-65600000D01*
X159400000Y-65000000D02*
X159300000Y-64900000D01*
X154200000Y-76500000D02*
X154200000Y-76600000D01*
X158900000Y-72200000D02*
X159000000Y-72200000D01*
X156600000Y-64000000D02*
X156500000Y-64100000D01*
X159200000Y-64800000D02*
X159100000Y-64700000D01*
X159700000Y-66600000D02*
X159700000Y-66500000D01*
X155100000Y-68400000D02*
X155100000Y-68500000D01*
X159700000Y-68100000D02*
X159700000Y-68000000D01*
X159400000Y-72200000D02*
X159500000Y-72200000D01*
X155100000Y-68700000D02*
X155100000Y-68800000D01*
X159200000Y-64800000D02*
X159100000Y-64700000D01*
X159600000Y-65200000D02*
X159500000Y-65100000D01*
X155700000Y-67600000D02*
X155700000Y-67700000D01*
X155700000Y-65600000D02*
X155700000Y-65700000D01*
X154200000Y-78400000D02*
X154200000Y-78500000D01*
X155100000Y-69600000D02*
X155100000Y-69700000D01*
X157600000Y-63800000D02*
X157500000Y-63800000D01*
X159500000Y-72200000D02*
X159600000Y-72200000D01*
X154700000Y-75600000D02*
X154600000Y-75700000D01*
X156800000Y-63800000D02*
X156700000Y-63900000D01*
X156400000Y-64600000D02*
X156300000Y-64700000D01*
X155100000Y-69600000D02*
X155100000Y-69700000D01*
X159700000Y-65300000D02*
X159600000Y-65200000D01*
X157500000Y-72200000D02*
X157600000Y-72200000D01*
X159000000Y-72200000D02*
X159100000Y-72200000D01*
X160500000Y-66100000D02*
X160400000Y-66000000D01*
X161900000Y-67500000D02*
X161800000Y-67400000D01*
X159700000Y-68400000D02*
X159700000Y-68300000D01*
X159700000Y-66900000D02*
X159700000Y-66800000D01*
X159700000Y-72200000D02*
X159800000Y-72200000D01*
X155100000Y-66000000D02*
X155100000Y-66100000D01*
X159800000Y-65400000D02*
X159700000Y-65300000D01*
X158000000Y-63800000D02*
X157900000Y-63800000D01*
X157400000Y-72000000D02*
X157500000Y-72000000D01*
X155700000Y-66100000D02*
X155700000Y-66200000D01*
X157200000Y-63800000D02*
X157100000Y-63800000D01*
X159700000Y-66000000D02*
X159700000Y-65900000D01*
X158700000Y-64300000D02*
X158600000Y-64200000D01*
X155100000Y-68300000D02*
X155100000Y-68400000D01*
X154600000Y-75700000D02*
X154500000Y-75800000D01*
X157900000Y-63800000D02*
X157800000Y-63800000D01*
X155700000Y-66300000D02*
X155700000Y-66400000D01*
X154200000Y-78600000D02*
X154200000Y-78700000D01*
X155100000Y-68800000D02*
X155100000Y-68900000D01*
X155100000Y-70100000D02*
X155100000Y-70200000D01*
X158600000Y-64200000D02*
X158500000Y-64100000D01*
X156400000Y-64500000D02*
X156400000Y-64600000D01*
X155100000Y-70400000D02*
X155100000Y-70500000D01*
X159700000Y-65300000D02*
X159600000Y-65200000D01*
X155100000Y-70200000D02*
X155100000Y-70300000D01*
X161900000Y-69000000D02*
X161900000Y-68900000D01*
X160600000Y-72200000D02*
X160700000Y-72200000D01*
X159600000Y-72200000D02*
X159700000Y-72200000D01*
X155100000Y-67300000D02*
X155100000Y-67400000D01*
X154400000Y-75900000D02*
X154300000Y-76000000D01*
X155700000Y-67200000D02*
X155700000Y-67300000D01*
X154200000Y-76700000D02*
X154200000Y-76800000D01*
X154200000Y-78500000D02*
X154200000Y-78600000D01*
X158100000Y-63800000D02*
X158000000Y-63800000D01*
X155700000Y-65900000D02*
X155700000Y-66000000D01*
X156400000Y-64500000D02*
X156400000Y-64600000D01*
X155900000Y-71300000D02*
X156000000Y-71400000D01*
X156700000Y-63900000D02*
X156600000Y-64000000D01*
X157400000Y-63800000D02*
X157300000Y-63800000D01*
X157900000Y-63900000D02*
X157800000Y-63900000D01*
X156500000Y-64100000D02*
X156400000Y-64200000D01*
X161900000Y-67600000D02*
X161900000Y-67500000D01*
X159600000Y-65200000D02*
X159500000Y-65100000D01*
X154200000Y-78700000D02*
X154200000Y-78800000D01*
X154200000Y-77900000D02*
X154200000Y-78000000D01*
X154400000Y-77200000D02*
X154200000Y-77400000D01*
X159600000Y-65200000D02*
X159500000Y-65100000D01*
X159600000Y-67700000D02*
X159600000Y-67600000D01*
X161000000Y-66600000D02*
X160900000Y-66500000D01*
X156000000Y-65000000D02*
X155900000Y-65100000D01*
X157300000Y-63800000D02*
X157200000Y-63800000D01*
X158700000Y-72200000D02*
X158800000Y-72200000D01*
X156300000Y-71900000D02*
X156400000Y-72000000D01*
X160100000Y-68800000D02*
X160000000Y-68700000D01*
X157900000Y-72200000D02*
X158000000Y-72200000D01*
X159700000Y-66300000D02*
X159700000Y-66200000D01*
X157000000Y-63800000D02*
X156900000Y-63800000D01*
X156600000Y-64000000D02*
X156500000Y-64100000D01*
X158200000Y-63800000D02*
X158100000Y-63800000D01*
X159300000Y-64900000D02*
X159200000Y-64800000D01*
X159700000Y-68200000D02*
X159700000Y-68100000D01*
X160600000Y-69300000D02*
X160500000Y-69200000D01*
X157100000Y-72000000D02*
X157200000Y-72000000D01*
X155100000Y-69900000D02*
X155100000Y-70000000D01*
X155300000Y-68700000D02*
X155200000Y-68800000D01*
X161900000Y-67900000D02*
X161900000Y-67800000D01*
X155100000Y-70400000D02*
X155100000Y-70500000D01*
X157400000Y-72200000D02*
X157500000Y-72200000D01*
X156400000Y-64300000D02*
X156400000Y-64400000D01*
X161000000Y-69700000D02*
X160900000Y-69600000D01*
X155200000Y-65800000D02*
X155100000Y-65900000D01*
X156200000Y-71800000D02*
X156300000Y-71900000D01*
X155100000Y-67200000D02*
X155100000Y-67300000D01*
X155100000Y-70300000D02*
X155100000Y-70400000D01*
X159200000Y-72200000D02*
X159300000Y-72200000D01*
X158100000Y-63800000D02*
X158000000Y-63800000D01*
X155100000Y-69100000D02*
X155100000Y-69200000D01*
X158200000Y-63800000D02*
X158100000Y-63800000D01*
X161600000Y-72200000D02*
X161700000Y-72200000D01*
X159500000Y-72200000D02*
X159600000Y-72200000D01*
X155100000Y-67900000D02*
X155100000Y-68000000D01*
X156000000Y-71400000D02*
X156000000Y-71500000D01*
X154200000Y-77400000D02*
X154200000Y-77500000D01*
X167000000Y-74400000D02*
X167400000Y-74400000D01*
X160300000Y-69000000D02*
X160200000Y-68900000D01*
X158500000Y-72200000D02*
X158600000Y-72200000D01*
X156400000Y-72000000D02*
X156500000Y-72000000D01*
X156400000Y-64200000D02*
X156400000Y-64300000D01*
X156200000Y-64500000D02*
X156200000Y-64600000D01*
X159300000Y-64900000D02*
X159200000Y-64800000D01*
X155300000Y-65700000D02*
X155200000Y-65800000D01*
X155700000Y-65600000D02*
X155700000Y-65700000D01*
X161900000Y-68700000D02*
X161900000Y-68600000D01*
X159800000Y-72200000D02*
X159900000Y-72200000D01*
X157600000Y-72000000D02*
X157700000Y-72000000D01*
X158200000Y-72000000D02*
X158300000Y-72000000D01*
X159700000Y-67700000D02*
X159700000Y-67600000D01*
X155100000Y-69300000D02*
X155100000Y-69400000D01*
X156200000Y-64400000D02*
X156800000Y-63800000D01*
X156200000Y-64800000D02*
X156100000Y-64900000D01*
X159700000Y-65900000D02*
X159700000Y-65800000D01*
X158800000Y-72200000D02*
X158900000Y-72200000D01*
X161900000Y-69200000D02*
X161900000Y-69100000D01*
X159300000Y-64900000D02*
X159200000Y-64800000D01*
X154400000Y-76400000D02*
X154400000Y-76500000D01*
X157500000Y-63800000D02*
X157400000Y-63800000D01*
X161900000Y-69100000D02*
X161900000Y-69000000D01*
X155100000Y-67400000D02*
X155100000Y-67500000D01*
X157100000Y-63800000D02*
X157000000Y-63800000D01*
X156100000Y-64900000D02*
X156000000Y-65000000D01*
X154400000Y-76100000D02*
X154400000Y-76200000D01*
X155100000Y-70200000D02*
X155100000Y-70300000D01*
X155200000Y-70600000D02*
X155300000Y-70700000D01*
X159600000Y-65400000D02*
X159600000Y-65300000D01*
X154900000Y-75400000D02*
X154800000Y-75500000D01*
X155100000Y-70500000D02*
X155200000Y-70600000D01*
X157300000Y-72000000D02*
X157400000Y-72000000D01*
X157800000Y-63800000D02*
X157700000Y-63800000D01*
X158500000Y-72000000D02*
X158600000Y-72000000D01*
X158800000Y-72000000D02*
X159000000Y-71800000D01*
X155100000Y-69800000D02*
X155100000Y-69900000D01*
X158400000Y-72200000D02*
X158500000Y-72200000D01*
X158000000Y-63800000D02*
X157900000Y-63800000D01*
X157600000Y-63900000D02*
X157500000Y-63800000D01*
X158600000Y-72200000D02*
X158700000Y-72200000D01*
X158800000Y-64400000D02*
X158700000Y-64300000D01*
X154400000Y-77200000D02*
X154440000Y-77200000D01*
X159900000Y-72200000D02*
X160000000Y-72200000D01*
X154200000Y-78100000D02*
X154200000Y-78200000D01*
X155100000Y-69400000D02*
X155100000Y-69500000D01*
X159600000Y-67500000D02*
X159600000Y-67400000D01*
X159400000Y-72200000D02*
X160400000Y-72200000D01*
X155600000Y-65400000D02*
X155500000Y-65500000D01*
X157800000Y-72200000D02*
X157900000Y-72200000D01*
X155100000Y-67800000D02*
X155100000Y-67900000D01*
X159600000Y-66100000D02*
X159600000Y-66000000D01*
X154200000Y-77600000D02*
X154200000Y-77700000D01*
X161200000Y-72200000D02*
X161300000Y-72200000D01*
X157200000Y-72200000D02*
X157300000Y-72200000D01*
X155100000Y-70400000D02*
X155100000Y-70500000D01*
X156400000Y-64200000D02*
X156400000Y-64300000D01*
X155100000Y-68900000D02*
X155100000Y-69000000D01*
X159800000Y-72200000D02*
X159900000Y-72200000D01*
X161200000Y-66800000D02*
X161100000Y-66700000D01*
X155700000Y-67300000D02*
X155700000Y-67400000D01*
X154200000Y-77100000D02*
X154200000Y-77200000D01*
X161900000Y-69500000D02*
X161900000Y-69400000D01*
X159400000Y-65000000D02*
X159300000Y-64900000D01*
X159700000Y-69200000D02*
X159700000Y-69100000D01*
X159000000Y-71800000D02*
X159400000Y-72200000D01*
X157200000Y-72200000D02*
X157300000Y-72200000D01*
X155100000Y-66600000D02*
X155100000Y-66700000D01*
X160200000Y-72200000D02*
X160300000Y-72200000D01*
X158700000Y-72000000D02*
X158800000Y-72000000D01*
X155700000Y-68300000D02*
X155600000Y-68400000D01*
X155100000Y-66200000D02*
X155100000Y-66300000D01*
X159600000Y-67400000D02*
X159600000Y-67300000D01*
X156700000Y-72600000D02*
X156800000Y-72500000D01*
X154400000Y-76300000D02*
X154400000Y-76400000D01*
X160500000Y-72200000D02*
X160600000Y-72200000D01*
X159700000Y-69400000D02*
X159700000Y-69300000D01*
X155700000Y-68100000D02*
X155700000Y-68200000D01*
X155100000Y-65900000D02*
X155100000Y-66000000D01*
X160000000Y-68700000D02*
X159900000Y-68600000D01*
X161700000Y-72200000D02*
X161800000Y-72200000D01*
%TO.N,GND*%
X167400000Y-73100000D02*
X167400000Y-73200000D01*
X159900000Y-60200000D02*
X159800000Y-60200000D01*
X167400000Y-73300000D02*
X167400000Y-73400000D01*
X164100000Y-53700000D02*
X164000000Y-53600000D01*
X160600000Y-75800000D02*
X160600000Y-75900000D01*
X162600000Y-83000000D02*
X162500000Y-83000000D01*
X157600000Y-70700000D02*
X157600000Y-70800000D01*
D31*
X159550000Y-80450000D02*
X159550000Y-80400000D01*
D30*
X155400000Y-77100000D02*
X155400000Y-77200000D01*
D31*
X159550000Y-81050000D02*
X159550000Y-81000000D01*
D30*
X167600000Y-63400000D02*
X167600000Y-63500000D01*
X165200000Y-60400000D02*
X165200000Y-60500000D01*
X156300000Y-58000000D02*
X156400000Y-58000000D01*
X157100000Y-53700000D02*
X157200000Y-53600000D01*
X157300000Y-70100000D02*
X157200000Y-70000000D01*
X165200000Y-60800000D02*
X165200000Y-60900000D01*
X157600000Y-85000000D02*
X157600000Y-84900000D01*
X160600000Y-76500000D02*
X160600000Y-76600000D01*
X157600000Y-84300000D02*
X157600000Y-84200000D01*
X160400000Y-70400000D02*
X160400000Y-70500000D01*
D31*
X159550000Y-81000000D02*
X159550000Y-80950000D01*
D30*
X161800000Y-85500000D02*
X161800000Y-85400000D01*
X157200000Y-64600000D02*
X157160000Y-64599999D01*
X165200000Y-61200000D02*
X165200000Y-61300000D01*
X164500000Y-73400000D02*
X164600000Y-73400000D01*
X167600000Y-65600000D02*
X167600000Y-65700000D01*
X161800000Y-84800000D02*
X161800000Y-84700000D01*
X157100000Y-69900000D02*
X157000000Y-69800000D01*
X160600000Y-75600000D02*
X160600000Y-75700000D01*
D31*
X159550000Y-80900000D02*
X159550000Y-80850000D01*
D30*
X160400000Y-70300000D02*
X160400000Y-70400000D01*
D31*
X159550000Y-80350000D02*
X159550000Y-80300000D01*
D30*
X159000000Y-70800000D02*
X159000000Y-70840000D01*
X163700000Y-71200000D02*
X163600000Y-71200000D01*
D31*
X159550000Y-80950000D02*
X159550000Y-80900000D01*
D30*
X155400000Y-76900000D02*
X155400000Y-77000000D01*
X163900000Y-71200000D02*
X163800000Y-71200000D01*
X158500000Y-81800000D02*
X158400000Y-81800000D01*
X162200000Y-83000000D02*
X162100000Y-83000000D01*
X167600000Y-65400000D02*
X167600000Y-65500000D01*
X161800000Y-84900000D02*
X161800000Y-84800000D01*
X158800000Y-81800000D02*
X158700000Y-81800000D01*
X161800000Y-70600000D02*
X161800000Y-70700000D01*
X159000000Y-70400000D02*
X159000000Y-70500000D01*
X155400000Y-77000000D02*
X155400000Y-77100000D01*
X166400000Y-78100000D02*
X166400000Y-78200000D01*
X167600000Y-65800000D02*
X167600000Y-65900000D01*
X160400000Y-71000000D02*
X160400000Y-71100000D01*
D31*
X159550000Y-80700000D02*
X159550000Y-80650000D01*
D30*
X164600000Y-71100000D02*
X164700000Y-71100000D01*
X155700000Y-79100000D02*
X155600000Y-79100000D01*
X164000000Y-84500000D02*
X164000000Y-84400000D01*
X167600000Y-65900000D02*
X167600000Y-66000000D01*
X160600000Y-74700000D02*
X160600000Y-74800000D01*
X156000000Y-79100000D02*
X155900000Y-79100000D01*
X161800000Y-85300000D02*
X161800000Y-85200000D01*
X157600000Y-70500000D02*
X157600000Y-70600000D01*
X156500000Y-54300000D02*
X156600000Y-54200000D01*
X167600000Y-65300000D02*
X167600000Y-65400000D01*
X156800000Y-54000000D02*
X156900000Y-53900000D01*
X165200000Y-60700000D02*
X165200000Y-60800000D01*
X166400000Y-77400000D02*
X166400000Y-77500000D01*
X165200000Y-60900000D02*
X165200000Y-61000000D01*
X160600000Y-75500000D02*
X160600000Y-75600000D01*
X156900000Y-58000000D02*
X157000000Y-58000000D01*
X167400000Y-73200000D02*
X167400000Y-73300000D01*
X157600000Y-71200000D02*
X157600000Y-71240000D01*
X164000000Y-71200000D02*
X163900000Y-71200000D01*
X157800000Y-64600000D02*
X157700000Y-64600000D01*
D31*
X159550000Y-80400000D02*
X159550000Y-80350000D01*
X159550000Y-80300000D02*
X159550000Y-80250000D01*
D30*
X164000000Y-84800000D02*
X164000000Y-84700000D01*
X164600000Y-54200000D02*
X164500000Y-54100000D01*
D31*
X159550000Y-80650000D02*
X159550000Y-80600000D01*
D30*
X164300000Y-53900000D02*
X164200000Y-53800000D01*
X163500000Y-71200000D02*
X163400000Y-71200000D01*
X157000000Y-69800000D02*
X157000000Y-69700000D01*
X164800000Y-73400000D02*
X164900000Y-73400000D01*
X167400000Y-72900000D02*
X167400000Y-73000000D01*
X162500000Y-83000000D02*
X162400000Y-83000000D01*
X158700000Y-81800000D02*
X158600000Y-81800000D01*
X166400000Y-77900000D02*
X166400000Y-78000000D01*
X160600000Y-76700000D02*
X160600000Y-76800000D01*
X164500000Y-71100000D02*
X164600000Y-71100000D01*
X160600000Y-75200000D02*
X160600000Y-75300000D01*
X160400000Y-70600000D02*
X160400000Y-70700000D01*
X155600000Y-79100000D02*
X155500000Y-79100000D01*
X167600000Y-66100000D02*
X167600000Y-66200000D01*
X155400000Y-76800000D02*
X155400000Y-76900000D01*
X157400000Y-53400000D02*
X157350000Y-53445000D01*
X161800000Y-85100000D02*
X161800000Y-85000000D01*
X160600000Y-76000000D02*
X160600000Y-76100000D01*
X156700000Y-58000000D02*
X156800000Y-58000000D01*
X162700000Y-83000000D02*
X162600000Y-83000000D01*
D31*
X159550000Y-80800000D02*
X159550000Y-80750000D01*
D30*
X161800000Y-85800000D02*
X161800000Y-85700000D01*
X163800000Y-53400000D02*
X163850000Y-53445000D01*
X160400000Y-71100000D02*
X160400000Y-71200000D01*
X159000000Y-70600000D02*
X159000000Y-70700000D01*
X167600000Y-63800000D02*
X167600000Y-63900000D01*
X167600000Y-66200000D02*
X167600000Y-66190000D01*
X167600000Y-63900000D02*
X167600000Y-64000000D01*
X167600000Y-63600000D02*
X167600000Y-63700000D01*
X160600000Y-76200000D02*
X160600000Y-76300000D01*
X157100000Y-58000000D02*
X157200000Y-58000000D01*
X155300000Y-79100000D02*
X155200000Y-79100000D01*
X159600000Y-60200000D02*
X159500000Y-60200000D01*
X159100000Y-60200000D02*
X159000000Y-60200000D01*
X167600000Y-63300000D02*
X167600000Y-63400000D01*
X159000000Y-70500000D02*
X159000000Y-70600000D01*
X164900000Y-71100000D02*
X165000000Y-71100000D01*
X159700000Y-60200000D02*
X159600000Y-60200000D01*
X158000000Y-64600000D02*
X157900000Y-64600000D01*
X166400000Y-77800000D02*
X166400000Y-77900000D01*
X164000000Y-84400000D02*
X164000000Y-84300000D01*
X164200000Y-53800000D02*
X164100000Y-53700000D01*
X167400000Y-73000000D02*
X167400000Y-73100000D01*
X167600000Y-66000000D02*
X167600000Y-66100000D01*
X159200000Y-60200000D02*
X159100000Y-60200000D01*
X165200000Y-61300000D02*
X165200000Y-61400000D01*
X159400000Y-60200000D02*
X159300000Y-60200000D01*
X167400000Y-72700000D02*
X167400000Y-72800000D01*
D31*
X159550000Y-81050000D02*
X159550000Y-81000000D01*
D30*
X167600000Y-65500000D02*
X167600000Y-65600000D01*
X164300000Y-71100000D02*
X164200000Y-71200000D01*
X160600000Y-74900000D02*
X160600000Y-75000000D01*
X167600000Y-65700000D02*
X167600000Y-65800000D01*
X157000000Y-58000000D02*
X157100000Y-58000000D01*
X156800000Y-55200000D02*
X156800000Y-55300000D01*
X158400000Y-81800000D02*
X158300000Y-81800000D01*
X160600000Y-75900000D02*
X160600000Y-76000000D01*
X156600000Y-54200000D02*
X156700000Y-54100000D01*
X161800000Y-85000000D02*
X161800000Y-84900000D01*
X161800000Y-70700000D02*
X161800000Y-70800000D01*
X157600000Y-70400000D02*
X157500000Y-70300000D01*
X159000000Y-70200000D02*
X159000000Y-70300000D01*
X156600000Y-54400000D02*
X156700000Y-54500000D01*
X160600000Y-75300000D02*
X160600000Y-75400000D01*
X167600000Y-64000000D02*
X167600000Y-64100000D01*
X156500000Y-58000000D02*
X156600000Y-58000000D01*
X156800000Y-55000000D02*
X156800000Y-55100000D01*
X161800000Y-85400000D02*
X161800000Y-85300000D01*
X164900000Y-73400000D02*
X165000000Y-73400000D01*
X155400000Y-79100000D02*
X155300000Y-79100000D01*
X157600000Y-84500000D02*
X157600000Y-84400000D01*
X160600000Y-74600000D02*
X160600000Y-74700000D01*
X165200000Y-60600000D02*
X165200000Y-60700000D01*
X157400000Y-64600000D02*
X157300000Y-64600000D01*
X164400000Y-54000000D02*
X164300000Y-53900000D01*
X155400000Y-76500000D02*
X155400000Y-76600000D01*
X160600000Y-76800000D02*
X160562500Y-76800000D01*
X164000000Y-53600000D02*
X163900000Y-53500000D01*
X164700000Y-54300000D02*
X164600000Y-54200000D01*
X164300000Y-71100000D02*
X164400000Y-71100000D01*
X165200000Y-61100000D02*
X165200000Y-61200000D01*
X163600000Y-71200000D02*
X163500000Y-71200000D01*
X156800000Y-54800000D02*
X156800000Y-54900000D01*
D31*
X159550000Y-81150000D02*
X159550000Y-81100000D01*
D30*
X157200000Y-53600000D02*
X157300000Y-53500000D01*
X161800000Y-70400000D02*
X161800000Y-70500000D01*
X156900000Y-53900000D02*
X157000000Y-53800000D01*
X157600000Y-84800000D02*
X157600000Y-84700000D01*
X166400000Y-77700000D02*
X166400000Y-77800000D01*
D31*
X159550000Y-80900000D02*
X159550000Y-80850000D01*
X159550000Y-81200000D02*
X159550000Y-81150000D01*
D30*
X164500000Y-54100000D02*
X164400000Y-54000000D01*
X158600000Y-81800000D02*
X158500000Y-81800000D01*
X155400000Y-76400000D02*
X155400000Y-76500000D01*
X163900000Y-53500000D02*
X163800000Y-53400000D01*
D31*
X159550000Y-80800000D02*
X159550000Y-80750000D01*
D30*
X165200000Y-71100000D02*
X165200000Y-71120000D01*
X158100000Y-81800000D02*
X158000000Y-81800000D01*
X155800000Y-79100000D02*
X155700000Y-79100000D01*
X161900000Y-83000000D02*
X161800000Y-83000000D01*
X160600000Y-75700000D02*
X160600000Y-75800000D01*
X161800000Y-85200000D02*
X161800000Y-85100000D01*
X164100000Y-71200000D02*
X164000000Y-71200000D01*
X160400000Y-70500000D02*
X160400000Y-70600000D01*
X164600000Y-73400000D02*
X164700000Y-73400000D01*
X162000000Y-83000000D02*
X161900000Y-83000000D01*
X165100000Y-71100000D02*
X165200000Y-71100000D01*
X161800000Y-70300000D02*
X161800000Y-70400000D01*
X157600000Y-71100000D02*
X157600000Y-71200000D01*
D31*
X159550000Y-80950000D02*
X159550000Y-80900000D01*
D30*
X159000000Y-70100000D02*
X159000000Y-70200000D01*
X157600000Y-70600000D02*
X157600000Y-70700000D01*
X157000000Y-53800000D02*
X157100000Y-53700000D01*
X161800000Y-71000000D02*
X161800000Y-71100000D01*
D31*
X159550000Y-80650000D02*
X159550000Y-80600000D01*
D30*
X157600000Y-64600000D02*
X157500000Y-64600000D01*
X159000000Y-70000000D02*
X159000000Y-70100000D01*
D31*
X159550000Y-81200000D02*
X159550000Y-81150000D01*
D30*
X156800000Y-55100000D02*
X156800000Y-55200000D01*
X165200000Y-61000000D02*
X165200000Y-61100000D01*
X160400000Y-70800000D02*
X160400000Y-70900000D01*
D31*
X159550000Y-80600000D02*
X159550000Y-80550000D01*
D30*
X160600000Y-76300000D02*
X160600000Y-76400000D01*
X160600000Y-75400000D02*
X160600000Y-75500000D01*
X167400000Y-72500000D02*
X167400000Y-72600000D01*
X164800000Y-71100000D02*
X164900000Y-71100000D01*
X157600000Y-70800000D02*
X157600000Y-70900000D01*
X160600000Y-74800000D02*
X160600000Y-74900000D01*
X160400000Y-70700000D02*
X160400000Y-70800000D01*
X160600000Y-76100000D02*
X160600000Y-76200000D01*
X156500000Y-54300000D02*
X156600000Y-54400000D01*
X158000000Y-81800000D02*
X157960000Y-81800000D01*
X157600000Y-84700000D02*
X157600000Y-84600000D01*
X156800000Y-58000000D02*
X156900000Y-58000000D01*
X156600000Y-58000000D02*
X156700000Y-58000000D01*
X157700000Y-64600000D02*
X157600000Y-64600000D01*
X157000000Y-69700000D02*
X157000000Y-69600000D01*
X155200000Y-79100000D02*
X155160000Y-79070000D01*
X159500000Y-60200000D02*
X159400000Y-60200000D01*
X165100000Y-73400000D02*
X165200000Y-73400000D01*
X161800000Y-70800000D02*
X161800000Y-70900000D01*
D31*
X159550000Y-80250000D02*
X159562500Y-80237500D01*
D30*
X164000000Y-84600000D02*
X164000000Y-84500000D01*
X167600000Y-64100000D02*
X167600000Y-64200000D01*
D31*
X159550000Y-80500000D02*
X159550000Y-80450000D01*
D30*
X164000000Y-84900000D02*
X164000000Y-84800000D01*
D31*
X159550000Y-80750000D02*
X159550000Y-80700000D01*
D30*
X156800000Y-54700000D02*
X156800000Y-54800000D01*
X157900000Y-64600000D02*
X157800000Y-64600000D01*
X157600000Y-84200000D02*
X157600000Y-84160000D01*
X166400000Y-78000000D02*
X166400000Y-78100000D01*
D31*
X159550000Y-81100000D02*
X159550000Y-81050000D01*
X159550000Y-81000000D02*
X159550000Y-80950000D01*
D30*
X157400000Y-70200000D02*
X157300000Y-70100000D01*
X162900000Y-83000000D02*
X162800000Y-83000000D01*
X164000000Y-84200000D02*
X164000000Y-84160000D01*
X156400000Y-58000000D02*
X156500000Y-58000000D01*
X155400000Y-76700000D02*
X155400000Y-76800000D01*
X156800000Y-54900000D02*
X156800000Y-55000000D01*
X164700000Y-71100000D02*
X164800000Y-71100000D01*
X166400000Y-77300000D02*
X166400000Y-77400000D01*
X159800000Y-60200000D02*
X159700000Y-60200000D01*
X161800000Y-70500000D02*
X161800000Y-70600000D01*
X165000000Y-71100000D02*
X165100000Y-71100000D01*
X165000000Y-73400000D02*
X165100000Y-73400000D01*
D31*
X159550000Y-81150000D02*
X159550000Y-81100000D01*
D30*
X155400000Y-76300000D02*
X155400000Y-76400000D01*
X156700000Y-54100000D02*
X156800000Y-54000000D01*
X162800000Y-83000000D02*
X162700000Y-83000000D01*
X162400000Y-83000000D02*
X162300000Y-83000000D01*
X164200000Y-71200000D02*
X164100000Y-71200000D01*
X157600000Y-70900000D02*
X157600000Y-71000000D01*
X157000000Y-69600000D02*
X157000000Y-69500000D01*
X163000000Y-83000000D02*
X162900000Y-83000000D01*
X164700000Y-73400000D02*
X164800000Y-73400000D01*
X161800000Y-71100000D02*
X161800000Y-71200000D01*
X167400000Y-72600000D02*
X167400000Y-72700000D01*
X157600000Y-70400000D02*
X157600000Y-70500000D01*
X157600000Y-71000000D02*
X157600000Y-71100000D01*
X158300000Y-81800000D02*
X158200000Y-81800000D01*
X165200000Y-73400000D02*
X165300000Y-73400000D01*
X159000000Y-70300000D02*
X159000000Y-70400000D01*
X161800000Y-70900000D02*
X161800000Y-71000000D01*
X161800000Y-85700000D02*
X161800000Y-85600000D01*
X157500000Y-70300000D02*
X157400000Y-70200000D01*
X160400000Y-70900000D02*
X160400000Y-71000000D01*
X155900000Y-79100000D02*
X155800000Y-79100000D01*
X161800000Y-85900000D02*
X161800000Y-85800000D01*
X165300000Y-73400000D02*
X165400000Y-73400000D01*
X156700000Y-54500000D02*
X156800000Y-54600000D01*
X157000000Y-69500000D02*
X157012500Y-69505000D01*
X164000000Y-84700000D02*
X164000000Y-84600000D01*
X156800000Y-54600000D02*
X156800000Y-54700000D01*
D31*
X159550000Y-80850000D02*
X159550000Y-80800000D01*
D30*
X157500000Y-64600000D02*
X157400000Y-64600000D01*
X157200000Y-70000000D02*
X157100000Y-69900000D01*
X156800000Y-55300000D02*
X156800000Y-55400000D01*
X167600000Y-63500000D02*
X167600000Y-63600000D01*
X159300000Y-60200000D02*
X159200000Y-60200000D01*
X160600000Y-75100000D02*
X160600000Y-75200000D01*
X166400000Y-77500000D02*
X166400000Y-77600000D01*
X160600000Y-76400000D02*
X160600000Y-76500000D01*
X163100000Y-82900000D02*
X163000000Y-83000000D01*
X167400000Y-72800000D02*
X167400000Y-72900000D01*
X164400000Y-71100000D02*
X164500000Y-71100000D01*
X159000000Y-70700000D02*
X159000000Y-70800000D01*
X157600000Y-84400000D02*
X157600000Y-84300000D01*
X157300000Y-64600000D02*
X157200000Y-64600000D01*
X157300000Y-53500000D02*
X157400000Y-53400000D01*
X157600000Y-84600000D02*
X157600000Y-84500000D01*
X155500000Y-79100000D02*
X155400000Y-79100000D01*
X160600000Y-75000000D02*
X160600000Y-75100000D01*
D31*
X159550000Y-80550000D02*
X159550000Y-80500000D01*
D30*
X164000000Y-84300000D02*
X164000000Y-84200000D01*
X160000000Y-60200000D02*
X159900000Y-60200000D01*
X166400000Y-77600000D02*
X166400000Y-77700000D01*
X167600000Y-63700000D02*
X167600000Y-63800000D01*
X157600000Y-84900000D02*
X157600000Y-84800000D01*
X162300000Y-83000000D02*
X162200000Y-83000000D01*
X163800000Y-71200000D02*
X163700000Y-71200000D01*
D31*
X159550000Y-81100000D02*
X159550000Y-81050000D01*
D30*
X164000000Y-85000000D02*
X164000000Y-84900000D01*
X165200000Y-60500000D02*
X165200000Y-60600000D01*
X167400000Y-73400000D02*
X167370000Y-73400000D01*
X162100000Y-83000000D02*
X162000000Y-83000000D01*
X155400000Y-76600000D02*
X155400000Y-76700000D01*
X161800000Y-85600000D02*
X161800000Y-85500000D01*
X160600000Y-76600000D02*
X160600000Y-76700000D01*
X158200000Y-81800000D02*
X158100000Y-81800000D01*
%TO.N,Net-(R6-Pad1)*%
X165200000Y-57500000D02*
X166700000Y-59000000D01*
X168100000Y-74900000D02*
X168100000Y-77300000D01*
X167700000Y-77800000D02*
X167200000Y-78300000D01*
X168500000Y-61800000D02*
X168500000Y-74500000D01*
X167700000Y-77700000D02*
X167700000Y-77800000D01*
X167200000Y-78300000D02*
X167200000Y-78600000D01*
X168100000Y-77300000D02*
X167700000Y-77700000D01*
X166700000Y-60000000D02*
X168500000Y-61800000D01*
X167200000Y-78600000D02*
X165700000Y-80100000D01*
X165200000Y-57200000D02*
X165200000Y-57500000D01*
X166700000Y-59000000D02*
X166700000Y-60000000D01*
X168500000Y-74500000D02*
X168100000Y-74900000D01*
%TO.N,/X_IN*%
X159600000Y-83000000D02*
X159400000Y-83200000D01*
X159600000Y-83000000D02*
X160700000Y-81900000D01*
X160700000Y-81900000D02*
X160700000Y-81300000D01*
X159400000Y-83200000D02*
X157600000Y-83200000D01*
%TO.N,+1V1*%
X157000000Y-80500000D02*
X157000000Y-81800000D01*
D32*
X163400000Y-73400000D02*
X163200000Y-73400000D01*
D30*
X165440000Y-78200000D02*
X165400000Y-78200000D01*
X164700000Y-72600000D02*
X164200000Y-72600000D01*
X165200000Y-72100000D02*
X165200000Y-72080000D01*
X165400000Y-78200000D02*
X165100000Y-78500000D01*
X165200000Y-78000000D02*
X165200000Y-75800000D01*
X166200000Y-74800000D02*
X166200000Y-73000000D01*
X164200000Y-72600000D02*
X163400000Y-73400000D01*
X165400000Y-78200000D02*
X165200000Y-78000000D01*
X165200000Y-72100000D02*
X164700000Y-72600000D01*
X165100000Y-78500000D02*
X165160000Y-78500000D01*
X166200000Y-73000000D02*
X165300000Y-72100000D01*
X165440000Y-78200000D02*
X165400000Y-78200000D01*
X157300000Y-80200000D02*
X157000000Y-80500000D01*
X165300000Y-72100000D02*
X165200000Y-72100000D01*
X165200000Y-75800000D02*
X166200000Y-74800000D01*
%TO.N,+3V3*%
X161000000Y-79600000D02*
X161000000Y-80200000D01*
X155200000Y-55400000D02*
X155250000Y-55400000D01*
X155600000Y-55400000D02*
X155200000Y-55400000D01*
X162800000Y-60400000D02*
X161400000Y-59000000D01*
X161300000Y-62800000D02*
X161300000Y-62700000D01*
D32*
X161000000Y-80200000D02*
X160800000Y-80200000D01*
D30*
X158800000Y-57500000D02*
X158700000Y-57400000D01*
X163600000Y-72000000D02*
X163400000Y-72200000D01*
X165400000Y-69000000D02*
X165600000Y-69200000D01*
X155800000Y-55600000D02*
X155600000Y-55400000D01*
X158800000Y-57700000D02*
X158800000Y-57500000D01*
X164200000Y-71900000D02*
X164100000Y-72000000D01*
X163400000Y-72200000D02*
X163400000Y-72160000D01*
X164200000Y-65700000D02*
X161300000Y-62800000D01*
X162700000Y-78100000D02*
X162700000Y-78600000D01*
D32*
X160600000Y-73200000D02*
X160400000Y-73400000D01*
D30*
X162800000Y-61200000D02*
X162800000Y-60400000D01*
X161300000Y-79300000D02*
X161000000Y-79600000D01*
X164100000Y-72000000D02*
X163600000Y-72000000D01*
X161300000Y-62700000D02*
X162800000Y-61200000D01*
X162400000Y-78900000D02*
X161900000Y-78900000D01*
X161400000Y-59000000D02*
X160100000Y-59000000D01*
X162700000Y-78600000D02*
X162400000Y-78900000D01*
X165400000Y-68700000D02*
X165400000Y-69000000D01*
X159100000Y-58000000D02*
X158800000Y-57700000D01*
X164200000Y-65700000D02*
X164600000Y-65700000D01*
X161500000Y-79300000D02*
X161300000Y-79300000D01*
X164600000Y-65700000D02*
X165500000Y-66599999D01*
X165500000Y-66599999D02*
X165500000Y-68600000D01*
X161900000Y-78900000D02*
X161500000Y-79300000D01*
X163000000Y-77800000D02*
X162700000Y-78100000D01*
X165500000Y-68600000D02*
X165400000Y-68700000D01*
X160100000Y-59000000D02*
X159100000Y-58000000D01*
%TO.N,/GPIO2*%
D31*
X156100000Y-75200000D02*
X156150000Y-75200000D01*
X155800000Y-75050000D02*
X155850000Y-75100000D01*
X156400000Y-75600000D02*
X156450000Y-75650000D01*
X155950000Y-75200000D02*
X156000000Y-75200000D01*
X156200000Y-75200000D02*
X156250000Y-75200000D01*
X156550000Y-75750000D02*
X156600000Y-75800000D01*
X156450000Y-75650000D02*
X156500000Y-75700000D01*
X156350000Y-75200000D02*
X156400000Y-75250000D01*
X156700000Y-75800000D02*
X156750000Y-75800000D01*
X155850000Y-75100000D02*
X155900000Y-75150000D01*
X156400000Y-75350000D02*
X156400000Y-75400000D01*
X156400000Y-75450000D02*
X156400000Y-75500000D01*
%TO.N,/GPIO12*%
X155900000Y-75850000D02*
X155950000Y-75900000D01*
X156400000Y-78200000D02*
X156400000Y-78250000D01*
X156400000Y-77450000D02*
X156400000Y-77500000D01*
D30*
X157200000Y-87600000D02*
X161100000Y-87600000D01*
D31*
X156400000Y-78350000D02*
X156400000Y-78400000D01*
X156450000Y-78450000D02*
X156500000Y-78500000D01*
X156400000Y-76600000D02*
X156400000Y-76650000D01*
X156050000Y-76000000D02*
X156100000Y-76050000D01*
D30*
X155700000Y-86100000D02*
X157200000Y-87600000D01*
D31*
X156100000Y-76050000D02*
X156150000Y-76100000D01*
X156400000Y-77100000D02*
X156400000Y-77150000D01*
D30*
X156250000Y-76200000D02*
X156200000Y-76200000D01*
D31*
X156400000Y-77600000D02*
X156400000Y-77650000D01*
X156400000Y-77200000D02*
X156400000Y-77250000D01*
X156400000Y-77850000D02*
X156400000Y-77900000D01*
X156200000Y-76150000D02*
X156250000Y-76200000D01*
X156400000Y-78100000D02*
X156400000Y-78150000D01*
X156350000Y-76300000D02*
X156400000Y-76350000D01*
D30*
X154100000Y-82300000D02*
X155700000Y-83900000D01*
D31*
X156400000Y-76350000D02*
X156400000Y-76400000D01*
D30*
X164600000Y-87800000D02*
X164700000Y-87900000D01*
D31*
X156400000Y-76700000D02*
X156400000Y-76750000D01*
X156400000Y-76950000D02*
X156400000Y-77000000D01*
X155800000Y-75750000D02*
X155850000Y-75800000D01*
X156150000Y-76100000D02*
X156200000Y-76150000D01*
D30*
X155700000Y-83900000D02*
X155700000Y-86100000D01*
X168100000Y-87900000D02*
X169800000Y-86200000D01*
D31*
X156400000Y-76850000D02*
X156400000Y-76900000D01*
D30*
X155700000Y-78100000D02*
X154900000Y-78100000D01*
D31*
X156000000Y-75950000D02*
X156050000Y-76000000D01*
X156550000Y-78550000D02*
X156600000Y-78600000D01*
D30*
X156200000Y-77600000D02*
X155700000Y-78100000D01*
D31*
X156700000Y-78600000D02*
X156750000Y-78600000D01*
X155750000Y-75700000D02*
X155800000Y-75750000D01*
X156400000Y-77700000D02*
X156400000Y-77750000D01*
D30*
X164100000Y-87800000D02*
X164600000Y-87800000D01*
D31*
X156400000Y-77350000D02*
X156400000Y-77400000D01*
D30*
X164700000Y-87900000D02*
X168100000Y-87900000D01*
X156200000Y-76200000D02*
X156200000Y-77600000D01*
D31*
X156400000Y-77950000D02*
X156400000Y-78000000D01*
X155950000Y-75900000D02*
X156000000Y-75950000D01*
X155850000Y-75800000D02*
X155900000Y-75850000D01*
D30*
X161100000Y-87600000D02*
X161300000Y-87800000D01*
D31*
X156400000Y-76450000D02*
X156400000Y-76500000D01*
%TO.N,/GPIO11*%
D30*
X157500000Y-87000000D02*
X156500000Y-86000000D01*
D33*
X156200000Y-80300000D02*
X157100000Y-79400000D01*
D30*
X169800000Y-83700000D02*
X169000000Y-82900000D01*
X163400000Y-85700000D02*
X162100000Y-87000000D01*
X156500000Y-86000000D02*
X156500000Y-82500000D01*
X156200000Y-82200000D02*
X156200000Y-80300000D01*
X162100000Y-87000000D02*
X157500000Y-87000000D01*
X156500000Y-82500000D02*
X156200000Y-82200000D01*
X169000000Y-82900000D02*
X164800000Y-87100000D01*
%TO.N,/GPIO17*%
X165800000Y-81400000D02*
X165800000Y-85100000D01*
D32*
X163200000Y-80200000D02*
X164400000Y-81400000D01*
D30*
X165800000Y-85100000D02*
X157000000Y-93900000D01*
X157000000Y-93900000D02*
X151600000Y-93900000D01*
%TO.N,/GPIO18*%
D31*
X166100000Y-80650000D02*
X166050000Y-80650000D01*
X165150000Y-80550000D02*
X165100000Y-80500000D01*
X165700000Y-80750000D02*
X165650000Y-80750000D01*
X165300000Y-80700000D02*
X165250000Y-80650000D01*
X164850000Y-80250000D02*
X164800000Y-80200000D01*
X164750000Y-80150000D02*
X164700000Y-80100000D01*
X165400000Y-80750000D02*
X165350000Y-80750000D01*
D30*
X165100000Y-85000000D02*
X161300000Y-88800000D01*
D31*
X165800000Y-80750000D02*
X165750000Y-80750000D01*
X165750000Y-80750000D02*
X165700000Y-80750000D01*
X165350000Y-80750000D02*
X165300000Y-80700000D01*
X164900000Y-80300000D02*
X164850000Y-80250000D01*
X164500000Y-79900000D02*
X164450000Y-79850000D01*
X164050000Y-79450000D02*
X164000000Y-79400000D01*
X165250000Y-80650000D02*
X165200000Y-80600000D01*
D30*
X165100000Y-80500000D02*
X165100000Y-85000000D01*
D31*
X165650000Y-80750000D02*
X165600000Y-80750000D01*
X164950000Y-80350000D02*
X164900000Y-80300000D01*
X165050000Y-80450000D02*
X165000000Y-80400000D01*
X165850000Y-80750000D02*
X165800000Y-80750000D01*
X164300000Y-79700000D02*
X164250000Y-79650000D01*
X165200000Y-80600000D02*
X165150000Y-80550000D01*
X165000000Y-80400000D02*
X164950000Y-80350000D01*
X164400000Y-79800000D02*
X164350000Y-79750000D01*
X164450000Y-79850000D02*
X164400000Y-79800000D01*
X164150000Y-79550000D02*
X164100000Y-79500000D01*
X165500000Y-80750000D02*
X165450000Y-80750000D01*
D33*
X164000000Y-79400000D02*
X165100000Y-80500000D01*
D31*
X164350000Y-79750000D02*
X164300000Y-79700000D01*
X165600000Y-80750000D02*
X165550000Y-80750000D01*
X164700000Y-80100000D02*
X164650000Y-80050000D01*
X164200000Y-79600000D02*
X164150000Y-79550000D01*
X164600000Y-80000000D02*
X164550000Y-79950000D01*
X164100000Y-79500000D02*
X164050000Y-79450000D01*
X164650000Y-80050000D02*
X164600000Y-80000000D01*
X165950000Y-80700000D02*
X165900000Y-80750000D01*
X165100000Y-80500000D02*
X165050000Y-80450000D01*
X166000000Y-80650000D02*
X165950000Y-80700000D01*
X164800000Y-80200000D02*
X164750000Y-80150000D01*
X166050000Y-80650000D02*
X166000000Y-80650000D01*
X165900000Y-80750000D02*
X165850000Y-80750000D01*
X165550000Y-80750000D02*
X165500000Y-80750000D01*
D30*
X161300000Y-88800000D02*
X151600000Y-88800000D01*
D31*
X165450000Y-80750000D02*
X165400000Y-80750000D01*
X164550000Y-79950000D02*
X164500000Y-79900000D01*
X164250000Y-79650000D02*
X164200000Y-79600000D01*
X166150000Y-80700000D02*
X166100000Y-80650000D01*
%TO.N,/GPIO19*%
D30*
X152600000Y-82800000D02*
X152800000Y-83000000D01*
D31*
X164950000Y-79600000D02*
X164900000Y-79550000D01*
X164750000Y-79400000D02*
X164750000Y-79350000D01*
X164750000Y-79250000D02*
X164700000Y-79200000D01*
D30*
X152900000Y-84900000D02*
X151600000Y-86200000D01*
X152800000Y-83000000D02*
X152800000Y-83200000D01*
X152900000Y-83300000D02*
X152900000Y-84900000D01*
D31*
X164500000Y-79000000D02*
X164450000Y-79000000D01*
X164550000Y-79050000D02*
X164500000Y-79000000D01*
X164650000Y-79150000D02*
X164600000Y-79100000D01*
X164850000Y-79500000D02*
X164800000Y-79450000D01*
D30*
X154100000Y-81200000D02*
X152600000Y-82700000D01*
D31*
X164900000Y-79550000D02*
X164850000Y-79500000D01*
%TO.N,/QSPI_SD3*%
D30*
X164100000Y-67000000D02*
X164200000Y-67000000D01*
X164000000Y-67000000D02*
X164100000Y-67000000D01*
X162900000Y-67000000D02*
X163000000Y-67000000D01*
X162400000Y-66900000D02*
X162500000Y-67000000D01*
X163400000Y-67000000D02*
X163500000Y-67000000D01*
X163100000Y-67000000D02*
X163200000Y-67000000D01*
X164200000Y-67000000D02*
X164187500Y-66965000D01*
X163200000Y-67000000D02*
X163300000Y-67000000D01*
X162800000Y-67000000D02*
X162900000Y-67000000D01*
X163000000Y-67000000D02*
X163100000Y-67000000D01*
X163300000Y-67000000D02*
X163400000Y-67000000D01*
X163600000Y-67000000D02*
X163700000Y-67000000D01*
X163500000Y-67000000D02*
X163600000Y-67000000D01*
X162600000Y-67000000D02*
X162700000Y-67000000D01*
X163700000Y-67000000D02*
X163800000Y-67000000D01*
X163900000Y-67000000D02*
X164000000Y-67000000D01*
X162700000Y-67000000D02*
X162800000Y-67000000D01*
X162300000Y-66800000D02*
X162400000Y-66900000D01*
X162500000Y-67000000D02*
X162600000Y-67000000D01*
X163800000Y-67000000D02*
X163900000Y-67000000D01*
%TO.N,/QSPI_SCLK*%
X162900000Y-70300000D02*
X162900000Y-69100000D01*
X163800000Y-68200000D02*
X164200000Y-68200000D01*
X162900000Y-69100000D02*
X163800000Y-68200000D01*
X164200000Y-68200000D02*
X164188000Y-68235000D01*
X162600000Y-70600000D02*
X162900000Y-70300000D01*
%TO.N,/QSPI_SD2*%
X156700000Y-71300000D02*
X155700000Y-70300000D01*
X155700000Y-69100000D02*
X156600000Y-68200000D01*
X155700000Y-70300000D02*
X155700000Y-69100000D01*
X156600000Y-68200000D02*
X157000000Y-68200000D01*
X157000000Y-68200000D02*
X157012000Y-68235000D01*
%TO.N,/QSPI_SD1*%
X158800000Y-67000000D02*
X158700000Y-67000000D01*
X158300000Y-67000000D02*
X158200000Y-67000000D01*
X157100000Y-67000000D02*
X157000000Y-67000000D01*
X158900000Y-67000000D02*
X158800000Y-67000000D01*
X157900000Y-67000000D02*
X157800000Y-67000000D01*
X158200000Y-67000000D02*
X158100000Y-67000000D01*
X157400000Y-67000000D02*
X157300000Y-67000000D01*
X158500000Y-67000000D02*
X158400000Y-67000000D01*
X157600000Y-67000000D02*
X157500000Y-67000000D01*
X157200000Y-67000000D02*
X157100000Y-67000000D01*
X158700000Y-67000000D02*
X158600000Y-67000000D01*
X157500000Y-67000000D02*
X157400000Y-67000000D01*
X158000000Y-67000000D02*
X157900000Y-67000000D01*
X157300000Y-67000000D02*
X157200000Y-67000000D01*
X157700000Y-67000000D02*
X157600000Y-67000000D01*
X158100000Y-67000000D02*
X158000000Y-67000000D01*
X157800000Y-67000000D02*
X157700000Y-67000000D01*
X157000000Y-67000000D02*
X157012500Y-66965000D01*
X158600000Y-67000000D02*
X158500000Y-67000000D01*
X158400000Y-67000000D02*
X158300000Y-67000000D01*
%TO.N,/QSPI_SS*%
X157100000Y-65700000D02*
X157000000Y-65700000D01*
X157600000Y-65700000D02*
X157500000Y-65700000D01*
X163000000Y-81400000D02*
X162900000Y-81400000D01*
D31*
X155950000Y-73500000D02*
X156000000Y-73450000D01*
X156050000Y-73400000D02*
X156100000Y-73350000D01*
D30*
X157500000Y-65700000D02*
X157400000Y-65700000D01*
D31*
X156500000Y-73350000D02*
X156550000Y-73350000D01*
X157450000Y-73350000D02*
X157500000Y-73350000D01*
D30*
X164000000Y-82200000D02*
X163600000Y-81800000D01*
D31*
X156250000Y-73350000D02*
X156300000Y-73350000D01*
X155700000Y-73750000D02*
X155750000Y-73700000D01*
X156300000Y-73350000D02*
X156350000Y-73350000D01*
D30*
X157200000Y-65700000D02*
X157100000Y-65700000D01*
X163400000Y-81600000D02*
X163300000Y-81500000D01*
X158000000Y-66000000D02*
X157900000Y-65900000D01*
D31*
X156900000Y-73350000D02*
X156950000Y-73350000D01*
X157100000Y-73350000D02*
X157150000Y-73350000D01*
X156400000Y-73350000D02*
X156450000Y-73350000D01*
X155900000Y-73550000D02*
X155950000Y-73500000D01*
X156750000Y-73350000D02*
X156800000Y-73350000D01*
X156850000Y-73350000D02*
X156900000Y-73350000D01*
D30*
X166700000Y-70100000D02*
X166600000Y-70200000D01*
D31*
X157500000Y-73350000D02*
X157550000Y-73350000D01*
D30*
X157300000Y-65700000D02*
X157200000Y-65700000D01*
X157700000Y-65700000D02*
X157600000Y-65700000D01*
X166400000Y-70400000D02*
X166400000Y-70500000D01*
D31*
X155850000Y-73600000D02*
X155900000Y-73550000D01*
X157050000Y-73350000D02*
X157100000Y-73350000D01*
X157250000Y-73350000D02*
X157300000Y-73350000D01*
X157200000Y-73350000D02*
X157250000Y-73350000D01*
X157550000Y-73350000D02*
X157600000Y-73350000D01*
D30*
X158300000Y-66300000D02*
X158200000Y-66200000D01*
X164400000Y-82200000D02*
X164000000Y-82200000D01*
X158200000Y-66200000D02*
X158100000Y-66100000D01*
X163100000Y-81400000D02*
X163000000Y-81400000D01*
X163500000Y-81700000D02*
X163400000Y-81600000D01*
X163200000Y-81400000D02*
X163100000Y-81400000D01*
X166500000Y-70300000D02*
X166400000Y-70400000D01*
X158900000Y-65800000D02*
X158400000Y-66300000D01*
D31*
X157150000Y-73350000D02*
X157200000Y-73350000D01*
X157700000Y-73350000D02*
X157750000Y-73350000D01*
X157300000Y-73350000D02*
X157350000Y-73350000D01*
D30*
X166800000Y-70000000D02*
X166700000Y-70100000D01*
X157900000Y-65900000D02*
X157800000Y-65800000D01*
D31*
X156550000Y-73350000D02*
X156600000Y-73350000D01*
D30*
X162900000Y-81400000D02*
X162800000Y-81400000D01*
D31*
X156800000Y-73350000D02*
X156850000Y-73350000D01*
D30*
X157400000Y-65700000D02*
X157300000Y-65700000D01*
X166400000Y-70500000D02*
X166400000Y-70600000D01*
D31*
X157000000Y-73350000D02*
X157050000Y-73350000D01*
X157400000Y-73350000D02*
X157450000Y-73350000D01*
X156000000Y-73450000D02*
X156050000Y-73400000D01*
X155750000Y-73700000D02*
X155800000Y-73650000D01*
D30*
X162700000Y-81400000D02*
X162600000Y-81400000D01*
D31*
X156100000Y-73350000D02*
X156150000Y-73350000D01*
X157600000Y-73350000D02*
X157650000Y-73350000D01*
D30*
X166600000Y-70200000D02*
X166500000Y-70300000D01*
D31*
X156650000Y-73350000D02*
X156700000Y-73350000D01*
D30*
X166900000Y-69900000D02*
X166800000Y-70000000D01*
X163300000Y-81500000D02*
X163200000Y-81400000D01*
X167100000Y-69700000D02*
X167000000Y-69800000D01*
X162800000Y-81400000D02*
X162700000Y-81400000D01*
X158100000Y-66100000D02*
X158000000Y-66000000D01*
D31*
X157650000Y-73350000D02*
X157700000Y-73350000D01*
X156950000Y-73350000D02*
X157000000Y-73350000D01*
D30*
X157800000Y-65800000D02*
X157700000Y-65700000D01*
X167000000Y-69800000D02*
X166900000Y-69900000D01*
D31*
X156150000Y-73350000D02*
X156200000Y-73350000D01*
X157350000Y-73350000D02*
X157400000Y-73350000D01*
X157850000Y-73350000D02*
X157900000Y-73350000D01*
X157800000Y-73350000D02*
X157850000Y-73350000D01*
X156350000Y-73350000D02*
X156400000Y-73350000D01*
X156200000Y-73350000D02*
X156250000Y-73350000D01*
X156600000Y-73350000D02*
X156650000Y-73350000D01*
X157750000Y-73350000D02*
X157800000Y-73350000D01*
X156700000Y-73350000D02*
X156750000Y-73350000D01*
X155800000Y-73650000D02*
X155850000Y-73600000D01*
D30*
X163600000Y-81800000D02*
X163500000Y-81700000D01*
D31*
X156450000Y-73350000D02*
X156500000Y-73350000D01*
%TO.N,/USB_D+*%
D30*
X160850000Y-52100000D02*
X160850000Y-52150000D01*
X161900000Y-57200000D02*
X162100000Y-57400000D01*
X166700000Y-60800000D02*
X166700000Y-62900000D01*
X160850000Y-51800000D02*
X160850000Y-51850000D01*
X160800000Y-51800000D02*
X160850000Y-51800000D01*
X165500000Y-59600000D02*
X166700000Y-60800000D01*
X165800000Y-64800000D02*
X166600000Y-65599999D01*
X166600000Y-66200000D02*
X166580000Y-66190000D01*
X160850000Y-52000000D02*
X160850000Y-52050000D01*
X160850000Y-51950000D02*
X160850000Y-52000000D01*
X160850000Y-52050000D02*
X160850000Y-52100000D01*
X165800000Y-63800000D02*
X165800000Y-64800000D01*
X166600000Y-65599999D02*
X166600000Y-66200000D01*
X166700000Y-62900000D02*
X165800000Y-63800000D01*
X160700000Y-51800000D02*
X160800000Y-51800000D01*
X160850000Y-51900000D02*
X160850000Y-51950000D01*
X164800000Y-59600000D02*
X165500000Y-59600000D01*
X162600000Y-57400000D02*
X164800000Y-59600000D01*
X160850000Y-51850000D02*
X160850000Y-51900000D01*
X162100000Y-57400000D02*
X162600000Y-57400000D01*
%TO.N,VBUS*%
X157900000Y-55800000D02*
X158200000Y-56100000D01*
X157900000Y-57800000D02*
X158100000Y-58000000D01*
X152900000Y-49400000D02*
X151600000Y-48100000D01*
X157900000Y-57500000D02*
X157900000Y-57800000D01*
X158200000Y-56100000D02*
X158150000Y-56125000D01*
X157300000Y-56400000D02*
X154800000Y-56400000D01*
X152600000Y-54100000D02*
X152900000Y-53800000D01*
X161900000Y-55400000D02*
X163000000Y-54300000D01*
X157400000Y-60200000D02*
X157450000Y-60200000D01*
X157700000Y-59900000D02*
X157400000Y-60200000D01*
X158200000Y-53400000D02*
X158100000Y-53500000D01*
X152900000Y-53800000D02*
X152900000Y-49400000D01*
X157300000Y-56400000D02*
X158000000Y-57100000D01*
X158150000Y-53445000D02*
X158200000Y-53400000D01*
X158100000Y-55600000D02*
X157300000Y-56400000D01*
X158100000Y-53500000D02*
X158100000Y-55600000D01*
X163000000Y-54300000D02*
X163000000Y-53400000D01*
X158100000Y-54900000D02*
X160500000Y-54900000D01*
X158000000Y-57100000D02*
X158000000Y-57400000D01*
X154800000Y-56400000D02*
X152600000Y-54200000D01*
X163000000Y-53400000D02*
X163050000Y-53445000D01*
X158000000Y-57400000D02*
X157900000Y-57500000D01*
%TO.N,Net-(J1-CC1)*%
X161850000Y-52650000D02*
X161850000Y-52700000D01*
X161850000Y-52050000D02*
X161850000Y-52100000D01*
X165500000Y-50400000D02*
X166600000Y-51500000D01*
X161850000Y-51900000D02*
X161850000Y-51950000D01*
X161850000Y-52300000D02*
X161850000Y-52350000D01*
X166700000Y-58200000D02*
X167300000Y-58800000D01*
X161850000Y-51950000D02*
X161850000Y-52000000D01*
X161850000Y-52000000D02*
X161850000Y-52050000D01*
X166700000Y-56800000D02*
X166700000Y-58200000D01*
X166600000Y-64200000D02*
X166580000Y-64200000D01*
X161850000Y-52100000D02*
X161850000Y-52150000D01*
X166700000Y-63900000D02*
X166700000Y-64099999D01*
X166600000Y-56700000D02*
X166700000Y-56800000D01*
X167300000Y-58800000D02*
X167300000Y-59600000D01*
X161800000Y-50300000D02*
X161900000Y-50400000D01*
X167300000Y-59600000D02*
X168300000Y-60600000D01*
X166700000Y-64099999D02*
X166600000Y-64200000D01*
X166600000Y-51500000D02*
X166600000Y-56700000D01*
X161900000Y-50400000D02*
X165500000Y-50400000D01*
X161850000Y-52450000D02*
X161850000Y-52500000D01*
%TO.N,/USB_D-*%
X161200000Y-54900000D02*
X161200000Y-58200000D01*
X161400000Y-54700000D02*
X161200000Y-54900000D01*
X161200000Y-58200000D02*
X161180000Y-58200000D01*
%TD*%
%TA.AperFunction,Conductor*%
%TO.N,/GPIO21*%
G36*
X153308670Y-79904352D02*
G01*
X153473814Y-80069496D01*
X153488057Y-80100885D01*
X153562539Y-81218113D01*
X153550524Y-81253639D01*
X153548296Y-81256020D01*
X152388670Y-82415648D01*
X152354022Y-82430000D01*
X150699500Y-82430000D01*
X150664852Y-82415648D01*
X150650500Y-82381000D01*
X150650500Y-79939000D01*
X150664852Y-79904352D01*
X150699500Y-79890000D01*
X153274022Y-79890000D01*
X153308670Y-79904352D01*
G37*
%TD.AperFunction*%
%TD*%
%TA.AperFunction,Conductor*%
%TO.N,Net-(J1-CC2)*%
G36*
X164834163Y-63169963D02*
G01*
X165449177Y-63637375D01*
X165468079Y-63669767D01*
X165466859Y-63689069D01*
X165449500Y-63753856D01*
X165449500Y-64846146D01*
X165473385Y-64935286D01*
X165473386Y-64935290D01*
X165519530Y-65015212D01*
X166205276Y-65700958D01*
X166219628Y-65735606D01*
X166205276Y-65770254D01*
X166165936Y-65809593D01*
X166165935Y-65809595D01*
X166115933Y-65916824D01*
X166115932Y-65916825D01*
X166109500Y-65965687D01*
X166109500Y-66414312D01*
X166109499Y-66414312D01*
X166115932Y-66463174D01*
X166115933Y-66463175D01*
X166165935Y-66570404D01*
X166165936Y-66570406D01*
X166249593Y-66654063D01*
X166249595Y-66654064D01*
X166249596Y-66654065D01*
X166356827Y-66704068D01*
X166405684Y-66710500D01*
X166405687Y-66710500D01*
X166754312Y-66710500D01*
X166754316Y-66710500D01*
X166803173Y-66704068D01*
X166910404Y-66654065D01*
X166994065Y-66570404D01*
X167044068Y-66463173D01*
X167044068Y-66463171D01*
X167045591Y-66459906D01*
X167073241Y-66434569D01*
X167110708Y-66436205D01*
X167134409Y-66459906D01*
X167135931Y-66463171D01*
X167135932Y-66463173D01*
X167171516Y-66539483D01*
X167185935Y-66570404D01*
X167185936Y-66570406D01*
X167269593Y-66654063D01*
X167269595Y-66654064D01*
X167269596Y-66654065D01*
X167376827Y-66704068D01*
X167425684Y-66710500D01*
X167425687Y-66710500D01*
X167539545Y-66710500D01*
X167569628Y-66720822D01*
X168130584Y-67157121D01*
X168149122Y-67189719D01*
X168149500Y-67195797D01*
X168149500Y-67375316D01*
X168146338Y-67392633D01*
X168025303Y-67713017D01*
X167999633Y-67740357D01*
X167962148Y-67741538D01*
X167944816Y-67730347D01*
X167930404Y-67715935D01*
X167823175Y-67665933D01*
X167823174Y-67665932D01*
X167813401Y-67664645D01*
X167774316Y-67659500D01*
X167425684Y-67659500D01*
X167393112Y-67663788D01*
X167376825Y-67665932D01*
X167376824Y-67665933D01*
X167269595Y-67715935D01*
X167269593Y-67715936D01*
X167185936Y-67799593D01*
X167185935Y-67799595D01*
X167135933Y-67906824D01*
X167135932Y-67906825D01*
X167129500Y-67955687D01*
X167129500Y-68199126D01*
X167115148Y-68233774D01*
X167096528Y-68245430D01*
X166721137Y-68375373D01*
X166691648Y-68376184D01*
X165886039Y-68146010D01*
X165856666Y-68122692D01*
X165850500Y-68098895D01*
X165850500Y-66553852D01*
X165826614Y-66464712D01*
X165826613Y-66464708D01*
X165818412Y-66450504D01*
X165818408Y-66450499D01*
X165812059Y-66439501D01*
X165780469Y-66384786D01*
X165552695Y-66157012D01*
X165214851Y-65819168D01*
X165200499Y-65784520D01*
X165200499Y-65498049D01*
X165200498Y-65498048D01*
X165196978Y-65473886D01*
X165190220Y-65427491D01*
X165187732Y-65422402D01*
X165137013Y-65318655D01*
X165137012Y-65318654D01*
X165137012Y-65318653D01*
X165051347Y-65232988D01*
X164942509Y-65179780D01*
X164918989Y-65176353D01*
X164871951Y-65169500D01*
X164871949Y-65169500D01*
X164185477Y-65169500D01*
X164150829Y-65155148D01*
X163468967Y-64473285D01*
X163456606Y-64452463D01*
X163411831Y-64300229D01*
X163275020Y-63835069D01*
X163279012Y-63797780D01*
X163279195Y-63797448D01*
X163303413Y-63753856D01*
X163339777Y-63688400D01*
X163353562Y-63672737D01*
X163931061Y-63247697D01*
X163955585Y-63238371D01*
X164799997Y-63160184D01*
X164834163Y-63169963D01*
G37*
%TD.AperFunction*%
%TD*%
%TA.AperFunction,Conductor*%
%TO.N,/GPIO21*%
G36*
X164595022Y-78051428D02*
G01*
X164615850Y-78082603D01*
X164616582Y-78086282D01*
X164615797Y-78108737D01*
X164568785Y-78281114D01*
X164560255Y-78298221D01*
X164555688Y-78304119D01*
X164523127Y-78322727D01*
X164523115Y-78322729D01*
X164520389Y-78323075D01*
X164489709Y-78315846D01*
X164489696Y-78315879D01*
X164489498Y-78315797D01*
X164486998Y-78315208D01*
X164485240Y-78314033D01*
X164466973Y-78310399D01*
X164412177Y-78299500D01*
X164412174Y-78299500D01*
X163587818Y-78299500D01*
X163524232Y-78312149D01*
X163524230Y-78312149D01*
X163514762Y-78314033D01*
X163514760Y-78314033D01*
X163514760Y-78314034D01*
X163508274Y-78318368D01*
X163506735Y-78319395D01*
X163506733Y-78319397D01*
X163462703Y-78348816D01*
X163445039Y-78356132D01*
X163439865Y-78357161D01*
X163439857Y-78357159D01*
X163439851Y-78357164D01*
X163421182Y-78353443D01*
X163403083Y-78349843D01*
X163403078Y-78349836D01*
X163403071Y-78349835D01*
X163392417Y-78333880D01*
X163382249Y-78318661D01*
X163381855Y-78316680D01*
X163384422Y-78288940D01*
X163450557Y-78123601D01*
X163460982Y-78107580D01*
X163462936Y-78105578D01*
X163466193Y-78102240D01*
X163500660Y-78087467D01*
X163509562Y-78087359D01*
X163509562Y-78087358D01*
X163515928Y-78087281D01*
X163526085Y-78088219D01*
X163564225Y-78095805D01*
X163564228Y-78095805D01*
X163564236Y-78095807D01*
X163587826Y-78100500D01*
X163852983Y-78100500D01*
X163862545Y-78101442D01*
X163879688Y-78104853D01*
X163882772Y-78105571D01*
X163954061Y-78124673D01*
X163956495Y-78125500D01*
X164042856Y-78125500D01*
X164049650Y-78125500D01*
X164055535Y-78122101D01*
X164088630Y-78113233D01*
X164117207Y-78105576D01*
X164120321Y-78104851D01*
X164137454Y-78101442D01*
X164147016Y-78100500D01*
X164412174Y-78100500D01*
X164473914Y-78088219D01*
X164485236Y-78085967D01*
X164485236Y-78085966D01*
X164485240Y-78085966D01*
X164535402Y-78052447D01*
X164553065Y-78045134D01*
X164556840Y-78044383D01*
X164558241Y-78044105D01*
X164595022Y-78051428D01*
G37*
%TD.AperFunction*%
%TD*%
%TA.AperFunction,Conductor*%
%TO.N,/GPIO17*%
G36*
X165851397Y-81053100D02*
G01*
X165869140Y-81059123D01*
X165877887Y-81063087D01*
X165976110Y-81119797D01*
X165976114Y-81119799D01*
X166002343Y-81126827D01*
X166090686Y-81150500D01*
X166090688Y-81150500D01*
X166158729Y-81150500D01*
X166169986Y-81151811D01*
X166180793Y-81154362D01*
X166191449Y-81158224D01*
X167616326Y-81870662D01*
X167640898Y-81898994D01*
X167643028Y-81920613D01*
X167638897Y-81953400D01*
X167638896Y-81953410D01*
X167638896Y-81953412D01*
X167637394Y-81972364D01*
X167637098Y-81981420D01*
X167637098Y-81981459D01*
X167637356Y-82000434D01*
X167661103Y-82396237D01*
X167661105Y-82396251D01*
X167678818Y-82468225D01*
X167678821Y-82468233D01*
X167693086Y-82499949D01*
X167727266Y-82552579D01*
X167727267Y-82552579D01*
X167727268Y-82552581D01*
X167741543Y-82562710D01*
X167761496Y-82594464D01*
X167755666Y-82627097D01*
X166890037Y-84132542D01*
X166877455Y-84146940D01*
X166870888Y-84151997D01*
X166836100Y-84161929D01*
X166829752Y-84161292D01*
X166812731Y-84156364D01*
X166510645Y-84005321D01*
X166503908Y-84001245D01*
X166497577Y-83996682D01*
X166491579Y-83991579D01*
X165471744Y-82971744D01*
X165461122Y-82955847D01*
X165454229Y-82939206D01*
X165450500Y-82920456D01*
X165450500Y-81109247D01*
X165454227Y-81090502D01*
X165457083Y-81083606D01*
X165483594Y-81057088D01*
X165490502Y-81054226D01*
X165509247Y-81050500D01*
X165835648Y-81050500D01*
X165851397Y-81053100D01*
G37*
%TD.AperFunction*%
%TA.AperFunction,Conductor*%
G36*
X163996496Y-80285396D02*
G01*
X164008412Y-80287883D01*
X164558901Y-80476622D01*
X164684011Y-80519517D01*
X164694057Y-80524296D01*
X164703316Y-80530073D01*
X164712026Y-80536997D01*
X164728255Y-80553226D01*
X164738877Y-80569121D01*
X164745770Y-80585761D01*
X164749500Y-80604514D01*
X164749500Y-81786974D01*
X164745771Y-81805723D01*
X164743612Y-81810938D01*
X164742916Y-81812618D01*
X164716397Y-81839137D01*
X164716358Y-81839153D01*
X164715828Y-81839372D01*
X164684423Y-81841414D01*
X164682223Y-81840824D01*
X164670415Y-81835931D01*
X164573888Y-81780201D01*
X164573860Y-81780189D01*
X164573464Y-81780087D01*
X164459315Y-81749500D01*
X164459312Y-81749500D01*
X164459309Y-81749500D01*
X164340691Y-81749500D01*
X164340688Y-81749500D01*
X164340685Y-81749500D01*
X164232181Y-81778573D01*
X164232175Y-81778576D01*
X164226115Y-81780200D01*
X164226111Y-81780201D01*
X164173557Y-81810542D01*
X164173028Y-81810832D01*
X164172034Y-81810938D01*
X164155958Y-81816394D01*
X164154895Y-81816534D01*
X164148561Y-81817368D01*
X164138109Y-81814567D01*
X164135737Y-81814821D01*
X164134086Y-81813489D01*
X164112345Y-81807663D01*
X164107487Y-81803936D01*
X164093485Y-81786970D01*
X164090101Y-81780202D01*
X164090101Y-81780201D01*
X164030902Y-81661804D01*
X164028921Y-81657284D01*
X164027178Y-81652691D01*
X164025664Y-81648004D01*
X164019799Y-81626114D01*
X164019797Y-81626111D01*
X164019798Y-81626111D01*
X163970584Y-81540872D01*
X163969867Y-81539587D01*
X163969159Y-81538271D01*
X163968484Y-81536969D01*
X163777836Y-81155673D01*
X163615261Y-80830522D01*
X163610211Y-80812083D01*
X163609251Y-80798575D01*
X163618172Y-80766738D01*
X163941128Y-80311822D01*
X163955019Y-80298697D01*
X163964735Y-80292596D01*
X163994754Y-80285255D01*
X163996496Y-80285396D01*
G37*
%TD.AperFunction*%
%TD*%
%TA.AperFunction,Conductor*%
%TO.N,/GPIO17*%
G36*
X156057405Y-91334352D02*
G01*
X156071757Y-91369000D01*
X156069408Y-91383990D01*
X154876663Y-95095990D01*
X154852400Y-95124587D01*
X154830012Y-95130000D01*
X150699500Y-95130000D01*
X150664852Y-95115648D01*
X150650500Y-95081000D01*
X150650500Y-91951354D01*
X150664852Y-91916706D01*
X150699500Y-91902354D01*
X150734148Y-91916706D01*
X150740239Y-91924128D01*
X150784023Y-91989655D01*
X150930345Y-92135977D01*
X151102402Y-92250941D01*
X151293580Y-92330130D01*
X151496535Y-92370500D01*
X151496538Y-92370500D01*
X151703462Y-92370500D01*
X151703465Y-92370500D01*
X151906420Y-92330130D01*
X152097598Y-92250941D01*
X152269655Y-92135977D01*
X152415977Y-91989655D01*
X152530941Y-91817598D01*
X152610130Y-91626420D01*
X152650500Y-91423465D01*
X152650500Y-91369000D01*
X152664852Y-91334352D01*
X152699500Y-91320000D01*
X156022757Y-91320000D01*
X156057405Y-91334352D01*
G37*
%TD.AperFunction*%
%TD*%
%TA.AperFunction,Conductor*%
%TO.N,/GPIO10*%
G36*
X158649843Y-78614352D02*
G01*
X158664195Y-78649000D01*
X158654287Y-78678543D01*
X158564545Y-78797292D01*
X158560101Y-78802397D01*
X158165808Y-79196690D01*
X158158623Y-79202622D01*
X157839463Y-79418619D01*
X157802725Y-79426153D01*
X157771420Y-79405502D01*
X157763000Y-79378039D01*
X157763000Y-79325326D01*
X157762999Y-79325322D01*
X157748466Y-79252260D01*
X157693101Y-79169398D01*
X157610239Y-79114033D01*
X157537177Y-79099500D01*
X157537174Y-79099500D01*
X156712826Y-79099500D01*
X156712822Y-79099500D01*
X156639759Y-79114033D01*
X156635299Y-79115881D01*
X156634724Y-79114492D01*
X156604131Y-79120576D01*
X156572950Y-79099738D01*
X156564887Y-79076859D01*
X156553951Y-78953835D01*
X156554468Y-78952187D01*
X156553772Y-78950607D01*
X156560009Y-78934529D01*
X156565179Y-78918056D01*
X156566711Y-78917255D01*
X156567337Y-78915644D01*
X156580886Y-78909851D01*
X156598421Y-78900692D01*
X156601652Y-78900513D01*
X156602227Y-78900500D01*
X156639562Y-78900500D01*
X156643002Y-78899578D01*
X156648893Y-78899445D01*
X156653166Y-78901103D01*
X156657117Y-78901103D01*
X156657251Y-78900081D01*
X156660435Y-78900500D01*
X156660438Y-78900500D01*
X157537174Y-78900500D01*
X157610240Y-78885966D01*
X157693101Y-78830601D01*
X157748466Y-78747740D01*
X157763000Y-78674674D01*
X157763000Y-78649000D01*
X157777352Y-78614352D01*
X157812000Y-78600000D01*
X158615195Y-78600000D01*
X158649843Y-78614352D01*
G37*
%TD.AperFunction*%
%TD*%
%TA.AperFunction,Conductor*%
%TO.N,/GPI026_ADC2*%
G36*
X162537999Y-79240744D02*
G01*
X162560830Y-79270497D01*
X162562500Y-79283180D01*
X162562500Y-79622760D01*
X162548148Y-79657408D01*
X162540724Y-79663501D01*
X162531903Y-79669395D01*
X162531898Y-79669399D01*
X162476533Y-79752261D01*
X162462000Y-79825322D01*
X162462000Y-80649677D01*
X162476533Y-80722739D01*
X162530346Y-80803278D01*
X162537662Y-80840060D01*
X162516826Y-80871242D01*
X162489604Y-80879500D01*
X162425684Y-80879500D01*
X162393112Y-80883788D01*
X162376825Y-80885932D01*
X162376823Y-80885933D01*
X162274560Y-80933619D01*
X162270226Y-80933808D01*
X162266800Y-80936468D01*
X162251999Y-80934604D01*
X162237093Y-80935255D01*
X162229591Y-80931782D01*
X162187239Y-80907646D01*
X162164242Y-80878022D01*
X162162500Y-80865074D01*
X162162500Y-80852238D01*
X162176852Y-80817590D01*
X162184275Y-80811498D01*
X162193101Y-80805601D01*
X162248466Y-80722740D01*
X162263000Y-80649674D01*
X162263000Y-79825326D01*
X162248466Y-79752260D01*
X162193101Y-79669399D01*
X162193096Y-79669395D01*
X162184276Y-79663501D01*
X162163441Y-79632318D01*
X162162500Y-79622760D01*
X162162500Y-79299500D01*
X162176852Y-79264852D01*
X162211500Y-79250500D01*
X162446146Y-79250500D01*
X162482554Y-79240744D01*
X162500818Y-79235850D01*
X162537999Y-79240744D01*
G37*
%TD.AperFunction*%
%TD*%
%TA.AperFunction,Conductor*%
%TO.N,/GPIO10*%
G36*
X168743713Y-78728295D02*
G01*
X168755001Y-78751124D01*
X168789867Y-78926408D01*
X168789869Y-78926417D01*
X168789870Y-78926420D01*
X168869059Y-79117598D01*
X168984023Y-79289655D01*
X169130345Y-79435977D01*
X169302402Y-79550941D01*
X169493580Y-79630130D01*
X169696535Y-79670500D01*
X169696538Y-79670500D01*
X169903462Y-79670500D01*
X169903465Y-79670500D01*
X170106420Y-79630130D01*
X170297598Y-79550941D01*
X170469655Y-79435977D01*
X170565852Y-79339780D01*
X170600500Y-79325428D01*
X170635148Y-79339780D01*
X170649500Y-79374428D01*
X170649500Y-82381000D01*
X170635148Y-82415648D01*
X170600500Y-82430000D01*
X167915147Y-82430000D01*
X167880499Y-82415648D01*
X167866235Y-82383935D01*
X167866059Y-82381000D01*
X167842488Y-81988142D01*
X167842784Y-81979095D01*
X168198072Y-79159961D01*
X168214297Y-79129322D01*
X168674557Y-78723912D01*
X168710041Y-78711781D01*
X168743713Y-78728295D01*
G37*
%TD.AperFunction*%
%TD*%
%TA.AperFunction,Conductor*%
%TO.N,/GPI026_ADC2*%
G36*
X152408669Y-54504351D02*
G01*
X153690995Y-55786677D01*
X153705311Y-55819460D01*
X153749490Y-56979135D01*
X153736468Y-57014304D01*
X153702391Y-57029964D01*
X153700526Y-57030000D01*
X150699500Y-57030000D01*
X150664852Y-57015648D01*
X150650500Y-56981000D01*
X150650500Y-54538999D01*
X150664852Y-54504351D01*
X150699500Y-54489999D01*
X152374021Y-54489999D01*
X152408669Y-54504351D01*
G37*
%TD.AperFunction*%
%TD*%
%TA.AperFunction,Conductor*%
%TO.N,Net-(J1-CC2)*%
G36*
X159753675Y-55264852D02*
G01*
X159763428Y-55278777D01*
X159868644Y-55504238D01*
X160350975Y-56537806D01*
X160352622Y-56575272D01*
X160349475Y-56582198D01*
X160281488Y-56705425D01*
X160252185Y-56728829D01*
X160230529Y-56730087D01*
X158691444Y-56473573D01*
X158659627Y-56453721D01*
X158650500Y-56425240D01*
X158650500Y-55504238D01*
X158642035Y-55446144D01*
X158640573Y-55436107D01*
X158589198Y-55331017D01*
X158589196Y-55331015D01*
X158587024Y-55327972D01*
X158578571Y-55291434D01*
X158598431Y-55259621D01*
X158626903Y-55250500D01*
X159719027Y-55250500D01*
X159753675Y-55264852D01*
G37*
%TD.AperFunction*%
%TA.AperFunction,Conductor*%
G36*
X158202103Y-50618978D02*
G01*
X159251729Y-51895121D01*
X159251740Y-51895133D01*
X159252417Y-51895876D01*
X159253165Y-51896548D01*
X159253977Y-51897141D01*
X160104283Y-52455155D01*
X160127278Y-52470245D01*
X160131333Y-52476207D01*
X160137749Y-52479500D01*
X160141492Y-52491140D01*
X160148372Y-52501253D01*
X160149231Y-52515202D01*
X160148401Y-52525358D01*
X160131275Y-52558722D01*
X160095573Y-52570204D01*
X160072341Y-52562109D01*
X160032495Y-52535485D01*
X159952133Y-52519500D01*
X159952129Y-52519500D01*
X159747871Y-52519500D01*
X159667504Y-52535485D01*
X159667501Y-52535486D01*
X159627222Y-52562400D01*
X159590440Y-52569716D01*
X159572778Y-52562400D01*
X159532496Y-52535485D01*
X159502044Y-52529428D01*
X159452133Y-52519500D01*
X159452129Y-52519500D01*
X159247871Y-52519500D01*
X159167504Y-52535485D01*
X159076375Y-52596375D01*
X159031513Y-52663517D01*
X159015485Y-52687505D01*
X158999500Y-52767867D01*
X158999500Y-52767868D01*
X158999500Y-52767870D01*
X158999500Y-54122128D01*
X159015485Y-54202495D01*
X159076375Y-54293624D01*
X159112876Y-54318013D01*
X159167505Y-54354515D01*
X159247867Y-54370500D01*
X159452132Y-54370499D01*
X159452138Y-54370497D01*
X159452368Y-54370475D01*
X159452447Y-54370499D01*
X159454539Y-54370499D01*
X159454539Y-54371132D01*
X159488260Y-54381348D01*
X159505951Y-54414416D01*
X159495078Y-54450308D01*
X159477911Y-54463640D01*
X159409050Y-54495775D01*
X159409045Y-54495778D01*
X159408202Y-54496223D01*
X159408194Y-54496227D01*
X159407376Y-54496768D01*
X159406616Y-54497384D01*
X159406616Y-54497385D01*
X159405910Y-54498084D01*
X159405297Y-54498823D01*
X159405280Y-54498846D01*
X159404745Y-54499638D01*
X159404740Y-54499645D01*
X159404267Y-54500518D01*
X159403895Y-54501405D01*
X159403889Y-54501422D01*
X159403604Y-54502345D01*
X159403602Y-54502355D01*
X159403407Y-54503305D01*
X159403183Y-54505477D01*
X159402239Y-54505379D01*
X159387283Y-54536863D01*
X159354439Y-54549500D01*
X158499500Y-54549500D01*
X158464852Y-54535148D01*
X158450500Y-54500500D01*
X158450500Y-54367153D01*
X158464852Y-54332505D01*
X158477975Y-54323134D01*
X158506483Y-54309198D01*
X158589198Y-54226483D01*
X158640573Y-54121393D01*
X158650500Y-54053260D01*
X158650500Y-52836740D01*
X158640573Y-52768607D01*
X158589198Y-52663517D01*
X158506483Y-52580802D01*
X158434314Y-52545521D01*
X158401396Y-52529428D01*
X158401394Y-52529427D01*
X158333262Y-52519500D01*
X158333260Y-52519500D01*
X157966740Y-52519500D01*
X157966738Y-52519500D01*
X157898605Y-52529427D01*
X157898603Y-52529428D01*
X157793519Y-52580801D01*
X157793515Y-52580803D01*
X157784648Y-52589671D01*
X157750000Y-52604023D01*
X157715352Y-52589671D01*
X157706484Y-52580803D01*
X157706483Y-52580802D01*
X157668246Y-52562109D01*
X157634315Y-52545521D01*
X157609491Y-52517410D01*
X157611815Y-52479979D01*
X157639926Y-52455155D01*
X157655836Y-52452500D01*
X157769576Y-52452500D01*
X157769576Y-52452499D01*
X157884659Y-52421663D01*
X157987842Y-52362090D01*
X158072090Y-52277842D01*
X158131663Y-52174659D01*
X158162499Y-52059576D01*
X158162500Y-52059576D01*
X158162500Y-51940424D01*
X158162499Y-51940423D01*
X158150360Y-51895121D01*
X158131663Y-51825341D01*
X158131662Y-51825340D01*
X158131662Y-51825338D01*
X158072089Y-51722157D01*
X157987842Y-51637910D01*
X157884661Y-51578337D01*
X157884657Y-51578336D01*
X157769576Y-51547500D01*
X157769573Y-51547500D01*
X157650427Y-51547500D01*
X157650424Y-51547500D01*
X157535342Y-51578336D01*
X157535338Y-51578337D01*
X157432157Y-51637910D01*
X157432157Y-51637911D01*
X157347911Y-51722157D01*
X157347910Y-51722157D01*
X157288337Y-51825338D01*
X157288336Y-51825342D01*
X157257500Y-51940423D01*
X157257500Y-52059576D01*
X157288336Y-52174657D01*
X157288337Y-52174661D01*
X157300741Y-52196144D01*
X157347910Y-52277842D01*
X157432158Y-52362090D01*
X157535341Y-52421663D01*
X157540287Y-52422988D01*
X157540965Y-52423170D01*
X157570718Y-52446001D01*
X157575612Y-52483183D01*
X157552781Y-52512936D01*
X157528282Y-52519500D01*
X157217053Y-52519500D01*
X157182405Y-52505148D01*
X157171006Y-52487253D01*
X156983453Y-51971757D01*
X156980500Y-51955004D01*
X156980500Y-51911007D01*
X156980499Y-51911001D01*
X156953582Y-51775681D01*
X156953579Y-51775670D01*
X156900775Y-51648189D01*
X156833497Y-51547500D01*
X156827116Y-51537950D01*
X156821811Y-51527480D01*
X156758269Y-51352831D01*
X156759909Y-51315366D01*
X156782246Y-51292332D01*
X158142191Y-50606354D01*
X158179590Y-50603564D01*
X158202103Y-50618978D01*
G37*
%TD.AperFunction*%
%TD*%
%TA.AperFunction,Conductor*%
%TO.N,Net-(J1-CC2)*%
G36*
X163124869Y-58425507D02*
G01*
X163140215Y-58435897D01*
X164066676Y-59362358D01*
X164081028Y-59397006D01*
X164076518Y-59417540D01*
X163611896Y-60424223D01*
X163584346Y-60449668D01*
X163550707Y-60449756D01*
X163159924Y-60308096D01*
X163132241Y-60282795D01*
X163129295Y-60274719D01*
X163126614Y-60264712D01*
X163115894Y-60246144D01*
X163080470Y-60184788D01*
X161878031Y-58982349D01*
X161863679Y-58947701D01*
X161878031Y-58913053D01*
X161894476Y-58902208D01*
X162339986Y-58724004D01*
X162358184Y-58720500D01*
X162374312Y-58720500D01*
X162374316Y-58720500D01*
X162423173Y-58714068D01*
X162530404Y-58664065D01*
X162550339Y-58644130D01*
X162566785Y-58633285D01*
X163087373Y-58425050D01*
X163124869Y-58425507D01*
G37*
%TD.AperFunction*%
%TD*%
M02*
