%TF.GenerationSoftware,KiCad,Pcbnew,10.0.4*%
%TF.CreationDate,2026-07-07T16:01:29+05:30*%
%TF.ProjectId,Dev,4465762e-6b69-4636-9164-5f7063625858,rev?*%
%TF.SameCoordinates,Original*%
%TF.FileFunction,Soldermask,Top*%
%TF.FilePolarity,Negative*%
%FSLAX46Y46*%
G04 Gerber Fmt 4.6, Leading zero omitted, Abs format (unit mm)*
G04 Created by KiCad (PCBNEW 10.0.4) date 2026-07-07 16:01:29*
%MOMM*%
%LPD*%
G01*
G04 APERTURE LIST*
G04 Aperture macros list*
%AMRoundRect*
0 Rectangle with rounded corners*
0 $1 Rounding radius*
0 $2 $3 $4 $5 $6 $7 $8 $9 X,Y pos of 4 corners*
0 Add a 4 corners polygon primitive as box body*
4,1,4,$2,$3,$4,$5,$6,$7,$8,$9,$2,$3,0*
0 Add four circle primitives for the rounded corners*
1,1,$1+$1,$2,$3*
1,1,$1+$1,$4,$5*
1,1,$1+$1,$6,$7*
1,1,$1+$1,$8,$9*
0 Add four rect primitives between the rounded corners*
20,1,$1+$1,$2,$3,$4,$5,0*
20,1,$1+$1,$4,$5,$6,$7,0*
20,1,$1+$1,$6,$7,$8,$9,0*
20,1,$1+$1,$8,$9,$2,$3,0*%
G04 Aperture macros list end*
%ADD10RoundRect,0.135000X-0.135000X-0.185000X0.135000X-0.185000X0.135000X0.185000X-0.135000X0.185000X0*%
%ADD11RoundRect,0.140000X0.170000X-0.140000X0.170000X0.140000X-0.170000X0.140000X-0.170000X-0.140000X0*%
%ADD12RoundRect,0.200000X0.800000X-0.200000X0.800000X0.200000X-0.800000X0.200000X-0.800000X-0.200000X0*%
%ADD13RoundRect,0.250000X-0.450000X-0.350000X0.450000X-0.350000X0.450000X0.350000X-0.450000X0.350000X0*%
%ADD14RoundRect,0.140000X-0.140000X-0.170000X0.140000X-0.170000X0.140000X0.170000X-0.140000X0.170000X0*%
%ADD15RoundRect,0.050000X-0.387500X-0.050000X0.387500X-0.050000X0.387500X0.050000X-0.387500X0.050000X0*%
%ADD16RoundRect,0.050000X-0.050000X-0.387500X0.050000X-0.387500X0.050000X0.387500X-0.050000X0.387500X0*%
%ADD17R,3.200000X3.200000*%
%ADD18R,1.700000X1.700000*%
%ADD19C,1.700000*%
%ADD20RoundRect,0.162500X-0.650000X-0.162500X0.650000X-0.162500X0.650000X0.162500X-0.650000X0.162500X0*%
%ADD21RoundRect,0.225000X-0.225000X-0.250000X0.225000X-0.250000X0.225000X0.250000X-0.225000X0.250000X0*%
%ADD22C,0.650000*%
%ADD23RoundRect,0.150000X0.150000X0.575000X-0.150000X0.575000X-0.150000X-0.575000X0.150000X-0.575000X0*%
%ADD24RoundRect,0.075000X0.075000X0.650000X-0.075000X0.650000X-0.075000X-0.650000X0.075000X-0.650000X0*%
%ADD25O,1.000000X2.100000*%
%ADD26O,1.000000X1.600000*%
%ADD27RoundRect,0.150000X0.150000X-0.587500X0.150000X0.587500X-0.150000X0.587500X-0.150000X-0.587500X0*%
G04 APERTURE END LIST*
D10*
%TO.C,R3*%
X166580000Y-68180000D03*
X167600000Y-68180000D03*
%TD*%
%TO.C,R5*%
X161000000Y-60800000D03*
X162020000Y-60800000D03*
%TD*%
D11*
%TO.C,C1*%
X160400000Y-72160000D03*
X160400000Y-71200000D03*
%TD*%
D12*
%TO.C,SW1*%
X165200000Y-61400000D03*
X165200000Y-57200000D03*
%TD*%
D13*
%TO.C,Y1*%
X159600000Y-84700000D03*
X161800000Y-84700000D03*
X161800000Y-83000000D03*
X159600000Y-83000000D03*
%TD*%
D11*
%TO.C,C7*%
X165400000Y-74360000D03*
X165400000Y-73400000D03*
%TD*%
D14*
%TO.C,C11*%
X165440000Y-78200000D03*
X166400000Y-78200000D03*
%TD*%
D11*
%TO.C,C4*%
X157600000Y-72200000D03*
X157600000Y-71240000D03*
%TD*%
D15*
%TO.C,U1*%
X157125000Y-74200000D03*
X157125000Y-74600000D03*
X157125000Y-75000000D03*
X157125000Y-75400000D03*
X157125000Y-75800000D03*
X157125000Y-76200000D03*
X157125000Y-76600000D03*
X157125000Y-77000000D03*
X157125000Y-77400000D03*
X157125000Y-77800000D03*
X157125000Y-78200000D03*
X157125000Y-78600000D03*
X157125000Y-79000000D03*
X157125000Y-79400000D03*
D16*
X157962500Y-80237500D03*
X158362500Y-80237500D03*
X158762500Y-80237500D03*
X159162500Y-80237500D03*
X159562500Y-80237500D03*
X159962500Y-80237500D03*
X160362500Y-80237500D03*
X160762500Y-80237500D03*
X161162500Y-80237500D03*
X161562500Y-80237500D03*
X161962500Y-80237500D03*
X162362500Y-80237500D03*
X162762500Y-80237500D03*
X163162500Y-80237500D03*
D15*
X164000000Y-79400000D03*
X164000000Y-79000000D03*
X164000000Y-78600000D03*
X164000000Y-78200000D03*
X164000000Y-77800000D03*
X164000000Y-77400000D03*
X164000000Y-77000000D03*
X164000000Y-76600000D03*
X164000000Y-76200000D03*
X164000000Y-75800000D03*
X164000000Y-75400000D03*
X164000000Y-75000000D03*
X164000000Y-74600000D03*
X164000000Y-74200000D03*
D16*
X163162500Y-73362500D03*
X162762500Y-73362500D03*
X162362500Y-73362500D03*
X161962500Y-73362500D03*
X161562500Y-73362500D03*
X161162500Y-73362500D03*
X160762500Y-73362500D03*
X160362500Y-73362500D03*
X159962500Y-73362500D03*
X159562500Y-73362500D03*
X159162500Y-73362500D03*
X158762500Y-73362500D03*
X158362500Y-73362500D03*
X157962500Y-73362500D03*
D17*
X160562500Y-76800000D03*
%TD*%
D10*
%TO.C,R6*%
X161580000Y-81400000D03*
X162600000Y-81400000D03*
%TD*%
%TO.C,R7*%
X166400000Y-70600000D03*
X167420000Y-70600000D03*
%TD*%
D14*
%TO.C,C6*%
X154440000Y-77200000D03*
X155400000Y-77200000D03*
%TD*%
D10*
%TO.C,R2*%
X166580000Y-66190000D03*
X167600000Y-66190000D03*
%TD*%
D11*
%TO.C,C2*%
X159000000Y-71800000D03*
X159000000Y-70840000D03*
%TD*%
D14*
%TO.C,C5*%
X154200000Y-79070000D03*
X155160000Y-79070000D03*
%TD*%
D11*
%TO.C,C8*%
X167370000Y-74360000D03*
X167370000Y-73400000D03*
%TD*%
D18*
%TO.C,J2*%
X169800000Y-48140000D03*
D19*
X169800000Y-50680000D03*
X169800000Y-53220000D03*
X169800000Y-55760000D03*
X169800000Y-58300000D03*
X169800000Y-60840000D03*
X169800000Y-63380000D03*
X169800000Y-65920000D03*
X169800000Y-68460000D03*
X169800000Y-71000000D03*
X169800000Y-73540000D03*
X169800000Y-76080000D03*
X169800000Y-78620000D03*
X169800000Y-81160000D03*
X169800000Y-83700000D03*
X169800000Y-86240000D03*
X169800000Y-88780000D03*
X169800000Y-91320000D03*
X169800000Y-93860000D03*
X169800000Y-96400000D03*
%TD*%
D20*
%TO.C,U3*%
X157012500Y-65695000D03*
X157012500Y-66965000D03*
X157012500Y-68235000D03*
X157012500Y-69505000D03*
X164187500Y-69505000D03*
X164187500Y-68235000D03*
X164187500Y-66965000D03*
X164187500Y-65695000D03*
%TD*%
D21*
%TO.C,C14*%
X155250000Y-55400000D03*
X156800000Y-55400000D03*
%TD*%
D14*
%TO.C,C3*%
X156200000Y-64600000D03*
X157160000Y-64600000D03*
%TD*%
D22*
%TO.C,J1*%
X163490000Y-52000000D03*
X157710000Y-52000000D03*
D23*
X163850000Y-53445000D03*
X163050000Y-53445000D03*
D24*
X161850000Y-53445000D03*
X160850000Y-53445000D03*
X160350000Y-53445000D03*
X159350000Y-53445000D03*
D23*
X158150000Y-53445000D03*
X157350000Y-53445000D03*
X157350000Y-53445000D03*
X158150000Y-53445000D03*
D24*
X158850000Y-53445000D03*
X159850000Y-53445000D03*
X161350000Y-53445000D03*
X162350000Y-53445000D03*
D23*
X163050000Y-53445000D03*
X163850000Y-53445000D03*
D25*
X164920000Y-52530000D03*
D26*
X164920000Y-48350000D03*
D25*
X156280000Y-52530000D03*
D26*
X156280000Y-48350000D03*
%TD*%
D27*
%TO.C,U2*%
X157200000Y-58000000D03*
X159100000Y-58000000D03*
X158150000Y-56125000D03*
%TD*%
D10*
%TO.C,R1*%
X166580000Y-64200000D03*
X167600000Y-64200000D03*
%TD*%
D11*
%TO.C,C16*%
X164000000Y-84160000D03*
X164000000Y-83200000D03*
%TD*%
D18*
%TO.C,J4*%
X158260000Y-96000000D03*
D19*
X160800000Y-96000000D03*
X163340000Y-96000000D03*
%TD*%
D11*
%TO.C,C9*%
X161800000Y-72160000D03*
X161800000Y-71200000D03*
%TD*%
D10*
%TO.C,R4*%
X161180000Y-58200000D03*
X162200000Y-58200000D03*
%TD*%
D21*
%TO.C,C13*%
X157450000Y-60200000D03*
X159000000Y-60200000D03*
%TD*%
D14*
%TO.C,C12*%
X157000000Y-81800000D03*
X157960000Y-81800000D03*
%TD*%
D11*
%TO.C,C10*%
X165200000Y-72080000D03*
X165200000Y-71120000D03*
%TD*%
D18*
%TO.C,J3*%
X151600000Y-48140000D03*
D19*
X151600000Y-50680000D03*
X151600000Y-53220000D03*
X151600000Y-55760000D03*
X151600000Y-58300000D03*
X151600000Y-60840000D03*
X151600000Y-63380000D03*
X151600000Y-65920000D03*
X151600000Y-68460000D03*
X151600000Y-71000000D03*
X151600000Y-73540000D03*
X151600000Y-76080000D03*
X151600000Y-78620000D03*
X151600000Y-81160000D03*
X151600000Y-83700000D03*
X151600000Y-86240000D03*
X151600000Y-88780000D03*
X151600000Y-91320000D03*
X151600000Y-93860000D03*
X151600000Y-96400000D03*
%TD*%
D11*
%TO.C,C15*%
X157600000Y-84160000D03*
X157600000Y-83200000D03*
%TD*%
%TO.C,C17*%
X163400000Y-72160000D03*
X163400000Y-71200000D03*
%TD*%
M02*
