%TF.GenerationSoftware,KiCad,Pcbnew,10.0.4*%
%TF.CreationDate,2026-09-19T11:06:27+05:30*%
%TF.ProjectId,Dev,4465762e-6b69-4636-9164-5f7063625858,rev?*%
%TF.SameCoordinates,Original*%
%TF.FileFunction,Copper,L2,Bot*%
%TF.FilePolarity,Positive*%
%FSLAX46Y46*%
G04 Gerber Fmt 4.6, Leading zero omitted, Abs format (unit mm)*
G04 Created by KiCad (PCBNEW 10.0.4) date 2026-09-19 11:06:27*
%MOMM*%
%LPD*%
G01*
G04 APERTURE LIST*
%TA.AperFunction,ComponentPad*%
%ADD10R,1.700000X1.700000*%
%TD*%
%TA.AperFunction,ComponentPad*%
%ADD11C,1.700000*%
%TD*%
%TA.AperFunction,ComponentPad*%
%ADD12O,1.000000X2.100000*%
%TD*%
%TA.AperFunction,ComponentPad*%
%ADD13O,1.000000X1.600000*%
%TD*%
%TA.AperFunction,ViaPad*%
%ADD14C,0.250000*%
%TD*%
%TA.AperFunction,ViaPad*%
%ADD15C,0.500000*%
%TD*%
%TA.AperFunction,ViaPad*%
%ADD16C,0.450000*%
%TD*%
%TA.AperFunction,Conductor*%
%ADD17C,0.300000*%
%TD*%
G04 APERTURE END LIST*
D10*
%TO.P,J2,1,Pin_1_1*%
%TO.N,/GPIO0*%
X169800000Y-48140000D03*
D11*
%TO.P,J2,2,Pin_2_2*%
%TO.N,/GPIO1*%
X169800000Y-50680000D03*
%TO.P,J2,3,Pin_3_3*%
%TO.N,GND*%
X169800000Y-53220000D03*
%TO.P,J2,4,Pin_4_4*%
%TO.N,/GPIO2*%
X169800000Y-55760000D03*
%TO.P,J2,5,Pin_5_5*%
%TO.N,/GPIO3*%
X169800000Y-58300000D03*
%TO.P,J2,6,Pin_6_6*%
%TO.N,/GPIO4*%
X169800000Y-60840000D03*
%TO.P,J2,7,Pin_7_7*%
%TO.N,/GPIO5*%
X169800000Y-63380000D03*
%TO.P,J2,8,Pin_8_8*%
%TO.N,GND*%
X169800000Y-65920000D03*
%TO.P,J2,9,Pin_9_9*%
%TO.N,/GPIO6*%
X169800000Y-68460000D03*
%TO.P,J2,10,Pin_10_10*%
%TO.N,/GPIO7*%
X169800000Y-71000000D03*
%TO.P,J2,11,Pin_11_11*%
%TO.N,/GPIO8*%
X169800000Y-73540000D03*
%TO.P,J2,12,Pin_12_12*%
%TO.N,/GPIO9*%
X169800000Y-76080000D03*
%TO.P,J2,13,Pin_13_13*%
%TO.N,GND*%
X169800000Y-78620000D03*
%TO.P,J2,14,Pin_14_14*%
%TO.N,/GPIO10*%
X169800000Y-81160000D03*
%TO.P,J2,15,Pin_15_15*%
%TO.N,/GPIO11*%
X169800000Y-83700000D03*
%TO.P,J2,16,Pin_16_16*%
%TO.N,/GPIO12*%
X169800000Y-86240000D03*
%TO.P,J2,17,Pin_17_17*%
%TO.N,/GPIO13*%
X169800000Y-88780000D03*
%TO.P,J2,18,Pin_18_18*%
%TO.N,GND*%
X169800000Y-91320000D03*
%TO.P,J2,19,Pin_19_19*%
%TO.N,/GPIO14*%
X169800000Y-93860000D03*
%TO.P,J2,20,Pin_20_20*%
%TO.N,/GPIO15*%
X169800000Y-96400000D03*
%TD*%
D12*
%TO.P,J1,SH,SHIELD_SH*%
%TO.N,GND*%
X164920000Y-52530000D03*
D13*
X164920000Y-48350000D03*
D12*
X156280000Y-52530000D03*
D13*
X156280000Y-48350000D03*
%TD*%
D10*
%TO.P,J4,1,Pin_1_1*%
%TO.N,/SWCLK*%
X158260000Y-96000000D03*
D11*
%TO.P,J4,2,Pin_2_2*%
%TO.N,GND*%
X160800000Y-96000000D03*
%TO.P,J4,3,Pin_3_3*%
%TO.N,/SWD*%
X163340000Y-96000000D03*
%TD*%
D10*
%TO.P,J3,1,Pin_1_1*%
%TO.N,VBUS*%
X151600000Y-48140000D03*
D11*
%TO.P,J3,2,Pin_2_2*%
%TO.N,unconnected-(J3-Pin_2-Pad2)*%
X151600000Y-50680000D03*
%TO.P,J3,3,Pin_3_3*%
%TO.N,GND*%
X151600000Y-53220000D03*
%TO.P,J3,4,Pin_4_4*%
%TO.N,/GPI026_ADC2*%
X151600000Y-55760000D03*
%TO.P,J3,5,Pin_5_5*%
%TO.N,+3V3*%
X151600000Y-58300000D03*
%TO.P,J3,6,Pin_6_6*%
%TO.N,/GPI026_ADCO*%
X151600000Y-60840000D03*
%TO.P,J3,7,Pin_7_7*%
%TO.N,/GPI026_ADC1*%
X151600000Y-63380000D03*
%TO.P,J3,8,Pin_8_8*%
%TO.N,GND*%
X151600000Y-65920000D03*
%TO.P,J3,9,Pin_9_9*%
%TO.N,/GPIO24*%
X151600000Y-68460000D03*
%TO.P,J3,10,Pin_10_10*%
%TO.N,/GPIO23*%
X151600000Y-71000000D03*
%TO.P,J3,11,Pin_11_11*%
%TO.N,/RUN*%
X151600000Y-73540000D03*
%TO.P,J3,12,Pin_12_12*%
%TO.N,/GPIO22*%
X151600000Y-76080000D03*
%TO.P,J3,13,Pin_13_13*%
%TO.N,GND*%
X151600000Y-78620000D03*
%TO.P,J3,14,Pin_14_14*%
%TO.N,/GPIO21*%
X151600000Y-81160000D03*
%TO.P,J3,15,Pin_15_15*%
%TO.N,/GPIO20*%
X151600000Y-83700000D03*
%TO.P,J3,16,Pin_16_16*%
%TO.N,/GPIO19*%
X151600000Y-86240000D03*
%TO.P,J3,17,Pin_17_17*%
%TO.N,/GPIO18*%
X151600000Y-88780000D03*
%TO.P,J3,18,Pin_18_18*%
%TO.N,GND*%
X151600000Y-91320000D03*
%TO.P,J3,19,Pin_19_19*%
%TO.N,/GPIO17*%
X151600000Y-93860000D03*
%TO.P,J3,20,Pin_20_20*%
%TO.N,/GPIO16*%
X151600000Y-96400000D03*
%TD*%
D14*
%TO.N,Net-(J1-CC2)*%
X159800000Y-53400000D03*
D15*
X162600000Y-59200000D03*
X166200000Y-67099999D03*
X165700000Y-65800000D03*
X159000000Y-55600000D03*
D14*
X158850000Y-53445000D03*
D15*
%TO.N,Net-(U1-USB_DM)*%
X164000000Y-70400000D03*
D14*
X161963000Y-73362000D03*
D15*
%TO.N,Net-(C16-Pad2)*%
X163900000Y-83300000D03*
X155500000Y-80900000D03*
X160300000Y-62800000D03*
X160300000Y-61400000D03*
X158600000Y-84000000D03*
%TO.N,Net-(C1-Pad1)*%
X166900000Y-74300000D03*
X161100000Y-69800000D03*
X161900000Y-69500000D03*
X165500000Y-74300000D03*
X162800000Y-68200000D03*
X158500000Y-63900000D03*
X159700000Y-69500000D03*
X155000000Y-75300000D03*
X156700000Y-72600000D03*
X154400000Y-75800000D03*
%TO.N,GND*%
X159550000Y-81200000D03*
X163100000Y-82900000D03*
X160400000Y-70300000D03*
X164700000Y-54300000D03*
X158000000Y-64600000D03*
X167600000Y-65300000D03*
X160000000Y-60200000D03*
X157600000Y-85000000D03*
X166400000Y-77300000D03*
X156000000Y-79100000D03*
X155400000Y-76300000D03*
X161800000Y-85900000D03*
X164000000Y-85000000D03*
X167600000Y-63300000D03*
X156300000Y-58000000D03*
X165200000Y-60400000D03*
X160600000Y-74600000D03*
X164300000Y-71100000D03*
X164500000Y-73400000D03*
X156500000Y-54300000D03*
X158800000Y-81800000D03*
X161800000Y-70300000D03*
X157600000Y-70400000D03*
X159000000Y-70000000D03*
X167400000Y-72500000D03*
%TO.N,Net-(R6-Pad1)*%
X161700000Y-81400000D03*
X165700000Y-80100000D03*
D14*
%TO.N,/X_IN*%
X159963000Y-80237000D03*
D15*
X160700000Y-81300000D03*
%TO.N,+1V1*%
X157300000Y-80200000D03*
X165100000Y-78500000D03*
%TO.N,+3V3*%
X160650000Y-73250000D03*
X158700000Y-57400000D03*
X164200000Y-71900000D03*
X163000000Y-77800000D03*
X162650000Y-73250000D03*
D16*
X157000000Y-74100000D03*
D15*
X165600000Y-69200000D03*
D14*
X157125000Y-77800000D03*
D15*
X155800000Y-55600000D03*
D16*
X162450000Y-73700000D03*
X163900000Y-74100000D03*
D14*
X164000000Y-77800000D03*
D15*
%TO.N,/GPIO2*%
X155750000Y-75000000D03*
%TO.N,/GPIO12*%
X155750000Y-75700000D03*
X161300000Y-87800000D03*
X154900000Y-78100000D03*
X154100000Y-82300000D03*
X164100000Y-87800000D03*
%TO.N,/GPIO11*%
X163400000Y-85700000D03*
X164800000Y-87100000D03*
%TO.N,/GPIO17*%
X164400000Y-81400000D03*
X165800000Y-81400000D03*
%TO.N,/GPIO18*%
X166150000Y-80700000D03*
%TO.N,/GPIO19*%
X154100000Y-81200000D03*
X165000000Y-79650000D03*
%TO.N,/QSPI_SD3*%
X162300000Y-66800000D03*
%TO.N,/QSPI_SCLK*%
X162600000Y-70600000D03*
D14*
X159562000Y-73362000D03*
D15*
%TO.N,/QSPI_SD2*%
X156700000Y-71300000D03*
D14*
X158762000Y-73362000D03*
D15*
%TO.N,/QSPI_SD1*%
X158900000Y-67000000D03*
%TO.N,/QSPI_SS*%
X163600000Y-81800000D03*
X167100000Y-69700000D03*
X158300000Y-66300000D03*
X158900000Y-65800000D03*
X164400000Y-82200000D03*
X155650000Y-73800000D03*
%TO.N,/USB_D+*%
X161900000Y-57200000D03*
X160850000Y-51800000D03*
%TO.N,VBUS*%
X157700000Y-59900000D03*
X161900000Y-55400000D03*
X158100000Y-58000000D03*
X160500000Y-54900000D03*
%TO.N,Net-(J1-CC1)*%
X161850000Y-51800000D03*
X161800000Y-50300000D03*
X168300000Y-60600000D03*
X166700000Y-63900000D03*
%TO.N,/USB_D-*%
X161400000Y-54700000D03*
D14*
X161350000Y-53445000D03*
X160350000Y-53445000D03*
%TD*%
%TO.N,Net-(J1-CC2)*%
D17*
X158100000Y-53100000D02*
X158500000Y-52700000D01*
X159700000Y-54300000D02*
X159700000Y-55100000D01*
X159000000Y-55600000D02*
X162600000Y-59200000D01*
X159000000Y-54600000D02*
X158100000Y-53700000D01*
X159100000Y-52700000D02*
X159800000Y-53400000D01*
X165700000Y-65800000D02*
X166200000Y-66300000D01*
X158100000Y-53700000D02*
X158100000Y-53100000D01*
X158500000Y-52700000D02*
X159100000Y-52700000D01*
X159700000Y-55100000D02*
X161800000Y-57200000D01*
X166200000Y-66300000D02*
X166200000Y-67099999D01*
X159000000Y-55600000D02*
X159000000Y-54600000D01*
X158800000Y-53400000D02*
X159700000Y-54300000D01*
%TO.N,Net-(U1-USB_DM)*%
X162000000Y-73400000D02*
X162000000Y-72300000D01*
X163900000Y-70400000D02*
X164000000Y-70400000D01*
X162000000Y-72300000D02*
X163900000Y-70400000D01*
%TO.N,Net-(C16-Pad2)*%
X158600000Y-84000000D02*
X155500000Y-80900000D01*
X160300000Y-62800000D02*
X160300000Y-61400000D01*
X158700000Y-83900000D02*
X163300000Y-83900000D01*
X158600000Y-84000000D02*
X158700000Y-83900000D01*
X163300000Y-83900000D02*
X163900000Y-83300000D01*
%TO.N,Net-(C1-Pad1)*%
X162900000Y-68300000D02*
X165800000Y-68300000D01*
X166200000Y-73600000D02*
X166900000Y-74300000D01*
X166400000Y-68900000D02*
X166400000Y-73400000D01*
X162800000Y-68200000D02*
X162900000Y-68300000D01*
X166400000Y-73400000D02*
X165500000Y-74300000D01*
X165800000Y-68300000D02*
X166400000Y-68900000D01*
X166250000Y-73550000D02*
X166200000Y-73600000D01*
%TO.N,Net-(R6-Pad1)*%
X165700000Y-80100000D02*
X165200000Y-80600000D01*
X165200000Y-80600000D02*
X162500000Y-80600000D01*
X162500000Y-80600000D02*
X161700000Y-81400000D01*
%TO.N,/X_IN*%
X160700000Y-81300000D02*
X160700000Y-80900000D01*
X160700000Y-80900000D02*
X160000000Y-80200000D01*
%TO.N,+1V1*%
X159000000Y-78500000D02*
X157300000Y-80200000D01*
X165100000Y-78500000D02*
X159000000Y-78500000D01*
%TO.N,+3V3*%
X163500000Y-77300000D02*
X164000000Y-77800000D01*
X158800000Y-76100000D02*
X157100000Y-77800000D01*
X158700000Y-57400000D02*
X156900000Y-55600000D01*
X156900000Y-55600000D02*
X155800000Y-55600000D01*
X163500000Y-74100000D02*
X163900000Y-74100000D01*
X164200000Y-71900000D02*
X163900000Y-71900000D01*
X157000000Y-74100000D02*
X157125000Y-74200000D01*
X160700000Y-73300000D02*
X159900000Y-74100000D01*
X163500000Y-77300000D02*
X163000000Y-77800000D01*
X164600000Y-71900000D02*
X164200000Y-71900000D01*
X160600000Y-73200000D02*
X160762000Y-73362000D01*
X162300000Y-74100000D02*
X161500000Y-74100000D01*
X155800000Y-55600000D02*
X154300000Y-55600000D01*
X162600000Y-73800000D02*
X162300000Y-74100000D01*
X154300000Y-55600000D02*
X151600000Y-58300000D01*
X161500000Y-74100000D02*
X160600000Y-73200000D01*
X162600000Y-73800000D02*
X162500000Y-73700000D01*
X159900000Y-74100000D02*
X157000000Y-74100000D01*
X162878000Y-73478000D02*
X162900000Y-73500000D01*
X163900000Y-74100000D02*
X164000000Y-74200000D01*
X163500000Y-74100000D02*
X163500000Y-77300000D01*
X158800000Y-74100000D02*
X158800000Y-76100000D01*
X162900000Y-73500000D02*
X162600000Y-73800000D01*
X165600000Y-69200000D02*
X165600000Y-70900000D01*
X165600000Y-70900000D02*
X164600000Y-71900000D01*
X162800000Y-73400000D02*
X163500000Y-74100000D01*
X163900000Y-71900000D02*
X162600000Y-73200000D01*
X162762000Y-73362000D02*
X162800000Y-73400000D01*
X162600000Y-73200000D02*
X162762000Y-73362000D01*
%TO.N,/GPIO2*%
X160000000Y-63600000D02*
X160600000Y-63600000D01*
X155750000Y-75000000D02*
X155800000Y-75000000D01*
X158200000Y-63100000D02*
X159500000Y-63100000D01*
X168400000Y-55800000D02*
X169800000Y-55800000D01*
X155400000Y-74600000D02*
X155300000Y-74600000D01*
X159500000Y-63100000D02*
X160000000Y-63600000D01*
X160600000Y-63600000D02*
X168400000Y-55800000D01*
X155800000Y-75000000D02*
X155400000Y-74600000D01*
X155300000Y-74600000D02*
X154800000Y-74100000D01*
X154800000Y-74100000D02*
X154800000Y-66500000D01*
X154800000Y-66500000D02*
X158200000Y-63100000D01*
%TO.N,/GPIO12*%
X153300000Y-81500000D02*
X154100000Y-82300000D01*
X161300000Y-87800000D02*
X164100000Y-87800000D01*
X154900000Y-78100000D02*
X153300000Y-79700000D01*
X153300000Y-79700000D02*
X153300000Y-81500000D01*
%TO.N,/GPIO11*%
X164800000Y-87100000D02*
X163400000Y-85700000D01*
%TO.N,/GPIO17*%
X164400000Y-81400000D02*
X165800000Y-81400000D01*
%TO.N,/GPIO19*%
X156700000Y-81000000D02*
X155800000Y-80100000D01*
X165000000Y-79600000D02*
X164500000Y-79100000D01*
X164500000Y-79100000D02*
X159500000Y-79100000D01*
X155200000Y-80100000D02*
X154100000Y-81200000D01*
X157600000Y-81000000D02*
X156700000Y-81000000D01*
X159500000Y-79100000D02*
X157600000Y-81000000D01*
X155800000Y-80100000D02*
X155200000Y-80100000D01*
%TO.N,/QSPI_SCLK*%
X159600000Y-73400000D02*
X162000000Y-71000000D01*
X162200000Y-71000000D02*
X162600000Y-70600000D01*
X162000000Y-71000000D02*
X162200000Y-71000000D01*
%TO.N,/QSPI_SD2*%
X158800000Y-73400000D02*
X156700000Y-71300000D01*
%TO.N,/QSPI_SS*%
X168500000Y-79800000D02*
X166100000Y-82200000D01*
X166000000Y-65000000D02*
X159700000Y-65000000D01*
X158300000Y-66300000D02*
X155400000Y-69200000D01*
X155400000Y-69200000D02*
X155400000Y-73600000D01*
X167100000Y-69700000D02*
X168500000Y-71100000D01*
X166100000Y-82200000D02*
X164400000Y-82200000D01*
X167100000Y-66099999D02*
X166000000Y-65000000D01*
X168500000Y-71100000D02*
X168500000Y-79800000D01*
X167100000Y-69700000D02*
X167100000Y-66099999D01*
X159700000Y-65000000D02*
X158900000Y-65800000D01*
X155400000Y-73600000D02*
X155600000Y-73800000D01*
%TO.N,VBUS*%
X161600000Y-55400000D02*
X161900000Y-55400000D01*
X161100000Y-55500000D02*
X161500000Y-55500000D01*
X157700000Y-58400000D02*
X157700000Y-59900000D01*
X160500000Y-54900000D02*
X161100000Y-55500000D01*
X158100000Y-58000000D02*
X157700000Y-58400000D01*
X161500000Y-55500000D02*
X161600000Y-55400000D01*
%TO.N,Net-(J1-CC1)*%
X161800000Y-51800000D02*
X161800000Y-50300000D01*
X166700000Y-62200000D02*
X166700000Y-63900000D01*
X168300000Y-60600000D02*
X166700000Y-62200000D01*
%TO.N,/USB_D-*%
X161400000Y-53400000D02*
X160400000Y-53400000D01*
X161350000Y-53445000D02*
X161400000Y-53400000D01*
X161400000Y-53400000D02*
X161400000Y-54700000D01*
X160400000Y-53400000D02*
X160350000Y-53445000D01*
%TD*%
%TA.AperFunction,Conductor*%
%TO.N,GND*%
G36*
X168735148Y-47264852D02*
G01*
X168749500Y-47299500D01*
X168749500Y-49009748D01*
X168761133Y-49068231D01*
X168778882Y-49094795D01*
X168805447Y-49134552D01*
X168832012Y-49152301D01*
X168871769Y-49178867D01*
X168930252Y-49190500D01*
X170600500Y-49190500D01*
X170635148Y-49204852D01*
X170649500Y-49239500D01*
X170649500Y-49925572D01*
X170635148Y-49960220D01*
X170600500Y-49974572D01*
X170565852Y-49960220D01*
X170469654Y-49864022D01*
X170384207Y-49806929D01*
X170297598Y-49749059D01*
X170297596Y-49749058D01*
X170106423Y-49669871D01*
X170106417Y-49669869D01*
X170024572Y-49653589D01*
X169903465Y-49629500D01*
X169696535Y-49629500D01*
X169595520Y-49649592D01*
X169493582Y-49669869D01*
X169493576Y-49669871D01*
X169302403Y-49749058D01*
X169130345Y-49864022D01*
X168984022Y-50010345D01*
X168869058Y-50182403D01*
X168789871Y-50373576D01*
X168789869Y-50373582D01*
X168769918Y-50473884D01*
X168749500Y-50576535D01*
X168749500Y-50783465D01*
X168776290Y-50918150D01*
X168789869Y-50986417D01*
X168789871Y-50986423D01*
X168869058Y-51177596D01*
X168940241Y-51284131D01*
X168984023Y-51349655D01*
X169130345Y-51495977D01*
X169302402Y-51610941D01*
X169493580Y-51690130D01*
X169696535Y-51730500D01*
X169696538Y-51730500D01*
X169903462Y-51730500D01*
X169903465Y-51730500D01*
X170106420Y-51690130D01*
X170297598Y-51610941D01*
X170469655Y-51495977D01*
X170565852Y-51399780D01*
X170600500Y-51385428D01*
X170635148Y-51399780D01*
X170649500Y-51434428D01*
X170649500Y-55005572D01*
X170635148Y-55040220D01*
X170600500Y-55054572D01*
X170565852Y-55040220D01*
X170469654Y-54944022D01*
X170336149Y-54854818D01*
X170297598Y-54829059D01*
X170144101Y-54765478D01*
X170106423Y-54749871D01*
X170106417Y-54749869D01*
X170024572Y-54733589D01*
X169903465Y-54709500D01*
X169696535Y-54709500D01*
X169595520Y-54729592D01*
X169493582Y-54749869D01*
X169493576Y-54749871D01*
X169302403Y-54829058D01*
X169130345Y-54944022D01*
X168984022Y-55090345D01*
X168869058Y-55262403D01*
X168804089Y-55419252D01*
X168777570Y-55445770D01*
X168758819Y-55449500D01*
X168353853Y-55449500D01*
X168264713Y-55473385D01*
X168264709Y-55473386D01*
X168184787Y-55519530D01*
X160834148Y-62870169D01*
X160799500Y-62884521D01*
X160764852Y-62870169D01*
X160750500Y-62835521D01*
X160750500Y-62740688D01*
X160719799Y-62626115D01*
X160719798Y-62626112D01*
X160658883Y-62520606D01*
X160659498Y-62520250D01*
X160650500Y-62493736D01*
X160650500Y-61706263D01*
X160659500Y-61679750D01*
X160658883Y-61679394D01*
X160719798Y-61573887D01*
X160719799Y-61573886D01*
X160747273Y-61471354D01*
X160750500Y-61459311D01*
X160750500Y-61340688D01*
X160719799Y-61226115D01*
X160719798Y-61226112D01*
X160660488Y-61123386D01*
X160576613Y-61039511D01*
X160473887Y-60980201D01*
X160473884Y-60980200D01*
X160359312Y-60949500D01*
X160359309Y-60949500D01*
X160240691Y-60949500D01*
X160240688Y-60949500D01*
X160126115Y-60980200D01*
X160126112Y-60980201D01*
X160023386Y-61039511D01*
X160023386Y-61039512D01*
X159939512Y-61123386D01*
X159939511Y-61123386D01*
X159880201Y-61226112D01*
X159880200Y-61226115D01*
X159849500Y-61340688D01*
X159849500Y-61459311D01*
X159880200Y-61573884D01*
X159880201Y-61573887D01*
X159941117Y-61679394D01*
X159940499Y-61679750D01*
X159949500Y-61706263D01*
X159949500Y-62493736D01*
X159940501Y-62520250D01*
X159941117Y-62520606D01*
X159880201Y-62626112D01*
X159880200Y-62626115D01*
X159849500Y-62740688D01*
X159849500Y-62835522D01*
X159835148Y-62870170D01*
X159800500Y-62884522D01*
X159765852Y-62870170D01*
X159715212Y-62819530D01*
X159635290Y-62773386D01*
X159635286Y-62773385D01*
X159546147Y-62749500D01*
X159546144Y-62749500D01*
X158153856Y-62749500D01*
X158153853Y-62749500D01*
X158064713Y-62773385D01*
X158064709Y-62773386D01*
X157984787Y-62819530D01*
X157984787Y-62819531D01*
X154519531Y-66284787D01*
X154519530Y-66284787D01*
X154484106Y-66346142D01*
X154484106Y-66346144D01*
X154476505Y-66359309D01*
X154473386Y-66364712D01*
X154473384Y-66364716D01*
X154449500Y-66453853D01*
X154449500Y-74146145D01*
X154453074Y-74159483D01*
X154468215Y-74215989D01*
X154469236Y-74219798D01*
X154473387Y-74235291D01*
X154519530Y-74315212D01*
X154970397Y-74766079D01*
X154984749Y-74800727D01*
X154970397Y-74835375D01*
X154943752Y-74848516D01*
X154943793Y-74848668D01*
X154943030Y-74848872D01*
X154942149Y-74849307D01*
X154940691Y-74849498D01*
X154826115Y-74880200D01*
X154826112Y-74880201D01*
X154723386Y-74939511D01*
X154723386Y-74939512D01*
X154639512Y-75023386D01*
X154639511Y-75023386D01*
X154580201Y-75126112D01*
X154580200Y-75126115D01*
X154549500Y-75240688D01*
X154549500Y-75309808D01*
X154535148Y-75344456D01*
X154500500Y-75358808D01*
X154487818Y-75357138D01*
X154459312Y-75349500D01*
X154459309Y-75349500D01*
X154340691Y-75349500D01*
X154340688Y-75349500D01*
X154226115Y-75380200D01*
X154226112Y-75380201D01*
X154123386Y-75439511D01*
X154123386Y-75439512D01*
X154039512Y-75523386D01*
X154039511Y-75523386D01*
X153980201Y-75626112D01*
X153980200Y-75626115D01*
X153949500Y-75740688D01*
X153949500Y-75859311D01*
X153980200Y-75973884D01*
X153980201Y-75973887D01*
X154030201Y-76060488D01*
X154039511Y-76076613D01*
X154123387Y-76160489D01*
X154226114Y-76219799D01*
X154254758Y-76227474D01*
X154340688Y-76250500D01*
X154340691Y-76250500D01*
X154459311Y-76250500D01*
X154516597Y-76235149D01*
X154573886Y-76219799D01*
X154676613Y-76160489D01*
X154760489Y-76076613D01*
X154819799Y-75973886D01*
X154846595Y-75873884D01*
X154850500Y-75859311D01*
X154850500Y-75790191D01*
X154864852Y-75755543D01*
X154899500Y-75741191D01*
X154912183Y-75742861D01*
X154940689Y-75750500D01*
X154940691Y-75750500D01*
X155059311Y-75750500D01*
X155127810Y-75732145D01*
X155173886Y-75719799D01*
X155226001Y-75689709D01*
X155263181Y-75684814D01*
X155292935Y-75707644D01*
X155299500Y-75732145D01*
X155299500Y-75759311D01*
X155330200Y-75873884D01*
X155330201Y-75873887D01*
X155385214Y-75969170D01*
X155389511Y-75976613D01*
X155473387Y-76060489D01*
X155576114Y-76119799D01*
X155604758Y-76127474D01*
X155690688Y-76150500D01*
X155690691Y-76150500D01*
X155809311Y-76150500D01*
X155866597Y-76135149D01*
X155923886Y-76119799D01*
X156026613Y-76060489D01*
X156110489Y-75976613D01*
X156169799Y-75873886D01*
X156196676Y-75773580D01*
X156200500Y-75759311D01*
X156200500Y-75640688D01*
X156169799Y-75526115D01*
X156169798Y-75526112D01*
X156140789Y-75475868D01*
X156110489Y-75423387D01*
X156071750Y-75384648D01*
X156057398Y-75350000D01*
X156071750Y-75315352D01*
X156110488Y-75276614D01*
X156110489Y-75276613D01*
X156169799Y-75173886D01*
X156197670Y-75069871D01*
X156200500Y-75059311D01*
X156200500Y-74940688D01*
X156169799Y-74826115D01*
X156169798Y-74826112D01*
X156110488Y-74723386D01*
X156026613Y-74639511D01*
X155923887Y-74580201D01*
X155923884Y-74580200D01*
X155870993Y-74566028D01*
X155849027Y-74553346D01*
X155629830Y-74334148D01*
X155615478Y-74299500D01*
X155629830Y-74264852D01*
X155664478Y-74250500D01*
X155709311Y-74250500D01*
X155766597Y-74235149D01*
X155823886Y-74219799D01*
X155926613Y-74160489D01*
X156010489Y-74076613D01*
X156069799Y-73973886D01*
X156094902Y-73880201D01*
X156100500Y-73859311D01*
X156100500Y-73740688D01*
X156069799Y-73626115D01*
X156069798Y-73626112D01*
X156017361Y-73535290D01*
X156010489Y-73523387D01*
X155926613Y-73439511D01*
X155921464Y-73436538D01*
X155823887Y-73380201D01*
X155786817Y-73370268D01*
X155757064Y-73347438D01*
X155750500Y-73322938D01*
X155750500Y-72540688D01*
X156249500Y-72540688D01*
X156249500Y-72659311D01*
X156280200Y-72773884D01*
X156280201Y-72773887D01*
X156306069Y-72818691D01*
X156339511Y-72876613D01*
X156423387Y-72960489D01*
X156526114Y-73019799D01*
X156554758Y-73027474D01*
X156640688Y-73050500D01*
X156640691Y-73050500D01*
X156759311Y-73050500D01*
X156816597Y-73035149D01*
X156873886Y-73019799D01*
X156976613Y-72960489D01*
X157060489Y-72876613D01*
X157119799Y-72773886D01*
X157135149Y-72716597D01*
X157150500Y-72659311D01*
X157150500Y-72540688D01*
X157124908Y-72445182D01*
X157119799Y-72426114D01*
X157060489Y-72323387D01*
X156976613Y-72239511D01*
X156954273Y-72226613D01*
X156873887Y-72180201D01*
X156873884Y-72180200D01*
X156759312Y-72149500D01*
X156759309Y-72149500D01*
X156640691Y-72149500D01*
X156640688Y-72149500D01*
X156526115Y-72180200D01*
X156526112Y-72180201D01*
X156423386Y-72239511D01*
X156423386Y-72239512D01*
X156339512Y-72323386D01*
X156339511Y-72323386D01*
X156280201Y-72426112D01*
X156280200Y-72426115D01*
X156249500Y-72540688D01*
X155750500Y-72540688D01*
X155750500Y-69440688D01*
X159249500Y-69440688D01*
X159249500Y-69559311D01*
X159280200Y-69673884D01*
X159280201Y-69673887D01*
X159318771Y-69740691D01*
X159339511Y-69776613D01*
X159423387Y-69860489D01*
X159526114Y-69919799D01*
X159554758Y-69927474D01*
X159640688Y-69950500D01*
X159640691Y-69950500D01*
X159759311Y-69950500D01*
X159816597Y-69935149D01*
X159873886Y-69919799D01*
X159976613Y-69860489D01*
X160060489Y-69776613D01*
X160081230Y-69740688D01*
X160649500Y-69740688D01*
X160649500Y-69859311D01*
X160680200Y-69973884D01*
X160680201Y-69973887D01*
X160734901Y-70068629D01*
X160739511Y-70076613D01*
X160823387Y-70160489D01*
X160926114Y-70219799D01*
X160954758Y-70227474D01*
X161040688Y-70250500D01*
X161040691Y-70250500D01*
X161159311Y-70250500D01*
X161216597Y-70235149D01*
X161273886Y-70219799D01*
X161376613Y-70160489D01*
X161460489Y-70076613D01*
X161519799Y-69973886D01*
X161543688Y-69884732D01*
X161566518Y-69854979D01*
X161603700Y-69850084D01*
X161620847Y-69858539D01*
X161623381Y-69860483D01*
X161623387Y-69860489D01*
X161726114Y-69919799D01*
X161754758Y-69927474D01*
X161840688Y-69950500D01*
X161840691Y-69950500D01*
X161959311Y-69950500D01*
X162016597Y-69935149D01*
X162073886Y-69919799D01*
X162176613Y-69860489D01*
X162260489Y-69776613D01*
X162319799Y-69673886D01*
X162335149Y-69616597D01*
X162350500Y-69559311D01*
X162350500Y-69440688D01*
X162319799Y-69326115D01*
X162319798Y-69326112D01*
X162260488Y-69223386D01*
X162176613Y-69139511D01*
X162073887Y-69080201D01*
X162073884Y-69080200D01*
X161959312Y-69049500D01*
X161959309Y-69049500D01*
X161840691Y-69049500D01*
X161840688Y-69049500D01*
X161726115Y-69080200D01*
X161726112Y-69080201D01*
X161623386Y-69139511D01*
X161623386Y-69139512D01*
X161539512Y-69223386D01*
X161539511Y-69223386D01*
X161480201Y-69326112D01*
X161480201Y-69326113D01*
X161456311Y-69415268D01*
X161433480Y-69445021D01*
X161396298Y-69449915D01*
X161379154Y-69441461D01*
X161376616Y-69439514D01*
X161376613Y-69439511D01*
X161325249Y-69409856D01*
X161273887Y-69380201D01*
X161273884Y-69380200D01*
X161159312Y-69349500D01*
X161159309Y-69349500D01*
X161040691Y-69349500D01*
X161040688Y-69349500D01*
X160926115Y-69380200D01*
X160926112Y-69380201D01*
X160823386Y-69439511D01*
X160823386Y-69439512D01*
X160739512Y-69523386D01*
X160739511Y-69523386D01*
X160680201Y-69626112D01*
X160680200Y-69626115D01*
X160649500Y-69740688D01*
X160081230Y-69740688D01*
X160119799Y-69673886D01*
X160135149Y-69616597D01*
X160150500Y-69559311D01*
X160150500Y-69440688D01*
X160119799Y-69326115D01*
X160119798Y-69326112D01*
X160060488Y-69223386D01*
X159976613Y-69139511D01*
X159873887Y-69080201D01*
X159873884Y-69080200D01*
X159759312Y-69049500D01*
X159759309Y-69049500D01*
X159640691Y-69049500D01*
X159640688Y-69049500D01*
X159526115Y-69080200D01*
X159526112Y-69080201D01*
X159423386Y-69139511D01*
X159423386Y-69139512D01*
X159339512Y-69223386D01*
X159339511Y-69223386D01*
X159280201Y-69326112D01*
X159280200Y-69326115D01*
X159249500Y-69440688D01*
X155750500Y-69440688D01*
X155750500Y-69365477D01*
X155764852Y-69330829D01*
X156954993Y-68140688D01*
X158331277Y-66764403D01*
X158356390Y-66752020D01*
X158356206Y-66751332D01*
X158395916Y-66740691D01*
X158439706Y-66728957D01*
X158476886Y-66733851D01*
X158499717Y-66763604D01*
X158494823Y-66800786D01*
X158480201Y-66826113D01*
X158480200Y-66826115D01*
X158449500Y-66940688D01*
X158449500Y-67059311D01*
X158480200Y-67173884D01*
X158480201Y-67173887D01*
X158537935Y-67273883D01*
X158539511Y-67276613D01*
X158623387Y-67360489D01*
X158726114Y-67419799D01*
X158754758Y-67427474D01*
X158840688Y-67450500D01*
X158840691Y-67450500D01*
X158959311Y-67450500D01*
X159016597Y-67435149D01*
X159073886Y-67419799D01*
X159176613Y-67360489D01*
X159260489Y-67276613D01*
X159319799Y-67173886D01*
X159345863Y-67076614D01*
X159350500Y-67059311D01*
X159350500Y-66940688D01*
X159319799Y-66826115D01*
X159319798Y-66826112D01*
X159284170Y-66764404D01*
X159270478Y-66740688D01*
X161849500Y-66740688D01*
X161849500Y-66859311D01*
X161880200Y-66973884D01*
X161880201Y-66973887D01*
X161939511Y-67076613D01*
X162023387Y-67160489D01*
X162126114Y-67219799D01*
X162154758Y-67227474D01*
X162240688Y-67250500D01*
X162240691Y-67250500D01*
X162359311Y-67250500D01*
X162416597Y-67235149D01*
X162473886Y-67219799D01*
X162576613Y-67160489D01*
X162660489Y-67076613D01*
X162719799Y-66973886D01*
X162735149Y-66916597D01*
X162750500Y-66859311D01*
X162750500Y-66740688D01*
X162719799Y-66626115D01*
X162719798Y-66626112D01*
X162675565Y-66549500D01*
X162660489Y-66523387D01*
X162576613Y-66439511D01*
X162561577Y-66430830D01*
X162473887Y-66380201D01*
X162473884Y-66380200D01*
X162359312Y-66349500D01*
X162359309Y-66349500D01*
X162240691Y-66349500D01*
X162240688Y-66349500D01*
X162126115Y-66380200D01*
X162126112Y-66380201D01*
X162023386Y-66439511D01*
X162023386Y-66439512D01*
X161939512Y-66523386D01*
X161939511Y-66523386D01*
X161880201Y-66626112D01*
X161880200Y-66626115D01*
X161849500Y-66740688D01*
X159270478Y-66740688D01*
X159260489Y-66723387D01*
X159176613Y-66639511D01*
X159073887Y-66580201D01*
X159073884Y-66580200D01*
X158959312Y-66549500D01*
X158959309Y-66549500D01*
X158840691Y-66549500D01*
X158840688Y-66549500D01*
X158760294Y-66571042D01*
X158723112Y-66566147D01*
X158700282Y-66536394D01*
X158705177Y-66499212D01*
X158719798Y-66473887D01*
X158719799Y-66473886D01*
X158744902Y-66380201D01*
X158750500Y-66359311D01*
X158750500Y-66290191D01*
X158764852Y-66255543D01*
X158799500Y-66241191D01*
X158812182Y-66242860D01*
X158815661Y-66243793D01*
X158840689Y-66250500D01*
X158840691Y-66250500D01*
X158959311Y-66250500D01*
X159016597Y-66235149D01*
X159073886Y-66219799D01*
X159176613Y-66160489D01*
X159260489Y-66076613D01*
X159319799Y-65973886D01*
X159343672Y-65884793D01*
X159351332Y-65856207D01*
X159352023Y-65856392D01*
X159364402Y-65831279D01*
X159830830Y-65364852D01*
X159865478Y-65350500D01*
X165395040Y-65350500D01*
X165429688Y-65364852D01*
X165444040Y-65399500D01*
X165429688Y-65434148D01*
X165424867Y-65438376D01*
X165423384Y-65439513D01*
X165339512Y-65523386D01*
X165339511Y-65523386D01*
X165280201Y-65626112D01*
X165280200Y-65626115D01*
X165249500Y-65740688D01*
X165249500Y-65859311D01*
X165280200Y-65973884D01*
X165280201Y-65973887D01*
X165339511Y-66076613D01*
X165423387Y-66160489D01*
X165526114Y-66219799D01*
X165546353Y-66225222D01*
X165643793Y-66251332D01*
X165643607Y-66252023D01*
X165668721Y-66264403D01*
X165835148Y-66430830D01*
X165849500Y-66465478D01*
X165849500Y-66793735D01*
X165840501Y-66820249D01*
X165841117Y-66820605D01*
X165839511Y-66823385D01*
X165839511Y-66823386D01*
X165826204Y-66846433D01*
X165780201Y-66926111D01*
X165780200Y-66926114D01*
X165749500Y-67040687D01*
X165749500Y-67159310D01*
X165780200Y-67273883D01*
X165780201Y-67273886D01*
X165830202Y-67360488D01*
X165839511Y-67376612D01*
X165923387Y-67460488D01*
X166026114Y-67519798D01*
X166054758Y-67527473D01*
X166140688Y-67550499D01*
X166140691Y-67550499D01*
X166259311Y-67550499D01*
X166316597Y-67535148D01*
X166373886Y-67519798D01*
X166476613Y-67460488D01*
X166560489Y-67376612D01*
X166619799Y-67273885D01*
X166646594Y-67173886D01*
X166650500Y-67159310D01*
X166650500Y-67040687D01*
X166619799Y-66926114D01*
X166619798Y-66926111D01*
X166581229Y-66859309D01*
X166560489Y-66823386D01*
X166560488Y-66823385D01*
X166558883Y-66820605D01*
X166559498Y-66820249D01*
X166550500Y-66793735D01*
X166550500Y-66253853D01*
X166550499Y-66253852D01*
X166526615Y-66164715D01*
X166526614Y-66164713D01*
X166526614Y-66164712D01*
X166518163Y-66150076D01*
X166513268Y-66112894D01*
X166536098Y-66083141D01*
X166573281Y-66078245D01*
X166595247Y-66090928D01*
X166735148Y-66230829D01*
X166749500Y-66265477D01*
X166749500Y-68635522D01*
X166735148Y-68670170D01*
X166700500Y-68684522D01*
X166665852Y-68670170D01*
X166015212Y-68019530D01*
X165935290Y-67973386D01*
X165935286Y-67973385D01*
X165846147Y-67949500D01*
X165846144Y-67949500D01*
X163203856Y-67949500D01*
X163169208Y-67935148D01*
X163161421Y-67925001D01*
X163160491Y-67923390D01*
X163160486Y-67923384D01*
X163076613Y-67839511D01*
X162973887Y-67780201D01*
X162973884Y-67780200D01*
X162859312Y-67749500D01*
X162859309Y-67749500D01*
X162740691Y-67749500D01*
X162740688Y-67749500D01*
X162626115Y-67780200D01*
X162626112Y-67780201D01*
X162523386Y-67839511D01*
X162523386Y-67839512D01*
X162439512Y-67923386D01*
X162439511Y-67923386D01*
X162380201Y-68026112D01*
X162380200Y-68026115D01*
X162349500Y-68140688D01*
X162349500Y-68259311D01*
X162380200Y-68373884D01*
X162380201Y-68373887D01*
X162439511Y-68476613D01*
X162523387Y-68560489D01*
X162626114Y-68619799D01*
X162654758Y-68627474D01*
X162740688Y-68650500D01*
X162740691Y-68650500D01*
X162853856Y-68650500D01*
X165634522Y-68650500D01*
X165669170Y-68664852D01*
X165670170Y-68665852D01*
X165684522Y-68700500D01*
X165670170Y-68735148D01*
X165635522Y-68749500D01*
X165540688Y-68749500D01*
X165426115Y-68780200D01*
X165426112Y-68780201D01*
X165323386Y-68839511D01*
X165323386Y-68839512D01*
X165239512Y-68923386D01*
X165239511Y-68923386D01*
X165180201Y-69026112D01*
X165180200Y-69026115D01*
X165149500Y-69140688D01*
X165149500Y-69259311D01*
X165180200Y-69373884D01*
X165180201Y-69373887D01*
X165207175Y-69420606D01*
X165239405Y-69476430D01*
X165241117Y-69479394D01*
X165240499Y-69479750D01*
X165249500Y-69506263D01*
X165249500Y-70734521D01*
X165235148Y-70769169D01*
X164495714Y-71508602D01*
X164461066Y-71522954D01*
X164436566Y-71516389D01*
X164373888Y-71480201D01*
X164373884Y-71480200D01*
X164259312Y-71449500D01*
X164259309Y-71449500D01*
X164140691Y-71449500D01*
X164140688Y-71449500D01*
X164026115Y-71480200D01*
X164026112Y-71480201D01*
X163976922Y-71508602D01*
X163923387Y-71539511D01*
X163923386Y-71539511D01*
X163920606Y-71541117D01*
X163920249Y-71540499D01*
X163893737Y-71549500D01*
X163853853Y-71549500D01*
X163764713Y-71573385D01*
X163764709Y-71573386D01*
X163684787Y-71619530D01*
X163684786Y-71619531D01*
X162475949Y-72828367D01*
X162465801Y-72836154D01*
X162424000Y-72860288D01*
X162386818Y-72865183D01*
X162357065Y-72842353D01*
X162350500Y-72817853D01*
X162350500Y-72465478D01*
X162364852Y-72430830D01*
X163930830Y-70864852D01*
X163965478Y-70850500D01*
X164059311Y-70850500D01*
X164116597Y-70835149D01*
X164173886Y-70819799D01*
X164276613Y-70760489D01*
X164360489Y-70676613D01*
X164419799Y-70573886D01*
X164438953Y-70502402D01*
X164450500Y-70459311D01*
X164450500Y-70340688D01*
X164419799Y-70226115D01*
X164419798Y-70226112D01*
X164403905Y-70198585D01*
X164360489Y-70123387D01*
X164276613Y-70039511D01*
X164173887Y-69980201D01*
X164173884Y-69980200D01*
X164059312Y-69949500D01*
X164059309Y-69949500D01*
X163940691Y-69949500D01*
X163940688Y-69949500D01*
X163826115Y-69980200D01*
X163826112Y-69980201D01*
X163723386Y-70039511D01*
X163723386Y-70039512D01*
X163639514Y-70123383D01*
X163639509Y-70123390D01*
X163586154Y-70215802D01*
X163578367Y-70225949D01*
X163134148Y-70670169D01*
X163099500Y-70684521D01*
X163064852Y-70670169D01*
X163050500Y-70635521D01*
X163050500Y-70540688D01*
X163019799Y-70426115D01*
X163019798Y-70426112D01*
X162986619Y-70368645D01*
X162960489Y-70323387D01*
X162876613Y-70239511D01*
X162853409Y-70226114D01*
X162773887Y-70180201D01*
X162773884Y-70180200D01*
X162659312Y-70149500D01*
X162659309Y-70149500D01*
X162540691Y-70149500D01*
X162540688Y-70149500D01*
X162426115Y-70180200D01*
X162426112Y-70180201D01*
X162323386Y-70239511D01*
X162323386Y-70239512D01*
X162239512Y-70323386D01*
X162239511Y-70323386D01*
X162180201Y-70426112D01*
X162180200Y-70426115D01*
X162148668Y-70543793D01*
X162147980Y-70543608D01*
X162135596Y-70568721D01*
X162069170Y-70635148D01*
X162034522Y-70649500D01*
X161953854Y-70649500D01*
X161917248Y-70659309D01*
X161884108Y-70668189D01*
X161866007Y-70673039D01*
X161864708Y-70673387D01*
X161784787Y-70719530D01*
X161784786Y-70719531D01*
X159458314Y-73046002D01*
X159439168Y-73057059D01*
X159439331Y-73057452D01*
X159436359Y-73058683D01*
X159362137Y-73101535D01*
X159362137Y-73101536D01*
X159301536Y-73162137D01*
X159301535Y-73162137D01*
X159258682Y-73236359D01*
X159258682Y-73236361D01*
X159236179Y-73320341D01*
X159213349Y-73350094D01*
X159176166Y-73354988D01*
X159146413Y-73332158D01*
X159141519Y-73320340D01*
X159126614Y-73264712D01*
X159126613Y-73264710D01*
X159108640Y-73233580D01*
X159080469Y-73184787D01*
X157164403Y-71268721D01*
X157152023Y-71243607D01*
X157151332Y-71243793D01*
X157119799Y-71126115D01*
X157119798Y-71126112D01*
X157076143Y-71050500D01*
X157060489Y-71023387D01*
X156976613Y-70939511D01*
X156873887Y-70880201D01*
X156873884Y-70880200D01*
X156759312Y-70849500D01*
X156759309Y-70849500D01*
X156640691Y-70849500D01*
X156640688Y-70849500D01*
X156526115Y-70880200D01*
X156526112Y-70880201D01*
X156423386Y-70939511D01*
X156423386Y-70939512D01*
X156339512Y-71023386D01*
X156339511Y-71023386D01*
X156280201Y-71126112D01*
X156280200Y-71126115D01*
X156249500Y-71240688D01*
X156249500Y-71359311D01*
X156280200Y-71473884D01*
X156280201Y-71473887D01*
X156318090Y-71539511D01*
X156339511Y-71576613D01*
X156423387Y-71660489D01*
X156526114Y-71719799D01*
X156555189Y-71727589D01*
X156643793Y-71751332D01*
X156643607Y-71752023D01*
X156668721Y-71764403D01*
X158570170Y-73665852D01*
X158584522Y-73700500D01*
X158570170Y-73735148D01*
X158535522Y-73749500D01*
X157257046Y-73749500D01*
X157232546Y-73742935D01*
X157164239Y-73703497D01*
X157164235Y-73703496D01*
X157056021Y-73674500D01*
X157056018Y-73674500D01*
X156943982Y-73674500D01*
X156943979Y-73674500D01*
X156835764Y-73703496D01*
X156835760Y-73703497D01*
X156738736Y-73759515D01*
X156738736Y-73759516D01*
X156659516Y-73838736D01*
X156659515Y-73838736D01*
X156603497Y-73935760D01*
X156603496Y-73935764D01*
X156574500Y-74043978D01*
X156574500Y-74156021D01*
X156603496Y-74264235D01*
X156603497Y-74264239D01*
X156656463Y-74355977D01*
X156659515Y-74361263D01*
X156738737Y-74440485D01*
X156763857Y-74454988D01*
X156835760Y-74496502D01*
X156835762Y-74496502D01*
X156835763Y-74496503D01*
X156884922Y-74509675D01*
X156943978Y-74525499D01*
X156943979Y-74525500D01*
X156943982Y-74525500D01*
X156984264Y-74525500D01*
X157003928Y-74529619D01*
X157026608Y-74539556D01*
X157026611Y-74539556D01*
X157026613Y-74539557D01*
X157072226Y-74546503D01*
X157117845Y-74553451D01*
X157117846Y-74553450D01*
X157117847Y-74553451D01*
X157209562Y-74543261D01*
X157209563Y-74543260D01*
X157209568Y-74543260D01*
X157295529Y-74509676D01*
X157348183Y-74470941D01*
X157363016Y-74460030D01*
X157392052Y-74450500D01*
X158400500Y-74450500D01*
X158435148Y-74464852D01*
X158449500Y-74499500D01*
X158449500Y-75934522D01*
X158435148Y-75969170D01*
X156819531Y-77584787D01*
X156819530Y-77584787D01*
X156773386Y-77664710D01*
X156773384Y-77664715D01*
X156749501Y-77753852D01*
X156749501Y-77846147D01*
X156773384Y-77935284D01*
X156773386Y-77935289D01*
X156819530Y-78015212D01*
X156884788Y-78080470D01*
X156964712Y-78126614D01*
X156964713Y-78126614D01*
X156964715Y-78126615D01*
X157053853Y-78150499D01*
X157053856Y-78150499D01*
X157146146Y-78150499D01*
X157235284Y-78126615D01*
X157235283Y-78126615D01*
X157235288Y-78126614D01*
X157315212Y-78080470D01*
X159080470Y-76315212D01*
X159126614Y-76235288D01*
X159130764Y-76219799D01*
X159146656Y-76160489D01*
X159150500Y-76146145D01*
X159150500Y-74499500D01*
X159164852Y-74464852D01*
X159199500Y-74450500D01*
X159946146Y-74450500D01*
X159990716Y-74438557D01*
X160035288Y-74426614D01*
X160115212Y-74380470D01*
X160665352Y-73830330D01*
X160700000Y-73815978D01*
X160734648Y-73830330D01*
X161284788Y-74380470D01*
X161314040Y-74397359D01*
X161364709Y-74426613D01*
X161364711Y-74426613D01*
X161364712Y-74426614D01*
X161386998Y-74432585D01*
X161453853Y-74450500D01*
X161453856Y-74450500D01*
X162346146Y-74450500D01*
X162390716Y-74438557D01*
X162435288Y-74426614D01*
X162515212Y-74380470D01*
X162865352Y-74030330D01*
X162900000Y-74015978D01*
X162934648Y-74030330D01*
X163135148Y-74230830D01*
X163149500Y-74265478D01*
X163149500Y-77134522D01*
X163135148Y-77169170D01*
X162968721Y-77335596D01*
X162943608Y-77347980D01*
X162943793Y-77348668D01*
X162826115Y-77380200D01*
X162826112Y-77380201D01*
X162723386Y-77439511D01*
X162723386Y-77439512D01*
X162639512Y-77523386D01*
X162639511Y-77523386D01*
X162580201Y-77626112D01*
X162580200Y-77626115D01*
X162549500Y-77740688D01*
X162549500Y-77859311D01*
X162580200Y-77973884D01*
X162580201Y-77973888D01*
X162639157Y-78076000D01*
X162644052Y-78113182D01*
X162621222Y-78142935D01*
X162596722Y-78149500D01*
X158953853Y-78149500D01*
X158864713Y-78173385D01*
X158864709Y-78173386D01*
X158784787Y-78219530D01*
X157268721Y-79735596D01*
X157243608Y-79747980D01*
X157243793Y-79748668D01*
X157126115Y-79780200D01*
X157126112Y-79780201D01*
X157023386Y-79839511D01*
X157023386Y-79839512D01*
X156939512Y-79923386D01*
X156939511Y-79923386D01*
X156880201Y-80026112D01*
X156880200Y-80026115D01*
X156849500Y-80140688D01*
X156849500Y-80259311D01*
X156880200Y-80373884D01*
X156880201Y-80373887D01*
X156939511Y-80476613D01*
X157023387Y-80560489D01*
X157023390Y-80560491D01*
X157024867Y-80561624D01*
X157025338Y-80562440D01*
X157025658Y-80562760D01*
X157025572Y-80562845D01*
X157043620Y-80594102D01*
X157033916Y-80630327D01*
X157001438Y-80649080D01*
X156995040Y-80649500D01*
X156865478Y-80649500D01*
X156830830Y-80635148D01*
X156015212Y-79819530D01*
X155935290Y-79773386D01*
X155935286Y-79773385D01*
X155846147Y-79749500D01*
X155846144Y-79749500D01*
X155153856Y-79749500D01*
X155153853Y-79749500D01*
X155064713Y-79773385D01*
X155064709Y-79773386D01*
X154984787Y-79819530D01*
X154068721Y-80735596D01*
X154043608Y-80747980D01*
X154043793Y-80748668D01*
X153926115Y-80780200D01*
X153926112Y-80780201D01*
X153823386Y-80839511D01*
X153823386Y-80839512D01*
X153739510Y-80923387D01*
X153738372Y-80924871D01*
X153737555Y-80925342D01*
X153737240Y-80925658D01*
X153737155Y-80925573D01*
X153705892Y-80943620D01*
X153669668Y-80933911D01*
X153650919Y-80901431D01*
X153650500Y-80895039D01*
X153650500Y-79865478D01*
X153664852Y-79830830D01*
X154292336Y-79203346D01*
X154931279Y-78564402D01*
X154956392Y-78552023D01*
X154956207Y-78551332D01*
X155027256Y-78532293D01*
X155073886Y-78519799D01*
X155176613Y-78460489D01*
X155260489Y-78376613D01*
X155319799Y-78273886D01*
X155346728Y-78173386D01*
X155350500Y-78159311D01*
X155350500Y-78040688D01*
X155322257Y-77935288D01*
X155319799Y-77926114D01*
X155260489Y-77823387D01*
X155176613Y-77739511D01*
X155073887Y-77680201D01*
X155073884Y-77680200D01*
X154959312Y-77649500D01*
X154959309Y-77649500D01*
X154840691Y-77649500D01*
X154840688Y-77649500D01*
X154726115Y-77680200D01*
X154726112Y-77680201D01*
X154623386Y-77739511D01*
X154623386Y-77739512D01*
X154539512Y-77823386D01*
X154539511Y-77823386D01*
X154480201Y-77926112D01*
X154480200Y-77926115D01*
X154448668Y-78043793D01*
X154447980Y-78043608D01*
X154435596Y-78068721D01*
X153019532Y-79484785D01*
X153019527Y-79484791D01*
X152999473Y-79519529D01*
X152999472Y-79519530D01*
X152973386Y-79564710D01*
X152973385Y-79564713D01*
X152949500Y-79653853D01*
X152949500Y-81546145D01*
X152959855Y-81584788D01*
X152959855Y-81584789D01*
X152973385Y-81635287D01*
X152973386Y-81635290D01*
X153019530Y-81715212D01*
X153635596Y-82331278D01*
X153647980Y-82356391D01*
X153648668Y-82356207D01*
X153680200Y-82473884D01*
X153680201Y-82473887D01*
X153729274Y-82558883D01*
X153739511Y-82576613D01*
X153823387Y-82660489D01*
X153926114Y-82719799D01*
X153954758Y-82727474D01*
X154040688Y-82750500D01*
X154040691Y-82750500D01*
X154159311Y-82750500D01*
X154216597Y-82735149D01*
X154273886Y-82719799D01*
X154376613Y-82660489D01*
X154460489Y-82576613D01*
X154519799Y-82473886D01*
X154546595Y-82373884D01*
X154550500Y-82359311D01*
X154550500Y-82240688D01*
X154519799Y-82126115D01*
X154519798Y-82126112D01*
X154460488Y-82023386D01*
X154376613Y-81939511D01*
X154273887Y-81880201D01*
X154273884Y-81880200D01*
X154156207Y-81848668D01*
X154156391Y-81847980D01*
X154131278Y-81835596D01*
X154029830Y-81734148D01*
X154015478Y-81699500D01*
X154029830Y-81664852D01*
X154064478Y-81650500D01*
X154159311Y-81650500D01*
X154216597Y-81635149D01*
X154273886Y-81619799D01*
X154376613Y-81560489D01*
X154460489Y-81476613D01*
X154519799Y-81373886D01*
X154534292Y-81319798D01*
X154551332Y-81256207D01*
X154552023Y-81256392D01*
X154564402Y-81231279D01*
X154965852Y-80829828D01*
X155000500Y-80815477D01*
X155035148Y-80829829D01*
X155049500Y-80864477D01*
X155049500Y-80959311D01*
X155080200Y-81073884D01*
X155080201Y-81073887D01*
X155139340Y-81176317D01*
X155139511Y-81176613D01*
X155223387Y-81260489D01*
X155326114Y-81319799D01*
X155349077Y-81325952D01*
X155443793Y-81351332D01*
X155443607Y-81352023D01*
X155468721Y-81364403D01*
X158135596Y-84031278D01*
X158147980Y-84056391D01*
X158148668Y-84056207D01*
X158180200Y-84173884D01*
X158180201Y-84173887D01*
X158225398Y-84252169D01*
X158239511Y-84276613D01*
X158323387Y-84360489D01*
X158426114Y-84419799D01*
X158454758Y-84427474D01*
X158540688Y-84450500D01*
X158540691Y-84450500D01*
X158659311Y-84450500D01*
X158716597Y-84435149D01*
X158773886Y-84419799D01*
X158876613Y-84360489D01*
X158960489Y-84276613D01*
X158961421Y-84274999D01*
X158962165Y-84274427D01*
X158962447Y-84274061D01*
X158962545Y-84274136D01*
X158991175Y-84252169D01*
X159003856Y-84250500D01*
X163346146Y-84250500D01*
X163390716Y-84238557D01*
X163435288Y-84226614D01*
X163515212Y-84180470D01*
X163931279Y-83764402D01*
X163956392Y-83752023D01*
X163956207Y-83751332D01*
X164027256Y-83732293D01*
X164073886Y-83719799D01*
X164176613Y-83660489D01*
X164260489Y-83576613D01*
X164319799Y-83473886D01*
X164341318Y-83393576D01*
X164350500Y-83359311D01*
X164350500Y-83240688D01*
X164319799Y-83126115D01*
X164319798Y-83126112D01*
X164260488Y-83023386D01*
X164176613Y-82939511D01*
X164073887Y-82880201D01*
X164073884Y-82880200D01*
X163959312Y-82849500D01*
X163959309Y-82849500D01*
X163840691Y-82849500D01*
X163840688Y-82849500D01*
X163726115Y-82880200D01*
X163726112Y-82880201D01*
X163623386Y-82939511D01*
X163623386Y-82939512D01*
X163539512Y-83023386D01*
X163539511Y-83023386D01*
X163480201Y-83126112D01*
X163480200Y-83126115D01*
X163448668Y-83243793D01*
X163447980Y-83243608D01*
X163435596Y-83268721D01*
X163169170Y-83535148D01*
X163134522Y-83549500D01*
X158665478Y-83549500D01*
X158630830Y-83535148D01*
X156490930Y-81395248D01*
X156476578Y-81360600D01*
X156490930Y-81325952D01*
X156525578Y-81311600D01*
X156550076Y-81318164D01*
X156552908Y-81319799D01*
X156564712Y-81326614D01*
X156586998Y-81332585D01*
X156653853Y-81350500D01*
X156653856Y-81350500D01*
X157646146Y-81350500D01*
X157690716Y-81338557D01*
X157735288Y-81326614D01*
X157747092Y-81319799D01*
X157815212Y-81280470D01*
X158901539Y-80194143D01*
X159637500Y-80194143D01*
X159637500Y-80279856D01*
X159659681Y-80362636D01*
X159659682Y-80362640D01*
X159694755Y-80423387D01*
X159702535Y-80436862D01*
X159763138Y-80497465D01*
X159837362Y-80540318D01*
X159837364Y-80540319D01*
X159840335Y-80541550D01*
X159839885Y-80542635D01*
X159856583Y-80552265D01*
X160308602Y-81004284D01*
X160322954Y-81038932D01*
X160316390Y-81063431D01*
X160280200Y-81126114D01*
X160280200Y-81126115D01*
X160249500Y-81240688D01*
X160249500Y-81359311D01*
X160280200Y-81473884D01*
X160280201Y-81473887D01*
X160321920Y-81546145D01*
X160339511Y-81576613D01*
X160423387Y-81660489D01*
X160526114Y-81719799D01*
X160554758Y-81727474D01*
X160640688Y-81750500D01*
X160640691Y-81750500D01*
X160759311Y-81750500D01*
X160820335Y-81734148D01*
X160873886Y-81719799D01*
X160976613Y-81660489D01*
X161060489Y-81576613D01*
X161119799Y-81473886D01*
X161144902Y-81380201D01*
X161150500Y-81359311D01*
X161150500Y-81240688D01*
X161123967Y-81141668D01*
X161119799Y-81126114D01*
X161116152Y-81119798D01*
X161089644Y-81073884D01*
X161060489Y-81023387D01*
X161060488Y-81023386D01*
X161058883Y-81020606D01*
X161059498Y-81020250D01*
X161050500Y-80993736D01*
X161050500Y-80853853D01*
X161026614Y-80764713D01*
X161026614Y-80764712D01*
X161004329Y-80726114D01*
X160980469Y-80684787D01*
X160215212Y-79919530D01*
X160147560Y-79880471D01*
X160135289Y-79873386D01*
X160135284Y-79873384D01*
X160046147Y-79849501D01*
X160046144Y-79849501D01*
X159953856Y-79849501D01*
X159953853Y-79849501D01*
X159864715Y-79873384D01*
X159864710Y-79873386D01*
X159784787Y-79919530D01*
X159784787Y-79919531D01*
X159719531Y-79984787D01*
X159719530Y-79984787D01*
X159673386Y-80064709D01*
X159673385Y-80064713D01*
X159663597Y-80101241D01*
X159660676Y-80108300D01*
X159660909Y-80108397D01*
X159659681Y-80111361D01*
X159637500Y-80194143D01*
X158901539Y-80194143D01*
X159630830Y-79464852D01*
X159665478Y-79450500D01*
X164334522Y-79450500D01*
X164369170Y-79464852D01*
X164535148Y-79630830D01*
X164549500Y-79665478D01*
X164549500Y-79709311D01*
X164580200Y-79823884D01*
X164580201Y-79823887D01*
X164635422Y-79919530D01*
X164639511Y-79926613D01*
X164723387Y-80010489D01*
X164826114Y-80069799D01*
X164854758Y-80077474D01*
X164940688Y-80100500D01*
X164940691Y-80100500D01*
X165059311Y-80100500D01*
X165080071Y-80094937D01*
X165117253Y-80099831D01*
X165140084Y-80129584D01*
X165135190Y-80166766D01*
X165127403Y-80176915D01*
X165069169Y-80235148D01*
X165034522Y-80249500D01*
X162453853Y-80249500D01*
X162364713Y-80273385D01*
X162364709Y-80273386D01*
X162284787Y-80319530D01*
X161668721Y-80935596D01*
X161643608Y-80947980D01*
X161643793Y-80948668D01*
X161526115Y-80980200D01*
X161526112Y-80980201D01*
X161423386Y-81039511D01*
X161423386Y-81039512D01*
X161339512Y-81123386D01*
X161339511Y-81123386D01*
X161280201Y-81226112D01*
X161280200Y-81226115D01*
X161249500Y-81340688D01*
X161249500Y-81459311D01*
X161280200Y-81573884D01*
X161280201Y-81573887D01*
X161330201Y-81660488D01*
X161339511Y-81676613D01*
X161423387Y-81760489D01*
X161526114Y-81819799D01*
X161554758Y-81827474D01*
X161640688Y-81850500D01*
X161640691Y-81850500D01*
X161759311Y-81850500D01*
X161816597Y-81835149D01*
X161873886Y-81819799D01*
X161976613Y-81760489D01*
X162060489Y-81676613D01*
X162119799Y-81573886D01*
X162133331Y-81523386D01*
X162151332Y-81456207D01*
X162152023Y-81456392D01*
X162164402Y-81431279D01*
X162630830Y-80964852D01*
X162665478Y-80950500D01*
X164095040Y-80950500D01*
X164129688Y-80964852D01*
X164144040Y-80999500D01*
X164129688Y-81034148D01*
X164124867Y-81038376D01*
X164123384Y-81039513D01*
X164039512Y-81123386D01*
X164039511Y-81123386D01*
X163980201Y-81226112D01*
X163980200Y-81226115D01*
X163949500Y-81340688D01*
X163949500Y-81396722D01*
X163935148Y-81431370D01*
X163900500Y-81445722D01*
X163876000Y-81439157D01*
X163773888Y-81380201D01*
X163773884Y-81380200D01*
X163659312Y-81349500D01*
X163659309Y-81349500D01*
X163540691Y-81349500D01*
X163540688Y-81349500D01*
X163426115Y-81380200D01*
X163426112Y-81380201D01*
X163323386Y-81439511D01*
X163323386Y-81439512D01*
X163239512Y-81523386D01*
X163239511Y-81523386D01*
X163180201Y-81626112D01*
X163180200Y-81626115D01*
X163149500Y-81740688D01*
X163149500Y-81859311D01*
X163180200Y-81973884D01*
X163180201Y-81973887D01*
X163227977Y-82056636D01*
X163239511Y-82076613D01*
X163323387Y-82160489D01*
X163426114Y-82219799D01*
X163454758Y-82227474D01*
X163540688Y-82250500D01*
X163540691Y-82250500D01*
X163659311Y-82250500D01*
X163716597Y-82235149D01*
X163773886Y-82219799D01*
X163876002Y-82160841D01*
X163913182Y-82155946D01*
X163942935Y-82178776D01*
X163949500Y-82203277D01*
X163949500Y-82259311D01*
X163980200Y-82373884D01*
X163980201Y-82373887D01*
X164037935Y-82473884D01*
X164039511Y-82476613D01*
X164123387Y-82560489D01*
X164226114Y-82619799D01*
X164254758Y-82627474D01*
X164340688Y-82650500D01*
X164340691Y-82650500D01*
X164459311Y-82650500D01*
X164516597Y-82635149D01*
X164573886Y-82619799D01*
X164676613Y-82560489D01*
X164676613Y-82560488D01*
X164679394Y-82558883D01*
X164679750Y-82559500D01*
X164706263Y-82550500D01*
X166146146Y-82550500D01*
X166190716Y-82538557D01*
X166235288Y-82526614D01*
X166315212Y-82480470D01*
X168780470Y-80015212D01*
X168826614Y-79935288D01*
X168841302Y-79880470D01*
X168845319Y-79865478D01*
X168850500Y-79846145D01*
X168850500Y-76711354D01*
X168864852Y-76676706D01*
X168899500Y-76662354D01*
X168934148Y-76676706D01*
X168940239Y-76684128D01*
X168984023Y-76749655D01*
X169130345Y-76895977D01*
X169302402Y-77010941D01*
X169493580Y-77090130D01*
X169696535Y-77130500D01*
X169696538Y-77130500D01*
X169903462Y-77130500D01*
X169903465Y-77130500D01*
X170106420Y-77090130D01*
X170297598Y-77010941D01*
X170469655Y-76895977D01*
X170565852Y-76799780D01*
X170600500Y-76785428D01*
X170635148Y-76799780D01*
X170649500Y-76834428D01*
X170649500Y-80405572D01*
X170635148Y-80440220D01*
X170600500Y-80454572D01*
X170565852Y-80440220D01*
X170469654Y-80344022D01*
X170373617Y-80279853D01*
X170297598Y-80229059D01*
X170228651Y-80200500D01*
X170106423Y-80149871D01*
X170106417Y-80149869D01*
X170024572Y-80133589D01*
X169903465Y-80109500D01*
X169696535Y-80109500D01*
X169595565Y-80129584D01*
X169493582Y-80149869D01*
X169493576Y-80149871D01*
X169302403Y-80229058D01*
X169130345Y-80344022D01*
X168984022Y-80490345D01*
X168869058Y-80662403D01*
X168789871Y-80853576D01*
X168789869Y-80853582D01*
X168775926Y-80923683D01*
X168749500Y-81056535D01*
X168749500Y-81263465D01*
X168768565Y-81359311D01*
X168789869Y-81466417D01*
X168789871Y-81466423D01*
X168869058Y-81657596D01*
X168869059Y-81657598D01*
X168910620Y-81719799D01*
X168967731Y-81805273D01*
X168984023Y-81829655D01*
X169130345Y-81975977D01*
X169302402Y-82090941D01*
X169493580Y-82170130D01*
X169696535Y-82210500D01*
X169696538Y-82210500D01*
X169903462Y-82210500D01*
X169903465Y-82210500D01*
X170106420Y-82170130D01*
X170297598Y-82090941D01*
X170469655Y-81975977D01*
X170565852Y-81879780D01*
X170600500Y-81865428D01*
X170635148Y-81879780D01*
X170649500Y-81914428D01*
X170649500Y-82945572D01*
X170635148Y-82980220D01*
X170600500Y-82994572D01*
X170565852Y-82980220D01*
X170469654Y-82884022D01*
X170384207Y-82826929D01*
X170297598Y-82769059D01*
X170178675Y-82719799D01*
X170106423Y-82689871D01*
X170106417Y-82689869D01*
X170024572Y-82673589D01*
X169903465Y-82649500D01*
X169696535Y-82649500D01*
X169595520Y-82669592D01*
X169493582Y-82689869D01*
X169493576Y-82689871D01*
X169302403Y-82769058D01*
X169130345Y-82884022D01*
X168984022Y-83030345D01*
X168869058Y-83202403D01*
X168789871Y-83393576D01*
X168789869Y-83393582D01*
X168773897Y-83473884D01*
X168749500Y-83596535D01*
X168749500Y-83803465D01*
X168776290Y-83938150D01*
X168789869Y-84006417D01*
X168789871Y-84006423D01*
X168869058Y-84197596D01*
X168977898Y-84360489D01*
X168984023Y-84369655D01*
X169130345Y-84515977D01*
X169302402Y-84630941D01*
X169493580Y-84710130D01*
X169696535Y-84750500D01*
X169696538Y-84750500D01*
X169903462Y-84750500D01*
X169903465Y-84750500D01*
X170106420Y-84710130D01*
X170297598Y-84630941D01*
X170469655Y-84515977D01*
X170565852Y-84419780D01*
X170600500Y-84405428D01*
X170635148Y-84419780D01*
X170649500Y-84454428D01*
X170649500Y-85485572D01*
X170635148Y-85520220D01*
X170600500Y-85534572D01*
X170565852Y-85520220D01*
X170469654Y-85424022D01*
X170343173Y-85339511D01*
X170297598Y-85309059D01*
X170297596Y-85309058D01*
X170106423Y-85229871D01*
X170106417Y-85229869D01*
X170024572Y-85213589D01*
X169903465Y-85189500D01*
X169696535Y-85189500D01*
X169595520Y-85209592D01*
X169493582Y-85229869D01*
X169493576Y-85229871D01*
X169302403Y-85309058D01*
X169130345Y-85424022D01*
X168984022Y-85570345D01*
X168869058Y-85742403D01*
X168789871Y-85933576D01*
X168789869Y-85933582D01*
X168781310Y-85976613D01*
X168749500Y-86136535D01*
X168749500Y-86343465D01*
X168776290Y-86478150D01*
X168789869Y-86546417D01*
X168789871Y-86546423D01*
X168869058Y-86737596D01*
X168869059Y-86737598D01*
X168925691Y-86822354D01*
X168940241Y-86844131D01*
X168984023Y-86909655D01*
X169130345Y-87055977D01*
X169302402Y-87170941D01*
X169493580Y-87250130D01*
X169696535Y-87290500D01*
X169696538Y-87290500D01*
X169903462Y-87290500D01*
X169903465Y-87290500D01*
X170106420Y-87250130D01*
X170297598Y-87170941D01*
X170469655Y-87055977D01*
X170565852Y-86959780D01*
X170600500Y-86945428D01*
X170635148Y-86959780D01*
X170649500Y-86994428D01*
X170649500Y-88025572D01*
X170635148Y-88060220D01*
X170600500Y-88074572D01*
X170565852Y-88060220D01*
X170469654Y-87964022D01*
X170312938Y-87859309D01*
X170297598Y-87849059D01*
X170297596Y-87849058D01*
X170106423Y-87769871D01*
X170106417Y-87769869D01*
X170024572Y-87753589D01*
X169903465Y-87729500D01*
X169696535Y-87729500D01*
X169595520Y-87749592D01*
X169493582Y-87769869D01*
X169493576Y-87769871D01*
X169302403Y-87849058D01*
X169130345Y-87964022D01*
X168984022Y-88110345D01*
X168869058Y-88282403D01*
X168789871Y-88473576D01*
X168789869Y-88473582D01*
X168769592Y-88575520D01*
X168749500Y-88676535D01*
X168749500Y-88883465D01*
X168776290Y-89018150D01*
X168789869Y-89086417D01*
X168789871Y-89086423D01*
X168869058Y-89277596D01*
X168940241Y-89384131D01*
X168984023Y-89449655D01*
X169130345Y-89595977D01*
X169302402Y-89710941D01*
X169493580Y-89790130D01*
X169696535Y-89830500D01*
X169696538Y-89830500D01*
X169903462Y-89830500D01*
X169903465Y-89830500D01*
X170106420Y-89790130D01*
X170297598Y-89710941D01*
X170469655Y-89595977D01*
X170565852Y-89499780D01*
X170600500Y-89485428D01*
X170635148Y-89499780D01*
X170649500Y-89534428D01*
X170649500Y-93105572D01*
X170635148Y-93140220D01*
X170600500Y-93154572D01*
X170565852Y-93140220D01*
X170469654Y-93044022D01*
X170384207Y-92986929D01*
X170297598Y-92929059D01*
X170297596Y-92929058D01*
X170106423Y-92849871D01*
X170106417Y-92849869D01*
X170024572Y-92833589D01*
X169903465Y-92809500D01*
X169696535Y-92809500D01*
X169595520Y-92829592D01*
X169493582Y-92849869D01*
X169493576Y-92849871D01*
X169302403Y-92929058D01*
X169130345Y-93044022D01*
X168984022Y-93190345D01*
X168869058Y-93362403D01*
X168789871Y-93553576D01*
X168789869Y-93553582D01*
X168769592Y-93655520D01*
X168749500Y-93756535D01*
X168749500Y-93963465D01*
X168776290Y-94098150D01*
X168789869Y-94166417D01*
X168789871Y-94166423D01*
X168869058Y-94357596D01*
X168940241Y-94464131D01*
X168984023Y-94529655D01*
X169130345Y-94675977D01*
X169302402Y-94790941D01*
X169493580Y-94870130D01*
X169696535Y-94910500D01*
X169696538Y-94910500D01*
X169903462Y-94910500D01*
X169903465Y-94910500D01*
X170106420Y-94870130D01*
X170297598Y-94790941D01*
X170469655Y-94675977D01*
X170565852Y-94579780D01*
X170600500Y-94565428D01*
X170635148Y-94579780D01*
X170649500Y-94614428D01*
X170649500Y-95645572D01*
X170635148Y-95680220D01*
X170600500Y-95694572D01*
X170565852Y-95680220D01*
X170469654Y-95584022D01*
X170347501Y-95502403D01*
X170297598Y-95469059D01*
X170297596Y-95469058D01*
X170106423Y-95389871D01*
X170106417Y-95389869D01*
X170024572Y-95373589D01*
X169903465Y-95349500D01*
X169696535Y-95349500D01*
X169595520Y-95369592D01*
X169493582Y-95389869D01*
X169493576Y-95389871D01*
X169302403Y-95469058D01*
X169130345Y-95584022D01*
X168984022Y-95730345D01*
X168869058Y-95902403D01*
X168789871Y-96093576D01*
X168789869Y-96093582D01*
X168769592Y-96195520D01*
X168749500Y-96296535D01*
X168749500Y-96503465D01*
X168776290Y-96638150D01*
X168789869Y-96706417D01*
X168789871Y-96706423D01*
X168869058Y-96897596D01*
X168984022Y-97069654D01*
X169080220Y-97165852D01*
X169094572Y-97200500D01*
X169080220Y-97235148D01*
X169045572Y-97249500D01*
X152354428Y-97249500D01*
X152319780Y-97235148D01*
X152305428Y-97200500D01*
X152319780Y-97165852D01*
X152415977Y-97069655D01*
X152530941Y-96897598D01*
X152610130Y-96706420D01*
X152650500Y-96503465D01*
X152650500Y-96296535D01*
X152610130Y-96093580D01*
X152530941Y-95902402D01*
X152415977Y-95730345D01*
X152269655Y-95584023D01*
X152097598Y-95469059D01*
X152097596Y-95469058D01*
X151906423Y-95389871D01*
X151906417Y-95389869D01*
X151824572Y-95373589D01*
X151703465Y-95349500D01*
X151496535Y-95349500D01*
X151395520Y-95369592D01*
X151293582Y-95389869D01*
X151293576Y-95389871D01*
X151102403Y-95469058D01*
X150930345Y-95584022D01*
X150784022Y-95730345D01*
X150740242Y-95795868D01*
X150709059Y-95816703D01*
X150672277Y-95809387D01*
X150651442Y-95778204D01*
X150650500Y-95768645D01*
X150650500Y-95130252D01*
X157209500Y-95130252D01*
X157209500Y-96869748D01*
X157221133Y-96928231D01*
X157222944Y-96930941D01*
X157265447Y-96994552D01*
X157288759Y-97010128D01*
X157331769Y-97038867D01*
X157390252Y-97050500D01*
X157390255Y-97050500D01*
X159129745Y-97050500D01*
X159129748Y-97050500D01*
X159188231Y-97038867D01*
X159254552Y-96994552D01*
X159298867Y-96928231D01*
X159310500Y-96869748D01*
X159310500Y-95896535D01*
X162289500Y-95896535D01*
X162289500Y-96103465D01*
X162316290Y-96238150D01*
X162327903Y-96296535D01*
X162329870Y-96306420D01*
X162409059Y-96497598D01*
X162524023Y-96669655D01*
X162670345Y-96815977D01*
X162842402Y-96930941D01*
X163033580Y-97010130D01*
X163236535Y-97050500D01*
X163236538Y-97050500D01*
X163443462Y-97050500D01*
X163443465Y-97050500D01*
X163646420Y-97010130D01*
X163837598Y-96930941D01*
X164009655Y-96815977D01*
X164155977Y-96669655D01*
X164270941Y-96497598D01*
X164350130Y-96306420D01*
X164390500Y-96103465D01*
X164390500Y-95896535D01*
X164350130Y-95693580D01*
X164270941Y-95502402D01*
X164155977Y-95330345D01*
X164009655Y-95184023D01*
X163837598Y-95069059D01*
X163837596Y-95069058D01*
X163646423Y-94989871D01*
X163646417Y-94989869D01*
X163564572Y-94973589D01*
X163443465Y-94949500D01*
X163236535Y-94949500D01*
X163135520Y-94969592D01*
X163033582Y-94989869D01*
X163033576Y-94989871D01*
X162842403Y-95069058D01*
X162670345Y-95184022D01*
X162524022Y-95330345D01*
X162409058Y-95502403D01*
X162329871Y-95693576D01*
X162329869Y-95693582D01*
X162322557Y-95730345D01*
X162289500Y-95896535D01*
X159310500Y-95896535D01*
X159310500Y-95130252D01*
X159298867Y-95071769D01*
X159272301Y-95032012D01*
X159254552Y-95005447D01*
X159214795Y-94978882D01*
X159188231Y-94961133D01*
X159129748Y-94949500D01*
X157390252Y-94949500D01*
X157331769Y-94961133D01*
X157265447Y-95005447D01*
X157222944Y-95069058D01*
X157221133Y-95071769D01*
X157209500Y-95130252D01*
X150650500Y-95130252D01*
X150650500Y-94491354D01*
X150664852Y-94456706D01*
X150699500Y-94442354D01*
X150734148Y-94456706D01*
X150740239Y-94464128D01*
X150784023Y-94529655D01*
X150930345Y-94675977D01*
X151102402Y-94790941D01*
X151293580Y-94870130D01*
X151496535Y-94910500D01*
X151496538Y-94910500D01*
X151703462Y-94910500D01*
X151703465Y-94910500D01*
X151906420Y-94870130D01*
X152097598Y-94790941D01*
X152269655Y-94675977D01*
X152415977Y-94529655D01*
X152530941Y-94357598D01*
X152610130Y-94166420D01*
X152650500Y-93963465D01*
X152650500Y-93756535D01*
X152610130Y-93553580D01*
X152530941Y-93362402D01*
X152415977Y-93190345D01*
X152269655Y-93044023D01*
X152097598Y-92929059D01*
X152097596Y-92929058D01*
X151906423Y-92849871D01*
X151906417Y-92849869D01*
X151824572Y-92833589D01*
X151703465Y-92809500D01*
X151496535Y-92809500D01*
X151395520Y-92829592D01*
X151293582Y-92849869D01*
X151293576Y-92849871D01*
X151102403Y-92929058D01*
X150930345Y-93044022D01*
X150784022Y-93190345D01*
X150740242Y-93255868D01*
X150709059Y-93276703D01*
X150672277Y-93269387D01*
X150651442Y-93238204D01*
X150650500Y-93228645D01*
X150650500Y-89411354D01*
X150664852Y-89376706D01*
X150699500Y-89362354D01*
X150734148Y-89376706D01*
X150740239Y-89384128D01*
X150784023Y-89449655D01*
X150930345Y-89595977D01*
X151102402Y-89710941D01*
X151293580Y-89790130D01*
X151496535Y-89830500D01*
X151496538Y-89830500D01*
X151703462Y-89830500D01*
X151703465Y-89830500D01*
X151906420Y-89790130D01*
X152097598Y-89710941D01*
X152269655Y-89595977D01*
X152415977Y-89449655D01*
X152530941Y-89277598D01*
X152610130Y-89086420D01*
X152650500Y-88883465D01*
X152650500Y-88676535D01*
X152610130Y-88473580D01*
X152530941Y-88282402D01*
X152415977Y-88110345D01*
X152269655Y-87964023D01*
X152097598Y-87849059D01*
X151923702Y-87777028D01*
X151906423Y-87769871D01*
X151906417Y-87769869D01*
X151824572Y-87753589D01*
X151759712Y-87740688D01*
X160849500Y-87740688D01*
X160849500Y-87859311D01*
X160880200Y-87973884D01*
X160880201Y-87973887D01*
X160910042Y-88025572D01*
X160939511Y-88076613D01*
X161023387Y-88160489D01*
X161126114Y-88219799D01*
X161154758Y-88227474D01*
X161240688Y-88250500D01*
X161240691Y-88250500D01*
X161359311Y-88250500D01*
X161416597Y-88235149D01*
X161473886Y-88219799D01*
X161576613Y-88160489D01*
X161576613Y-88160488D01*
X161579394Y-88158883D01*
X161579750Y-88159500D01*
X161606263Y-88150500D01*
X163793737Y-88150500D01*
X163820249Y-88159500D01*
X163820606Y-88158883D01*
X163823386Y-88160488D01*
X163823387Y-88160489D01*
X163926114Y-88219799D01*
X163954758Y-88227474D01*
X164040688Y-88250500D01*
X164040691Y-88250500D01*
X164159311Y-88250500D01*
X164216597Y-88235149D01*
X164273886Y-88219799D01*
X164376613Y-88160489D01*
X164460489Y-88076613D01*
X164519799Y-87973886D01*
X164535149Y-87916597D01*
X164550500Y-87859311D01*
X164550500Y-87740688D01*
X164519799Y-87626115D01*
X164519798Y-87626112D01*
X164466003Y-87532938D01*
X164461108Y-87495756D01*
X164483938Y-87466003D01*
X164521120Y-87461108D01*
X164532936Y-87466002D01*
X164626114Y-87519799D01*
X164639501Y-87523386D01*
X164740688Y-87550500D01*
X164740691Y-87550500D01*
X164859311Y-87550500D01*
X164924851Y-87532938D01*
X164973886Y-87519799D01*
X165076613Y-87460489D01*
X165160489Y-87376613D01*
X165219799Y-87273886D01*
X165235149Y-87216597D01*
X165250500Y-87159311D01*
X165250500Y-87040688D01*
X165219799Y-86926115D01*
X165219798Y-86926112D01*
X165181329Y-86859483D01*
X165160489Y-86823387D01*
X165076613Y-86739511D01*
X165073296Y-86737596D01*
X164973887Y-86680201D01*
X164973884Y-86680200D01*
X164856207Y-86648668D01*
X164856391Y-86647980D01*
X164831278Y-86635596D01*
X163864403Y-85668721D01*
X163852023Y-85643607D01*
X163851332Y-85643793D01*
X163819799Y-85526115D01*
X163819798Y-85526112D01*
X163760856Y-85424023D01*
X163760489Y-85423387D01*
X163676613Y-85339511D01*
X163573887Y-85280201D01*
X163573884Y-85280200D01*
X163459312Y-85249500D01*
X163459309Y-85249500D01*
X163340691Y-85249500D01*
X163340688Y-85249500D01*
X163226115Y-85280200D01*
X163226112Y-85280201D01*
X163123386Y-85339511D01*
X163123386Y-85339512D01*
X163039512Y-85423386D01*
X163039511Y-85423386D01*
X162980201Y-85526112D01*
X162980200Y-85526115D01*
X162949500Y-85640688D01*
X162949500Y-85759311D01*
X162980200Y-85873884D01*
X162980201Y-85873887D01*
X163014667Y-85933582D01*
X163039511Y-85976613D01*
X163123387Y-86060489D01*
X163226114Y-86119799D01*
X163255189Y-86127589D01*
X163343793Y-86151332D01*
X163343607Y-86152023D01*
X163368721Y-86164403D01*
X164335596Y-87131278D01*
X164347980Y-87156391D01*
X164348668Y-87156207D01*
X164380200Y-87273884D01*
X164380201Y-87273888D01*
X164433996Y-87367061D01*
X164438891Y-87404243D01*
X164416061Y-87433996D01*
X164378879Y-87438891D01*
X164367061Y-87433996D01*
X164273888Y-87380201D01*
X164273884Y-87380200D01*
X164159312Y-87349500D01*
X164159309Y-87349500D01*
X164040691Y-87349500D01*
X164040688Y-87349500D01*
X163926115Y-87380200D01*
X163926112Y-87380201D01*
X163846434Y-87426204D01*
X163823387Y-87439511D01*
X163823386Y-87439511D01*
X163820606Y-87441117D01*
X163820249Y-87440499D01*
X163793737Y-87449500D01*
X161606263Y-87449500D01*
X161579750Y-87440499D01*
X161579394Y-87441117D01*
X161576613Y-87439511D01*
X161515528Y-87404243D01*
X161473887Y-87380201D01*
X161473884Y-87380200D01*
X161359312Y-87349500D01*
X161359309Y-87349500D01*
X161240691Y-87349500D01*
X161240688Y-87349500D01*
X161126115Y-87380200D01*
X161126112Y-87380201D01*
X161023386Y-87439511D01*
X161023386Y-87439512D01*
X160939512Y-87523386D01*
X160939511Y-87523386D01*
X160880201Y-87626112D01*
X160880200Y-87626115D01*
X160849500Y-87740688D01*
X151759712Y-87740688D01*
X151703465Y-87729500D01*
X151496535Y-87729500D01*
X151395520Y-87749592D01*
X151293582Y-87769869D01*
X151293576Y-87769871D01*
X151102403Y-87849058D01*
X150930345Y-87964022D01*
X150784022Y-88110345D01*
X150740242Y-88175868D01*
X150709059Y-88196703D01*
X150672277Y-88189387D01*
X150651442Y-88158204D01*
X150650500Y-88148645D01*
X150650500Y-86871354D01*
X150664852Y-86836706D01*
X150699500Y-86822354D01*
X150734148Y-86836706D01*
X150740239Y-86844128D01*
X150784023Y-86909655D01*
X150930345Y-87055977D01*
X151102402Y-87170941D01*
X151293580Y-87250130D01*
X151496535Y-87290500D01*
X151496538Y-87290500D01*
X151703462Y-87290500D01*
X151703465Y-87290500D01*
X151906420Y-87250130D01*
X152097598Y-87170941D01*
X152269655Y-87055977D01*
X152415977Y-86909655D01*
X152530941Y-86737598D01*
X152610130Y-86546420D01*
X152650500Y-86343465D01*
X152650500Y-86136535D01*
X152610130Y-85933580D01*
X152530941Y-85742402D01*
X152415977Y-85570345D01*
X152269655Y-85424023D01*
X152268703Y-85423387D01*
X152143173Y-85339511D01*
X152097598Y-85309059D01*
X152097596Y-85309058D01*
X151906423Y-85229871D01*
X151906417Y-85229869D01*
X151824572Y-85213589D01*
X151703465Y-85189500D01*
X151496535Y-85189500D01*
X151395520Y-85209592D01*
X151293582Y-85229869D01*
X151293576Y-85229871D01*
X151102403Y-85309058D01*
X150930345Y-85424022D01*
X150784022Y-85570345D01*
X150740242Y-85635868D01*
X150709059Y-85656703D01*
X150672277Y-85649387D01*
X150651442Y-85618204D01*
X150650500Y-85608645D01*
X150650500Y-84331354D01*
X150664852Y-84296706D01*
X150699500Y-84282354D01*
X150734148Y-84296706D01*
X150740239Y-84304128D01*
X150758431Y-84331354D01*
X150777898Y-84360489D01*
X150784023Y-84369655D01*
X150930345Y-84515977D01*
X151102402Y-84630941D01*
X151293580Y-84710130D01*
X151496535Y-84750500D01*
X151496538Y-84750500D01*
X151703462Y-84750500D01*
X151703465Y-84750500D01*
X151906420Y-84710130D01*
X152097598Y-84630941D01*
X152269655Y-84515977D01*
X152415977Y-84369655D01*
X152530941Y-84197598D01*
X152610130Y-84006420D01*
X152650500Y-83803465D01*
X152650500Y-83596535D01*
X152610130Y-83393580D01*
X152530941Y-83202402D01*
X152415977Y-83030345D01*
X152269655Y-82884023D01*
X152263933Y-82880200D01*
X152184207Y-82826929D01*
X152097598Y-82769059D01*
X151978675Y-82719799D01*
X151906423Y-82689871D01*
X151906417Y-82689869D01*
X151824572Y-82673589D01*
X151703465Y-82649500D01*
X151496535Y-82649500D01*
X151395520Y-82669592D01*
X151293582Y-82689869D01*
X151293576Y-82689871D01*
X151102403Y-82769058D01*
X150930345Y-82884022D01*
X150784022Y-83030345D01*
X150740242Y-83095868D01*
X150709059Y-83116703D01*
X150672277Y-83109387D01*
X150651442Y-83078204D01*
X150650500Y-83068645D01*
X150650500Y-81791354D01*
X150664852Y-81756706D01*
X150699500Y-81742354D01*
X150734148Y-81756706D01*
X150740239Y-81764128D01*
X150784023Y-81829655D01*
X150930345Y-81975977D01*
X151102402Y-82090941D01*
X151293580Y-82170130D01*
X151496535Y-82210500D01*
X151496538Y-82210500D01*
X151703462Y-82210500D01*
X151703465Y-82210500D01*
X151906420Y-82170130D01*
X152097598Y-82090941D01*
X152269655Y-81975977D01*
X152415977Y-81829655D01*
X152530941Y-81657598D01*
X152610130Y-81466420D01*
X152650500Y-81263465D01*
X152650500Y-81056535D01*
X152610130Y-80853580D01*
X152530941Y-80662402D01*
X152415977Y-80490345D01*
X152269655Y-80344023D01*
X152262902Y-80339511D01*
X152173617Y-80279853D01*
X152097598Y-80229059D01*
X152028651Y-80200500D01*
X151906423Y-80149871D01*
X151906417Y-80149869D01*
X151824572Y-80133589D01*
X151703465Y-80109500D01*
X151496535Y-80109500D01*
X151395565Y-80129584D01*
X151293582Y-80149869D01*
X151293576Y-80149871D01*
X151102403Y-80229058D01*
X150930345Y-80344022D01*
X150784022Y-80490345D01*
X150740242Y-80555868D01*
X150709059Y-80576703D01*
X150672277Y-80569387D01*
X150651442Y-80538204D01*
X150650500Y-80528645D01*
X150650500Y-76711354D01*
X150664852Y-76676706D01*
X150699500Y-76662354D01*
X150734148Y-76676706D01*
X150740239Y-76684128D01*
X150784023Y-76749655D01*
X150930345Y-76895977D01*
X151102402Y-77010941D01*
X151293580Y-77090130D01*
X151496535Y-77130500D01*
X151496538Y-77130500D01*
X151703462Y-77130500D01*
X151703465Y-77130500D01*
X151906420Y-77090130D01*
X152097598Y-77010941D01*
X152269655Y-76895977D01*
X152415977Y-76749655D01*
X152530941Y-76577598D01*
X152610130Y-76386420D01*
X152650500Y-76183465D01*
X152650500Y-75976535D01*
X152610130Y-75773580D01*
X152530941Y-75582402D01*
X152415977Y-75410345D01*
X152269655Y-75264023D01*
X152234731Y-75240688D01*
X152134754Y-75173886D01*
X152097598Y-75149059D01*
X152042207Y-75126115D01*
X151906423Y-75069871D01*
X151906417Y-75069869D01*
X151824572Y-75053589D01*
X151703465Y-75029500D01*
X151496535Y-75029500D01*
X151395520Y-75049592D01*
X151293582Y-75069869D01*
X151293576Y-75069871D01*
X151102403Y-75149058D01*
X150930345Y-75264022D01*
X150784022Y-75410345D01*
X150740242Y-75475868D01*
X150709059Y-75496703D01*
X150672277Y-75489387D01*
X150651442Y-75458204D01*
X150650500Y-75448645D01*
X150650500Y-74171354D01*
X150664852Y-74136706D01*
X150699500Y-74122354D01*
X150734148Y-74136706D01*
X150740239Y-74144128D01*
X150784023Y-74209655D01*
X150930345Y-74355977D01*
X151102402Y-74470941D01*
X151293580Y-74550130D01*
X151496535Y-74590500D01*
X151496538Y-74590500D01*
X151703462Y-74590500D01*
X151703465Y-74590500D01*
X151906420Y-74550130D01*
X152097598Y-74470941D01*
X152269655Y-74355977D01*
X152415977Y-74209655D01*
X152530941Y-74037598D01*
X152610130Y-73846420D01*
X152650500Y-73643465D01*
X152650500Y-73436535D01*
X152610130Y-73233580D01*
X152530941Y-73042402D01*
X152415977Y-72870345D01*
X152269655Y-72724023D01*
X152097598Y-72609059D01*
X152097596Y-72609058D01*
X151906423Y-72529871D01*
X151906417Y-72529869D01*
X151824572Y-72513589D01*
X151703465Y-72489500D01*
X151496535Y-72489500D01*
X151395520Y-72509592D01*
X151293582Y-72529869D01*
X151293576Y-72529871D01*
X151102403Y-72609058D01*
X150930345Y-72724022D01*
X150784022Y-72870345D01*
X150740242Y-72935868D01*
X150709059Y-72956703D01*
X150672277Y-72949387D01*
X150651442Y-72918204D01*
X150650500Y-72908645D01*
X150650500Y-71631354D01*
X150664852Y-71596706D01*
X150699500Y-71582354D01*
X150734148Y-71596706D01*
X150740239Y-71604128D01*
X150752044Y-71621794D01*
X150777898Y-71660489D01*
X150784023Y-71669655D01*
X150930345Y-71815977D01*
X151102402Y-71930941D01*
X151293580Y-72010130D01*
X151496535Y-72050500D01*
X151496538Y-72050500D01*
X151703462Y-72050500D01*
X151703465Y-72050500D01*
X151906420Y-72010130D01*
X152097598Y-71930941D01*
X152269655Y-71815977D01*
X152415977Y-71669655D01*
X152530941Y-71497598D01*
X152610130Y-71306420D01*
X152650500Y-71103465D01*
X152650500Y-70896535D01*
X152610130Y-70693580D01*
X152530941Y-70502402D01*
X152415977Y-70330345D01*
X152269655Y-70184023D01*
X152263933Y-70180200D01*
X152148809Y-70103277D01*
X152097598Y-70069059D01*
X152077761Y-70060842D01*
X151906423Y-69989871D01*
X151906417Y-69989869D01*
X151824572Y-69973589D01*
X151703465Y-69949500D01*
X151496535Y-69949500D01*
X151395520Y-69969592D01*
X151293582Y-69989869D01*
X151293576Y-69989871D01*
X151102403Y-70069058D01*
X150930345Y-70184022D01*
X150784022Y-70330345D01*
X150740242Y-70395868D01*
X150709059Y-70416703D01*
X150672277Y-70409387D01*
X150651442Y-70378204D01*
X150650500Y-70368645D01*
X150650500Y-69091354D01*
X150664852Y-69056706D01*
X150699500Y-69042354D01*
X150734148Y-69056706D01*
X150740239Y-69064128D01*
X150784023Y-69129655D01*
X150930345Y-69275977D01*
X151102402Y-69390941D01*
X151293580Y-69470130D01*
X151496535Y-69510500D01*
X151496538Y-69510500D01*
X151703462Y-69510500D01*
X151703465Y-69510500D01*
X151906420Y-69470130D01*
X152097598Y-69390941D01*
X152269655Y-69275977D01*
X152415977Y-69129655D01*
X152530941Y-68957598D01*
X152610130Y-68766420D01*
X152650500Y-68563465D01*
X152650500Y-68356535D01*
X152610130Y-68153580D01*
X152530941Y-67962402D01*
X152415977Y-67790345D01*
X152269655Y-67644023D01*
X152097598Y-67529059D01*
X152097596Y-67529058D01*
X151906423Y-67449871D01*
X151906417Y-67449869D01*
X151824572Y-67433589D01*
X151703465Y-67409500D01*
X151496535Y-67409500D01*
X151395520Y-67429592D01*
X151293582Y-67449869D01*
X151293576Y-67449871D01*
X151102403Y-67529058D01*
X150930345Y-67644022D01*
X150784022Y-67790345D01*
X150740242Y-67855868D01*
X150709059Y-67876703D01*
X150672277Y-67869387D01*
X150651442Y-67838204D01*
X150650500Y-67828645D01*
X150650500Y-64011354D01*
X150664852Y-63976706D01*
X150699500Y-63962354D01*
X150734148Y-63976706D01*
X150740239Y-63984128D01*
X150784023Y-64049655D01*
X150930345Y-64195977D01*
X151102402Y-64310941D01*
X151293580Y-64390130D01*
X151496535Y-64430500D01*
X151496538Y-64430500D01*
X151703462Y-64430500D01*
X151703465Y-64430500D01*
X151906420Y-64390130D01*
X152097598Y-64310941D01*
X152269655Y-64195977D01*
X152415977Y-64049655D01*
X152530941Y-63877598D01*
X152610130Y-63686420D01*
X152650500Y-63483465D01*
X152650500Y-63276535D01*
X152610130Y-63073580D01*
X152530941Y-62882402D01*
X152415977Y-62710345D01*
X152269655Y-62564023D01*
X152208838Y-62523387D01*
X152164462Y-62493736D01*
X152097598Y-62449059D01*
X152097596Y-62449058D01*
X151906423Y-62369871D01*
X151906417Y-62369869D01*
X151824572Y-62353589D01*
X151703465Y-62329500D01*
X151496535Y-62329500D01*
X151417696Y-62345182D01*
X151293582Y-62369869D01*
X151293576Y-62369871D01*
X151102403Y-62449058D01*
X150930345Y-62564022D01*
X150784022Y-62710345D01*
X150740242Y-62775868D01*
X150709059Y-62796703D01*
X150672277Y-62789387D01*
X150651442Y-62758204D01*
X150650500Y-62748645D01*
X150650500Y-61471354D01*
X150664852Y-61436706D01*
X150699500Y-61422354D01*
X150734148Y-61436706D01*
X150740239Y-61444128D01*
X150784023Y-61509655D01*
X150930345Y-61655977D01*
X151102402Y-61770941D01*
X151293580Y-61850130D01*
X151496535Y-61890500D01*
X151496538Y-61890500D01*
X151703462Y-61890500D01*
X151703465Y-61890500D01*
X151906420Y-61850130D01*
X152097598Y-61770941D01*
X152269655Y-61655977D01*
X152415977Y-61509655D01*
X152530941Y-61337598D01*
X152610130Y-61146420D01*
X152650500Y-60943465D01*
X152650500Y-60736535D01*
X152610130Y-60533580D01*
X152530941Y-60342402D01*
X152415977Y-60170345D01*
X152269655Y-60024023D01*
X152097598Y-59909059D01*
X152097596Y-59909058D01*
X151906423Y-59829871D01*
X151906417Y-59829869D01*
X151824572Y-59813589D01*
X151703465Y-59789500D01*
X151496535Y-59789500D01*
X151395520Y-59809592D01*
X151293582Y-59829869D01*
X151293576Y-59829871D01*
X151102403Y-59909058D01*
X150930345Y-60024022D01*
X150784022Y-60170345D01*
X150740242Y-60235868D01*
X150709059Y-60256703D01*
X150672277Y-60249387D01*
X150651442Y-60218204D01*
X150650500Y-60208645D01*
X150650500Y-58931354D01*
X150664852Y-58896706D01*
X150699500Y-58882354D01*
X150734148Y-58896706D01*
X150740239Y-58904128D01*
X150784023Y-58969655D01*
X150930345Y-59115977D01*
X151102402Y-59230941D01*
X151293580Y-59310130D01*
X151496535Y-59350500D01*
X151496538Y-59350500D01*
X151703462Y-59350500D01*
X151703465Y-59350500D01*
X151906420Y-59310130D01*
X152097598Y-59230941D01*
X152269655Y-59115977D01*
X152415977Y-58969655D01*
X152530941Y-58797598D01*
X152610130Y-58606420D01*
X152650500Y-58403465D01*
X152650500Y-58196535D01*
X152610130Y-57993580D01*
X152561728Y-57876729D01*
X152561728Y-57839227D01*
X152572347Y-57823333D01*
X154430830Y-55964852D01*
X154465478Y-55950500D01*
X155493737Y-55950500D01*
X155520249Y-55959500D01*
X155520606Y-55958883D01*
X155523386Y-55960488D01*
X155523387Y-55960489D01*
X155626114Y-56019799D01*
X155654758Y-56027474D01*
X155740688Y-56050500D01*
X155740691Y-56050500D01*
X155859311Y-56050500D01*
X155916597Y-56035149D01*
X155973886Y-56019799D01*
X156076613Y-55960489D01*
X156076613Y-55960488D01*
X156079394Y-55958883D01*
X156079750Y-55959500D01*
X156106263Y-55950500D01*
X156734522Y-55950500D01*
X156769170Y-55964852D01*
X158235595Y-57431276D01*
X158248377Y-57453620D01*
X158249500Y-57457948D01*
X158249500Y-57459309D01*
X158260575Y-57500642D01*
X158260645Y-57500911D01*
X158258072Y-57519313D01*
X158255650Y-57537715D01*
X158255482Y-57537843D01*
X158255453Y-57538053D01*
X158240613Y-57549252D01*
X158225897Y-57560545D01*
X158225651Y-57560545D01*
X158225519Y-57560645D01*
X158224804Y-57560545D01*
X158200533Y-57560545D01*
X158159312Y-57549500D01*
X158159309Y-57549500D01*
X158040691Y-57549500D01*
X158040688Y-57549500D01*
X157926115Y-57580200D01*
X157926112Y-57580201D01*
X157823386Y-57639511D01*
X157823386Y-57639512D01*
X157739512Y-57723386D01*
X157739511Y-57723386D01*
X157680201Y-57826112D01*
X157680200Y-57826115D01*
X157648668Y-57943793D01*
X157647980Y-57943608D01*
X157635596Y-57968721D01*
X157419532Y-58184785D01*
X157419527Y-58184791D01*
X157401966Y-58215211D01*
X157401965Y-58215212D01*
X157373386Y-58264710D01*
X157373385Y-58264713D01*
X157349500Y-58353853D01*
X157349500Y-59593736D01*
X157340501Y-59620250D01*
X157341117Y-59620606D01*
X157280201Y-59726112D01*
X157280200Y-59726115D01*
X157249500Y-59840688D01*
X157249500Y-59959311D01*
X157280200Y-60073884D01*
X157280201Y-60073887D01*
X157306952Y-60120220D01*
X157339511Y-60176613D01*
X157423387Y-60260489D01*
X157526114Y-60319799D01*
X157539501Y-60323386D01*
X157640688Y-60350500D01*
X157640691Y-60350500D01*
X157759311Y-60350500D01*
X157816597Y-60335149D01*
X157873886Y-60319799D01*
X157976613Y-60260489D01*
X158060489Y-60176613D01*
X158119799Y-60073886D01*
X158135149Y-60016597D01*
X158150500Y-59959311D01*
X158150500Y-59840688D01*
X158119799Y-59726115D01*
X158119798Y-59726112D01*
X158058883Y-59620606D01*
X158059498Y-59620250D01*
X158050500Y-59593736D01*
X158050500Y-58565477D01*
X158064852Y-58530829D01*
X158131280Y-58464401D01*
X158156392Y-58452023D01*
X158156207Y-58451332D01*
X158227256Y-58432293D01*
X158273886Y-58419799D01*
X158376613Y-58360489D01*
X158460489Y-58276613D01*
X158519799Y-58173886D01*
X158535149Y-58116597D01*
X158550500Y-58059311D01*
X158550500Y-57940689D01*
X158539454Y-57899467D01*
X158544348Y-57862285D01*
X158574101Y-57839454D01*
X158599467Y-57839454D01*
X158640689Y-57850500D01*
X158640691Y-57850500D01*
X158759311Y-57850500D01*
X158816597Y-57835149D01*
X158873886Y-57819799D01*
X158976613Y-57760489D01*
X159060489Y-57676613D01*
X159119799Y-57573886D01*
X159145863Y-57476614D01*
X159150500Y-57459311D01*
X159150500Y-57340688D01*
X159119799Y-57226115D01*
X159119798Y-57226112D01*
X159103905Y-57198585D01*
X159060489Y-57123387D01*
X158976613Y-57039511D01*
X158953409Y-57026114D01*
X158873887Y-56980201D01*
X158873884Y-56980200D01*
X158756207Y-56948668D01*
X158756390Y-56947983D01*
X158731276Y-56935595D01*
X157115212Y-55319530D01*
X157035290Y-55273386D01*
X157035286Y-55273385D01*
X156946147Y-55249500D01*
X156946144Y-55249500D01*
X156106263Y-55249500D01*
X156079750Y-55240499D01*
X156079394Y-55241117D01*
X156076613Y-55239511D01*
X156037895Y-55217157D01*
X155973887Y-55180201D01*
X155973884Y-55180200D01*
X155859312Y-55149500D01*
X155859309Y-55149500D01*
X155740691Y-55149500D01*
X155740688Y-55149500D01*
X155626115Y-55180200D01*
X155626112Y-55180201D01*
X155546595Y-55226112D01*
X155523387Y-55239511D01*
X155523386Y-55239511D01*
X155520606Y-55241117D01*
X155520249Y-55240499D01*
X155493737Y-55249500D01*
X154253854Y-55249500D01*
X154221755Y-55258101D01*
X154205705Y-55262402D01*
X154164712Y-55273385D01*
X154164709Y-55273386D01*
X154084787Y-55319530D01*
X154084786Y-55319531D01*
X152076668Y-57327648D01*
X152042020Y-57342000D01*
X152023269Y-57338270D01*
X151906427Y-57289872D01*
X151906417Y-57289869D01*
X151824572Y-57273589D01*
X151703465Y-57249500D01*
X151496535Y-57249500D01*
X151395520Y-57269592D01*
X151293582Y-57289869D01*
X151293576Y-57289871D01*
X151102403Y-57369058D01*
X150930345Y-57484022D01*
X150784022Y-57630345D01*
X150740242Y-57695868D01*
X150709059Y-57716703D01*
X150672277Y-57709387D01*
X150651442Y-57678204D01*
X150650500Y-57668645D01*
X150650500Y-56391354D01*
X150664852Y-56356706D01*
X150699500Y-56342354D01*
X150734148Y-56356706D01*
X150740239Y-56364128D01*
X150784023Y-56429655D01*
X150930345Y-56575977D01*
X151102402Y-56690941D01*
X151293580Y-56770130D01*
X151496535Y-56810500D01*
X151496538Y-56810500D01*
X151703462Y-56810500D01*
X151703465Y-56810500D01*
X151906420Y-56770130D01*
X152097598Y-56690941D01*
X152269655Y-56575977D01*
X152415977Y-56429655D01*
X152530941Y-56257598D01*
X152610130Y-56066420D01*
X152650500Y-55863465D01*
X152650500Y-55656535D01*
X152610130Y-55453580D01*
X152530941Y-55262402D01*
X152415977Y-55090345D01*
X152269655Y-54944023D01*
X152097598Y-54829059D01*
X151944101Y-54765478D01*
X151906423Y-54749871D01*
X151906417Y-54749869D01*
X151824572Y-54733589D01*
X151703465Y-54709500D01*
X151496535Y-54709500D01*
X151395520Y-54729592D01*
X151293582Y-54749869D01*
X151293576Y-54749871D01*
X151102403Y-54829058D01*
X150930345Y-54944022D01*
X150784022Y-55090345D01*
X150740242Y-55155868D01*
X150709059Y-55176703D01*
X150672277Y-55169387D01*
X150651442Y-55138204D01*
X150650500Y-55128645D01*
X150650500Y-53053853D01*
X157749500Y-53053853D01*
X157749500Y-53746145D01*
X157754513Y-53764851D01*
X157763245Y-53797440D01*
X157773386Y-53835288D01*
X157773387Y-53835291D01*
X157819530Y-53915212D01*
X158635148Y-54730830D01*
X158649500Y-54765478D01*
X158649500Y-55293736D01*
X158640501Y-55320250D01*
X158641117Y-55320606D01*
X158639511Y-55323386D01*
X158639511Y-55323387D01*
X158626204Y-55346434D01*
X158580201Y-55426112D01*
X158580200Y-55426115D01*
X158549500Y-55540688D01*
X158549500Y-55659311D01*
X158580200Y-55773884D01*
X158580201Y-55773887D01*
X158631918Y-55863461D01*
X158639511Y-55876613D01*
X158723387Y-55960489D01*
X158826114Y-56019799D01*
X158855189Y-56027589D01*
X158943793Y-56051332D01*
X158943607Y-56052023D01*
X158968721Y-56064403D01*
X162135596Y-59231278D01*
X162147980Y-59256391D01*
X162148668Y-59256207D01*
X162180200Y-59373884D01*
X162180201Y-59373887D01*
X162239511Y-59476613D01*
X162323387Y-59560489D01*
X162426114Y-59619799D01*
X162439505Y-59623387D01*
X162540688Y-59650500D01*
X162540691Y-59650500D01*
X162659311Y-59650500D01*
X162716597Y-59635149D01*
X162773886Y-59619799D01*
X162876613Y-59560489D01*
X162960489Y-59476613D01*
X163019799Y-59373886D01*
X163035149Y-59316597D01*
X163050500Y-59259311D01*
X163050500Y-59140688D01*
X163019799Y-59026115D01*
X163019798Y-59026112D01*
X162987202Y-58969655D01*
X162960489Y-58923387D01*
X162876613Y-58839511D01*
X162773887Y-58780201D01*
X162773884Y-58780200D01*
X162656207Y-58748668D01*
X162656391Y-58747980D01*
X162631278Y-58735596D01*
X159464403Y-55568721D01*
X159451671Y-55546567D01*
X159450500Y-55542126D01*
X159450500Y-55540691D01*
X159426627Y-55451597D01*
X159426585Y-55451437D01*
X159429103Y-55432872D01*
X159431530Y-55414443D01*
X159431612Y-55414379D01*
X159431627Y-55414275D01*
X159446494Y-55402960D01*
X159461283Y-55391613D01*
X159461387Y-55391626D01*
X159461471Y-55391563D01*
X159480035Y-55394081D01*
X159498465Y-55396508D01*
X159498582Y-55396598D01*
X159498633Y-55396605D01*
X159498691Y-55396681D01*
X159508613Y-55404295D01*
X161478367Y-57374049D01*
X161486154Y-57384197D01*
X161539511Y-57476613D01*
X161623387Y-57560489D01*
X161726114Y-57619799D01*
X161754758Y-57627474D01*
X161840688Y-57650500D01*
X161840691Y-57650500D01*
X161959311Y-57650500D01*
X162016597Y-57635149D01*
X162073886Y-57619799D01*
X162176613Y-57560489D01*
X162260489Y-57476613D01*
X162319799Y-57373886D01*
X162342311Y-57289870D01*
X162350500Y-57259311D01*
X162350500Y-57140688D01*
X162319799Y-57026115D01*
X162319798Y-57026112D01*
X162275085Y-56948668D01*
X162260489Y-56923387D01*
X162176613Y-56839511D01*
X162126365Y-56810500D01*
X162073887Y-56780201D01*
X162073884Y-56780200D01*
X161959312Y-56749500D01*
X161959309Y-56749500D01*
X161865478Y-56749500D01*
X161830830Y-56735148D01*
X161029830Y-55934148D01*
X161015478Y-55899500D01*
X161029830Y-55864852D01*
X161064478Y-55850500D01*
X161546146Y-55850500D01*
X161590716Y-55838557D01*
X161635288Y-55826614D01*
X161647092Y-55819799D01*
X161662102Y-55811132D01*
X161699282Y-55806236D01*
X161711102Y-55811132D01*
X161711104Y-55811133D01*
X161726114Y-55819799D01*
X161751548Y-55826614D01*
X161840688Y-55850500D01*
X161840691Y-55850500D01*
X161959311Y-55850500D01*
X162016597Y-55835149D01*
X162073886Y-55819799D01*
X162176613Y-55760489D01*
X162260489Y-55676613D01*
X162319799Y-55573886D01*
X162346728Y-55473386D01*
X162350500Y-55459311D01*
X162350500Y-55340688D01*
X162319799Y-55226115D01*
X162319798Y-55226112D01*
X162279242Y-55155868D01*
X162260489Y-55123387D01*
X162176613Y-55039511D01*
X162073887Y-54980201D01*
X162073884Y-54980200D01*
X161959312Y-54949500D01*
X161959309Y-54949500D01*
X161861014Y-54949500D01*
X161826366Y-54935148D01*
X161812014Y-54900500D01*
X161818578Y-54876001D01*
X161819799Y-54873886D01*
X161848847Y-54765478D01*
X161850500Y-54759311D01*
X161850500Y-54640688D01*
X161819799Y-54526115D01*
X161819798Y-54526112D01*
X161758883Y-54420606D01*
X161759498Y-54420250D01*
X161750500Y-54393736D01*
X161750500Y-53409206D01*
X161752440Y-53372342D01*
X161750500Y-53363204D01*
X161750500Y-53353856D01*
X161741266Y-53319397D01*
X161740679Y-53316950D01*
X161733273Y-53282066D01*
X161731368Y-53278325D01*
X161727702Y-53268774D01*
X161726614Y-53264712D01*
X161708148Y-53232728D01*
X161691393Y-53199827D01*
X161685141Y-53192880D01*
X161680469Y-53184788D01*
X161655283Y-53159602D01*
X161653510Y-53157733D01*
X161629656Y-53131228D01*
X161626127Y-53128935D01*
X161626127Y-53128936D01*
X161621816Y-53126135D01*
X161615212Y-53119531D01*
X161583238Y-53101070D01*
X161582150Y-53100363D01*
X161582149Y-53100361D01*
X161552270Y-53080949D01*
X161552271Y-53080949D01*
X161548264Y-53079646D01*
X161538924Y-53075485D01*
X161535292Y-53073388D01*
X161535283Y-53073384D01*
X161500857Y-53064160D01*
X161499614Y-53063827D01*
X161464502Y-53052410D01*
X161455171Y-53051918D01*
X161450208Y-53050588D01*
X161450206Y-53050588D01*
X161446144Y-53049500D01*
X161446143Y-53049500D01*
X161409206Y-53049500D01*
X161372342Y-53047560D01*
X161363205Y-53049500D01*
X160410489Y-53049500D01*
X160407914Y-53049432D01*
X160372341Y-53047559D01*
X160368234Y-53048432D01*
X160358058Y-53049500D01*
X160353853Y-53049500D01*
X160319440Y-53058721D01*
X160316935Y-53059322D01*
X160282068Y-53066725D01*
X160282067Y-53066725D01*
X160278319Y-53068634D01*
X160278318Y-53068633D01*
X160273731Y-53070968D01*
X160264712Y-53073386D01*
X160232761Y-53091832D01*
X160231627Y-53092410D01*
X160231597Y-53092427D01*
X160199824Y-53108607D01*
X160196700Y-53111418D01*
X160196701Y-53111419D01*
X160192878Y-53114860D01*
X160184788Y-53119531D01*
X160158686Y-53145631D01*
X160157717Y-53146504D01*
X160131465Y-53170130D01*
X160096110Y-53182640D01*
X160064038Y-53168356D01*
X159315212Y-52419530D01*
X159235290Y-52373386D01*
X159235286Y-52373385D01*
X159146147Y-52349500D01*
X159146144Y-52349500D01*
X158453856Y-52349500D01*
X158453853Y-52349500D01*
X158364713Y-52373385D01*
X158364710Y-52373386D01*
X158284794Y-52419527D01*
X158284784Y-52419534D01*
X157819532Y-52884785D01*
X157819527Y-52884791D01*
X157801966Y-52915211D01*
X157801965Y-52915212D01*
X157773386Y-52964710D01*
X157773385Y-52964713D01*
X157749500Y-53053853D01*
X150650500Y-53053853D01*
X150650500Y-51940423D01*
X157257500Y-51940423D01*
X157257500Y-52059576D01*
X157288336Y-52174657D01*
X157288337Y-52174661D01*
X157332124Y-52250500D01*
X157347910Y-52277842D01*
X157432158Y-52362090D01*
X157469923Y-52383894D01*
X157535338Y-52421662D01*
X157535340Y-52421662D01*
X157535341Y-52421663D01*
X157626105Y-52445983D01*
X157650423Y-52452499D01*
X157650424Y-52452500D01*
X157650427Y-52452500D01*
X157769576Y-52452500D01*
X157769576Y-52452499D01*
X157884659Y-52421663D01*
X157888354Y-52419530D01*
X157898485Y-52413680D01*
X157987842Y-52362090D01*
X158072090Y-52277842D01*
X158131663Y-52174659D01*
X158162499Y-52059576D01*
X158162500Y-52059576D01*
X158162500Y-51940424D01*
X158162499Y-51940423D01*
X158140765Y-51859311D01*
X158131663Y-51825341D01*
X158131662Y-51825340D01*
X158131662Y-51825338D01*
X158095083Y-51761983D01*
X158095081Y-51761980D01*
X158082788Y-51740688D01*
X160399500Y-51740688D01*
X160399500Y-51859311D01*
X160430200Y-51973884D01*
X160430201Y-51973887D01*
X160489511Y-52076613D01*
X160573387Y-52160489D01*
X160676114Y-52219799D01*
X160704758Y-52227474D01*
X160790688Y-52250500D01*
X160790691Y-52250500D01*
X160909311Y-52250500D01*
X160966597Y-52235149D01*
X161023886Y-52219799D01*
X161126613Y-52160489D01*
X161210489Y-52076613D01*
X161269799Y-51973886D01*
X161285149Y-51916597D01*
X161300500Y-51859311D01*
X161300500Y-51740688D01*
X161269799Y-51626115D01*
X161269798Y-51626112D01*
X161242214Y-51578336D01*
X161210489Y-51523387D01*
X161126613Y-51439511D01*
X161057798Y-51399780D01*
X161023887Y-51380201D01*
X161023884Y-51380200D01*
X160909312Y-51349500D01*
X160909309Y-51349500D01*
X160790691Y-51349500D01*
X160790688Y-51349500D01*
X160676115Y-51380200D01*
X160676112Y-51380201D01*
X160573386Y-51439511D01*
X160573386Y-51439512D01*
X160489512Y-51523386D01*
X160489511Y-51523386D01*
X160430201Y-51626112D01*
X160430200Y-51626115D01*
X160399500Y-51740688D01*
X158082788Y-51740688D01*
X158072090Y-51722158D01*
X157987842Y-51637910D01*
X157967411Y-51626114D01*
X157884661Y-51578337D01*
X157884657Y-51578336D01*
X157769576Y-51547500D01*
X157769573Y-51547500D01*
X157650427Y-51547500D01*
X157650424Y-51547500D01*
X157535342Y-51578336D01*
X157535338Y-51578337D01*
X157432157Y-51637910D01*
X157432157Y-51637911D01*
X157347911Y-51722157D01*
X157347910Y-51722157D01*
X157288337Y-51825338D01*
X157288336Y-51825342D01*
X157257500Y-51940423D01*
X150650500Y-51940423D01*
X150650500Y-51311354D01*
X150664852Y-51276706D01*
X150699500Y-51262354D01*
X150734148Y-51276706D01*
X150740239Y-51284128D01*
X150784023Y-51349655D01*
X150930345Y-51495977D01*
X151102402Y-51610941D01*
X151293580Y-51690130D01*
X151496535Y-51730500D01*
X151496538Y-51730500D01*
X151703462Y-51730500D01*
X151703465Y-51730500D01*
X151906420Y-51690130D01*
X152097598Y-51610941D01*
X152269655Y-51495977D01*
X152415977Y-51349655D01*
X152530941Y-51177598D01*
X152610130Y-50986420D01*
X152650500Y-50783465D01*
X152650500Y-50576535D01*
X152610130Y-50373580D01*
X152555084Y-50240688D01*
X161349500Y-50240688D01*
X161349500Y-50359311D01*
X161380200Y-50473884D01*
X161380201Y-50473887D01*
X161441117Y-50579394D01*
X161440499Y-50579750D01*
X161449500Y-50606263D01*
X161449500Y-51579557D01*
X161442935Y-51604057D01*
X161430201Y-51626111D01*
X161430200Y-51626115D01*
X161399500Y-51740688D01*
X161399500Y-51859311D01*
X161430200Y-51973884D01*
X161430201Y-51973887D01*
X161489511Y-52076613D01*
X161573387Y-52160489D01*
X161676114Y-52219799D01*
X161704758Y-52227474D01*
X161790688Y-52250500D01*
X161790691Y-52250500D01*
X161909311Y-52250500D01*
X161966597Y-52235149D01*
X162023886Y-52219799D01*
X162126613Y-52160489D01*
X162210489Y-52076613D01*
X162269799Y-51973886D01*
X162278765Y-51940423D01*
X163037500Y-51940423D01*
X163037500Y-52059576D01*
X163068336Y-52174657D01*
X163068337Y-52174661D01*
X163112124Y-52250500D01*
X163127910Y-52277842D01*
X163212158Y-52362090D01*
X163249923Y-52383894D01*
X163315338Y-52421662D01*
X163315340Y-52421662D01*
X163315341Y-52421663D01*
X163406105Y-52445983D01*
X163430423Y-52452499D01*
X163430424Y-52452500D01*
X163430427Y-52452500D01*
X163549576Y-52452500D01*
X163549576Y-52452499D01*
X163664659Y-52421663D01*
X163668354Y-52419530D01*
X163678485Y-52413680D01*
X163767842Y-52362090D01*
X163852090Y-52277842D01*
X163911663Y-52174659D01*
X163942499Y-52059576D01*
X163942500Y-52059576D01*
X163942500Y-51940424D01*
X163942499Y-51940423D01*
X163920765Y-51859311D01*
X163911663Y-51825341D01*
X163911662Y-51825340D01*
X163911662Y-51825338D01*
X163852089Y-51722157D01*
X163767842Y-51637910D01*
X163664661Y-51578337D01*
X163664657Y-51578336D01*
X163549576Y-51547500D01*
X163549573Y-51547500D01*
X163430427Y-51547500D01*
X163430424Y-51547500D01*
X163315342Y-51578336D01*
X163315338Y-51578337D01*
X163212157Y-51637910D01*
X163212157Y-51637911D01*
X163127911Y-51722157D01*
X163127910Y-51722157D01*
X163068337Y-51825338D01*
X163068336Y-51825342D01*
X163037500Y-51940423D01*
X162278765Y-51940423D01*
X162283024Y-51924532D01*
X162283024Y-51924531D01*
X162300499Y-51859312D01*
X162300500Y-51859312D01*
X162300500Y-51740688D01*
X162269799Y-51626115D01*
X162269798Y-51626112D01*
X162242214Y-51578336D01*
X162210489Y-51523387D01*
X162164852Y-51477750D01*
X162150500Y-51443102D01*
X162150500Y-50606263D01*
X162159500Y-50579750D01*
X162158883Y-50579394D01*
X162219798Y-50473887D01*
X162219799Y-50473886D01*
X162246676Y-50373580D01*
X162250500Y-50359311D01*
X162250500Y-50240688D01*
X162219799Y-50126115D01*
X162219798Y-50126112D01*
X162190789Y-50075868D01*
X162160489Y-50023387D01*
X162076613Y-49939511D01*
X162052470Y-49925572D01*
X161973887Y-49880201D01*
X161973884Y-49880200D01*
X161859312Y-49849500D01*
X161859309Y-49849500D01*
X161740691Y-49849500D01*
X161740688Y-49849500D01*
X161626115Y-49880200D01*
X161626112Y-49880201D01*
X161523386Y-49939511D01*
X161523386Y-49939512D01*
X161439512Y-50023386D01*
X161439511Y-50023386D01*
X161380201Y-50126112D01*
X161380200Y-50126115D01*
X161349500Y-50240688D01*
X152555084Y-50240688D01*
X152530941Y-50182402D01*
X152415977Y-50010345D01*
X152269655Y-49864023D01*
X152097598Y-49749059D01*
X152097596Y-49749058D01*
X151906423Y-49669871D01*
X151906417Y-49669869D01*
X151824572Y-49653589D01*
X151703465Y-49629500D01*
X151496535Y-49629500D01*
X151395520Y-49649592D01*
X151293582Y-49669869D01*
X151293576Y-49669871D01*
X151102403Y-49749058D01*
X150930345Y-49864022D01*
X150784022Y-50010345D01*
X150740242Y-50075868D01*
X150709059Y-50096703D01*
X150672277Y-50089387D01*
X150651442Y-50058204D01*
X150650500Y-50048645D01*
X150650500Y-49234342D01*
X150664852Y-49199694D01*
X150699500Y-49185342D01*
X150709052Y-49186283D01*
X150730252Y-49190500D01*
X150730253Y-49190500D01*
X152469745Y-49190500D01*
X152469748Y-49190500D01*
X152528231Y-49178867D01*
X152594552Y-49134552D01*
X152638867Y-49068231D01*
X152650500Y-49009748D01*
X152650500Y-47299500D01*
X152664852Y-47264852D01*
X152699500Y-47250500D01*
X168700500Y-47250500D01*
X168735148Y-47264852D01*
G37*
%TD.AperFunction*%
%TA.AperFunction,Conductor*%
G36*
X166030333Y-69466088D02*
G01*
X166049081Y-69498568D01*
X166049500Y-69504960D01*
X166049500Y-73234522D01*
X166035148Y-73269170D01*
X165468721Y-73835596D01*
X165443608Y-73847980D01*
X165443793Y-73848668D01*
X165326115Y-73880200D01*
X165326112Y-73880201D01*
X165223386Y-73939511D01*
X165223386Y-73939512D01*
X165139512Y-74023386D01*
X165139511Y-74023386D01*
X165080201Y-74126112D01*
X165080200Y-74126115D01*
X165049500Y-74240688D01*
X165049500Y-74359311D01*
X165080200Y-74473884D01*
X165080201Y-74473887D01*
X165120254Y-74543260D01*
X165139511Y-74576613D01*
X165223387Y-74660489D01*
X165326114Y-74719799D01*
X165339501Y-74723386D01*
X165440688Y-74750500D01*
X165440691Y-74750500D01*
X165559311Y-74750500D01*
X165616597Y-74735149D01*
X165673886Y-74719799D01*
X165776613Y-74660489D01*
X165860489Y-74576613D01*
X165919799Y-74473886D01*
X165944830Y-74380470D01*
X165951332Y-74356207D01*
X165952023Y-74356392D01*
X165964402Y-74331279D01*
X166165352Y-74130330D01*
X166200000Y-74115978D01*
X166234648Y-74130330D01*
X166435596Y-74331278D01*
X166447980Y-74356391D01*
X166448668Y-74356207D01*
X166480200Y-74473884D01*
X166480201Y-74473887D01*
X166520254Y-74543260D01*
X166539511Y-74576613D01*
X166623387Y-74660489D01*
X166726114Y-74719799D01*
X166739501Y-74723386D01*
X166840688Y-74750500D01*
X166840691Y-74750500D01*
X166959311Y-74750500D01*
X167016597Y-74735149D01*
X167073886Y-74719799D01*
X167176613Y-74660489D01*
X167260489Y-74576613D01*
X167319799Y-74473886D01*
X167344830Y-74380469D01*
X167350500Y-74359311D01*
X167350500Y-74240688D01*
X167322637Y-74136706D01*
X167319799Y-74126114D01*
X167260489Y-74023387D01*
X167176613Y-73939511D01*
X167170116Y-73935760D01*
X167073887Y-73880201D01*
X167073884Y-73880200D01*
X166956207Y-73848668D01*
X166956391Y-73847980D01*
X166931278Y-73835596D01*
X166718192Y-73622510D01*
X166703840Y-73587862D01*
X166707371Y-73569599D01*
X166708667Y-73566370D01*
X166726614Y-73535288D01*
X166736796Y-73497288D01*
X166750500Y-73446144D01*
X166750500Y-70103277D01*
X166764852Y-70068629D01*
X166799500Y-70054277D01*
X166823996Y-70060840D01*
X166926114Y-70119799D01*
X166939490Y-70123383D01*
X167043793Y-70151332D01*
X167043607Y-70152023D01*
X167068721Y-70164403D01*
X168135148Y-71230830D01*
X168149500Y-71265478D01*
X168149500Y-79634521D01*
X168135148Y-79669169D01*
X166334148Y-81470169D01*
X166299500Y-81484521D01*
X166264852Y-81470169D01*
X166250500Y-81435521D01*
X166250500Y-81340688D01*
X166223704Y-81240688D01*
X166219799Y-81226114D01*
X166212514Y-81213497D01*
X166207619Y-81176317D01*
X166230449Y-81146563D01*
X166242263Y-81141669D01*
X166323886Y-81119799D01*
X166426613Y-81060489D01*
X166510489Y-80976613D01*
X166569799Y-80873886D01*
X166594902Y-80780201D01*
X166600500Y-80759311D01*
X166600500Y-80640688D01*
X166573605Y-80540318D01*
X166569799Y-80526114D01*
X166510489Y-80423387D01*
X166426613Y-80339511D01*
X166323887Y-80280201D01*
X166323884Y-80280200D01*
X166209312Y-80249500D01*
X166209309Y-80249500D01*
X166190191Y-80249500D01*
X166155543Y-80235148D01*
X166141191Y-80200500D01*
X166142861Y-80187817D01*
X166150500Y-80159310D01*
X166150500Y-80040688D01*
X166122257Y-79935287D01*
X166119799Y-79926114D01*
X166060489Y-79823387D01*
X165976613Y-79739511D01*
X165969832Y-79735596D01*
X165873887Y-79680201D01*
X165873884Y-79680200D01*
X165759312Y-79649500D01*
X165759309Y-79649500D01*
X165640691Y-79649500D01*
X165640688Y-79649500D01*
X165526115Y-79680200D01*
X165526113Y-79680200D01*
X165523999Y-79681422D01*
X165486817Y-79686316D01*
X165457064Y-79663485D01*
X165450500Y-79638986D01*
X165450500Y-79590688D01*
X165419799Y-79476115D01*
X165419798Y-79476112D01*
X165360488Y-79373386D01*
X165276613Y-79289511D01*
X165173888Y-79230201D01*
X165173882Y-79230199D01*
X165120994Y-79216028D01*
X165099028Y-79203346D01*
X164904295Y-79008613D01*
X164889943Y-78973965D01*
X164904295Y-78939317D01*
X164938943Y-78924965D01*
X164951625Y-78926635D01*
X165040688Y-78950500D01*
X165040691Y-78950500D01*
X165159311Y-78950500D01*
X165216597Y-78935149D01*
X165273886Y-78919799D01*
X165376613Y-78860489D01*
X165460489Y-78776613D01*
X165519799Y-78673886D01*
X165535149Y-78616597D01*
X165550500Y-78559311D01*
X165550500Y-78440688D01*
X165519799Y-78326115D01*
X165519798Y-78326112D01*
X165460488Y-78223386D01*
X165376613Y-78139511D01*
X165273887Y-78080201D01*
X165273884Y-78080200D01*
X165159312Y-78049500D01*
X165159309Y-78049500D01*
X165040691Y-78049500D01*
X165040688Y-78049500D01*
X164926115Y-78080200D01*
X164926112Y-78080201D01*
X164846434Y-78126204D01*
X164823387Y-78139511D01*
X164823386Y-78139511D01*
X164820606Y-78141117D01*
X164820249Y-78140499D01*
X164793737Y-78149500D01*
X164264478Y-78149500D01*
X164229830Y-78135148D01*
X164215478Y-78100500D01*
X164229830Y-78065852D01*
X164280469Y-78015213D01*
X164280470Y-78015212D01*
X164326614Y-77935288D01*
X164346972Y-77859311D01*
X164350500Y-77846146D01*
X164350500Y-77753853D01*
X164326614Y-77664713D01*
X164326613Y-77664709D01*
X164280469Y-77584787D01*
X163864852Y-77169170D01*
X163850500Y-77134522D01*
X163850500Y-74586663D01*
X163864852Y-74552015D01*
X163899500Y-74537663D01*
X163912182Y-74539333D01*
X163953853Y-74550499D01*
X163953856Y-74550499D01*
X164046145Y-74550499D01*
X164046145Y-74550498D01*
X164135288Y-74526614D01*
X164215212Y-74480469D01*
X164280469Y-74415212D01*
X164326614Y-74335288D01*
X164350498Y-74246145D01*
X164350499Y-74246145D01*
X164350499Y-74153855D01*
X164327169Y-74066782D01*
X164325500Y-74054101D01*
X164325500Y-74043979D01*
X164325499Y-74043978D01*
X164301609Y-73954818D01*
X164296503Y-73935763D01*
X164296502Y-73935762D01*
X164296502Y-73935760D01*
X164246699Y-73849500D01*
X164240485Y-73838737D01*
X164161263Y-73759515D01*
X164132546Y-73742935D01*
X164064239Y-73703497D01*
X164064235Y-73703496D01*
X163956021Y-73674500D01*
X163956018Y-73674500D01*
X163843982Y-73674500D01*
X163843979Y-73674500D01*
X163735765Y-73703496D01*
X163681733Y-73734691D01*
X163644550Y-73739585D01*
X163622585Y-73726903D01*
X163130329Y-73234647D01*
X163115977Y-73199999D01*
X163130327Y-73165354D01*
X163967682Y-72327998D01*
X164002329Y-72313647D01*
X164022904Y-72319158D01*
X164023148Y-72318570D01*
X164026109Y-72319796D01*
X164026114Y-72319799D01*
X164026118Y-72319800D01*
X164140688Y-72350500D01*
X164140691Y-72350500D01*
X164259311Y-72350500D01*
X164316597Y-72335149D01*
X164373886Y-72319799D01*
X164476613Y-72260489D01*
X164476613Y-72260488D01*
X164479394Y-72258883D01*
X164479750Y-72259500D01*
X164506263Y-72250500D01*
X164646146Y-72250500D01*
X164690716Y-72238557D01*
X164735288Y-72226614D01*
X164815212Y-72180470D01*
X165880470Y-71115212D01*
X165926614Y-71035288D01*
X165930836Y-71019530D01*
X165950500Y-70946144D01*
X165950500Y-69506263D01*
X165960628Y-69476430D01*
X165961628Y-69475127D01*
X165994108Y-69456379D01*
X166030333Y-69466088D01*
G37*
%TD.AperFunction*%
%TA.AperFunction,Conductor*%
G36*
X168826604Y-56164852D02*
G01*
X168837226Y-56180748D01*
X168850499Y-56212792D01*
X168869059Y-56257598D01*
X168984023Y-56429655D01*
X169130345Y-56575977D01*
X169302402Y-56690941D01*
X169493580Y-56770130D01*
X169696535Y-56810500D01*
X169696538Y-56810500D01*
X169903462Y-56810500D01*
X169903465Y-56810500D01*
X170106420Y-56770130D01*
X170297598Y-56690941D01*
X170469655Y-56575977D01*
X170565852Y-56479780D01*
X170600500Y-56465428D01*
X170635148Y-56479780D01*
X170649500Y-56514428D01*
X170649500Y-57545572D01*
X170635148Y-57580220D01*
X170600500Y-57594572D01*
X170565852Y-57580220D01*
X170469654Y-57484022D01*
X170384207Y-57426929D01*
X170297598Y-57369059D01*
X170297596Y-57369058D01*
X170106423Y-57289871D01*
X170106417Y-57289869D01*
X170024572Y-57273589D01*
X169903465Y-57249500D01*
X169696535Y-57249500D01*
X169595520Y-57269592D01*
X169493582Y-57289869D01*
X169493576Y-57289871D01*
X169302403Y-57369058D01*
X169130345Y-57484022D01*
X168984022Y-57630345D01*
X168869058Y-57802403D01*
X168789871Y-57993576D01*
X168789869Y-57993582D01*
X168776796Y-58059309D01*
X168749500Y-58196535D01*
X168749500Y-58403465D01*
X168774834Y-58530829D01*
X168789869Y-58606417D01*
X168789871Y-58606423D01*
X168869058Y-58797596D01*
X168940241Y-58904131D01*
X168984023Y-58969655D01*
X169130345Y-59115977D01*
X169302402Y-59230941D01*
X169493580Y-59310130D01*
X169696535Y-59350500D01*
X169696538Y-59350500D01*
X169903462Y-59350500D01*
X169903465Y-59350500D01*
X170106420Y-59310130D01*
X170297598Y-59230941D01*
X170469655Y-59115977D01*
X170565852Y-59019780D01*
X170600500Y-59005428D01*
X170635148Y-59019780D01*
X170649500Y-59054428D01*
X170649500Y-60085572D01*
X170635148Y-60120220D01*
X170600500Y-60134572D01*
X170565852Y-60120220D01*
X170469654Y-60024022D01*
X170372803Y-59959309D01*
X170297598Y-59909059D01*
X170297596Y-59909058D01*
X170106423Y-59829871D01*
X170106417Y-59829869D01*
X170024572Y-59813589D01*
X169903465Y-59789500D01*
X169696535Y-59789500D01*
X169595520Y-59809592D01*
X169493582Y-59829869D01*
X169493576Y-59829871D01*
X169302403Y-59909058D01*
X169130345Y-60024022D01*
X168984022Y-60170345D01*
X168869058Y-60342403D01*
X168820047Y-60460726D01*
X168793528Y-60487244D01*
X168756025Y-60487244D01*
X168729507Y-60460725D01*
X168727447Y-60454656D01*
X168719799Y-60426114D01*
X168719798Y-60426112D01*
X168660488Y-60323386D01*
X168576613Y-60239511D01*
X168473887Y-60180201D01*
X168473884Y-60180200D01*
X168359312Y-60149500D01*
X168359309Y-60149500D01*
X168240691Y-60149500D01*
X168240688Y-60149500D01*
X168126115Y-60180200D01*
X168126112Y-60180201D01*
X168023386Y-60239511D01*
X168023386Y-60239512D01*
X167939512Y-60323386D01*
X167939511Y-60323386D01*
X167880201Y-60426112D01*
X167880200Y-60426115D01*
X167848668Y-60543793D01*
X167847980Y-60543608D01*
X167835596Y-60568721D01*
X166419530Y-61984787D01*
X166373386Y-62064709D01*
X166373385Y-62064713D01*
X166349500Y-62153853D01*
X166349500Y-63593736D01*
X166340501Y-63620250D01*
X166341117Y-63620606D01*
X166280201Y-63726112D01*
X166280200Y-63726115D01*
X166249500Y-63840688D01*
X166249500Y-63959311D01*
X166280200Y-64073884D01*
X166280201Y-64073887D01*
X166295151Y-64099780D01*
X166339511Y-64176613D01*
X166423387Y-64260489D01*
X166526114Y-64319799D01*
X166554758Y-64327474D01*
X166640688Y-64350500D01*
X166640691Y-64350500D01*
X166759311Y-64350500D01*
X166816597Y-64335149D01*
X166873886Y-64319799D01*
X166976613Y-64260489D01*
X167060489Y-64176613D01*
X167119799Y-64073886D01*
X167136555Y-64011354D01*
X167150500Y-63959311D01*
X167150500Y-63840688D01*
X167119799Y-63726115D01*
X167119798Y-63726112D01*
X167058883Y-63620606D01*
X167059498Y-63620250D01*
X167050500Y-63593736D01*
X167050500Y-62365478D01*
X167064852Y-62330830D01*
X167689419Y-61706263D01*
X168331279Y-61064402D01*
X168356392Y-61052023D01*
X168356207Y-61051332D01*
X168427256Y-61032293D01*
X168473886Y-61019799D01*
X168576613Y-60960489D01*
X168660489Y-60876613D01*
X168660493Y-60876605D01*
X168661624Y-60875133D01*
X168662440Y-60874661D01*
X168662760Y-60874342D01*
X168662845Y-60874427D01*
X168694102Y-60856380D01*
X168730327Y-60866084D01*
X168749080Y-60898562D01*
X168749500Y-60904960D01*
X168749500Y-60943465D01*
X168773556Y-61064403D01*
X168789869Y-61146417D01*
X168789871Y-61146423D01*
X168869058Y-61337596D01*
X168940241Y-61444131D01*
X168984023Y-61509655D01*
X169130345Y-61655977D01*
X169302402Y-61770941D01*
X169493580Y-61850130D01*
X169696535Y-61890500D01*
X169696538Y-61890500D01*
X169903462Y-61890500D01*
X169903465Y-61890500D01*
X170106420Y-61850130D01*
X170297598Y-61770941D01*
X170469655Y-61655977D01*
X170565852Y-61559780D01*
X170600500Y-61545428D01*
X170635148Y-61559780D01*
X170649500Y-61594428D01*
X170649500Y-62625572D01*
X170635148Y-62660220D01*
X170600500Y-62674572D01*
X170565852Y-62660220D01*
X170469654Y-62564022D01*
X170364462Y-62493736D01*
X170297598Y-62449059D01*
X170297596Y-62449058D01*
X170106423Y-62369871D01*
X170106417Y-62369869D01*
X170024572Y-62353589D01*
X169903465Y-62329500D01*
X169696535Y-62329500D01*
X169617696Y-62345182D01*
X169493582Y-62369869D01*
X169493576Y-62369871D01*
X169302403Y-62449058D01*
X169130345Y-62564022D01*
X168984022Y-62710345D01*
X168869058Y-62882403D01*
X168789871Y-63073576D01*
X168789869Y-63073582D01*
X168769592Y-63175520D01*
X168749500Y-63276535D01*
X168749500Y-63483465D01*
X168760649Y-63539513D01*
X168789869Y-63686417D01*
X168789871Y-63686423D01*
X168863624Y-63864477D01*
X168869059Y-63877598D01*
X168925691Y-63962354D01*
X168940241Y-63984131D01*
X168984023Y-64049655D01*
X169130345Y-64195977D01*
X169302402Y-64310941D01*
X169493580Y-64390130D01*
X169696535Y-64430500D01*
X169696538Y-64430500D01*
X169903462Y-64430500D01*
X169903465Y-64430500D01*
X170106420Y-64390130D01*
X170297598Y-64310941D01*
X170469655Y-64195977D01*
X170565852Y-64099780D01*
X170600500Y-64085428D01*
X170635148Y-64099780D01*
X170649500Y-64134428D01*
X170649500Y-67705572D01*
X170635148Y-67740220D01*
X170600500Y-67754572D01*
X170565852Y-67740220D01*
X170469654Y-67644022D01*
X170329685Y-67550499D01*
X170297598Y-67529059D01*
X170297596Y-67529058D01*
X170106423Y-67449871D01*
X170106417Y-67449869D01*
X170024572Y-67433589D01*
X169903465Y-67409500D01*
X169696535Y-67409500D01*
X169595520Y-67429592D01*
X169493582Y-67449869D01*
X169493576Y-67449871D01*
X169302403Y-67529058D01*
X169130345Y-67644022D01*
X168984022Y-67790345D01*
X168869058Y-67962403D01*
X168789871Y-68153576D01*
X168789869Y-68153582D01*
X168769592Y-68255520D01*
X168749500Y-68356535D01*
X168749500Y-68563465D01*
X168776290Y-68698150D01*
X168789869Y-68766417D01*
X168789871Y-68766423D01*
X168869058Y-68957596D01*
X168940241Y-69064131D01*
X168984023Y-69129655D01*
X169130345Y-69275977D01*
X169302402Y-69390941D01*
X169493580Y-69470130D01*
X169696535Y-69510500D01*
X169696538Y-69510500D01*
X169903462Y-69510500D01*
X169903465Y-69510500D01*
X170106420Y-69470130D01*
X170297598Y-69390941D01*
X170469655Y-69275977D01*
X170565852Y-69179780D01*
X170600500Y-69165428D01*
X170635148Y-69179780D01*
X170649500Y-69214428D01*
X170649500Y-70245572D01*
X170635148Y-70280220D01*
X170600500Y-70294572D01*
X170565852Y-70280220D01*
X170469654Y-70184022D01*
X170348809Y-70103277D01*
X170297598Y-70069059D01*
X170277761Y-70060842D01*
X170106423Y-69989871D01*
X170106417Y-69989869D01*
X170024572Y-69973589D01*
X169903465Y-69949500D01*
X169696535Y-69949500D01*
X169595520Y-69969592D01*
X169493582Y-69989869D01*
X169493576Y-69989871D01*
X169302403Y-70069058D01*
X169130345Y-70184022D01*
X168984022Y-70330345D01*
X168869058Y-70502403D01*
X168789871Y-70693576D01*
X168789869Y-70693582D01*
X168784708Y-70719530D01*
X168774471Y-70770995D01*
X168753636Y-70802177D01*
X168716854Y-70809494D01*
X168691765Y-70796083D01*
X167564403Y-69668721D01*
X167552023Y-69643607D01*
X167551332Y-69643793D01*
X167519799Y-69526115D01*
X167519798Y-69526112D01*
X167501983Y-69495257D01*
X167460489Y-69423387D01*
X167460488Y-69423386D01*
X167458883Y-69420606D01*
X167459498Y-69420250D01*
X167450500Y-69393736D01*
X167450500Y-66053852D01*
X167426614Y-65964712D01*
X167426613Y-65964709D01*
X167412065Y-65939512D01*
X167380469Y-65884787D01*
X167315212Y-65819530D01*
X166215212Y-64719530D01*
X166135290Y-64673386D01*
X166135286Y-64673385D01*
X166046147Y-64649500D01*
X166046144Y-64649500D01*
X159746144Y-64649500D01*
X159653856Y-64649500D01*
X159653853Y-64649500D01*
X159564713Y-64673385D01*
X159564709Y-64673386D01*
X159484787Y-64719530D01*
X158868721Y-65335596D01*
X158843608Y-65347980D01*
X158843793Y-65348668D01*
X158726115Y-65380200D01*
X158726112Y-65380201D01*
X158623386Y-65439511D01*
X158623386Y-65439512D01*
X158539512Y-65523386D01*
X158539511Y-65523386D01*
X158480201Y-65626112D01*
X158480200Y-65626115D01*
X158449500Y-65740688D01*
X158449500Y-65809808D01*
X158435148Y-65844456D01*
X158400500Y-65858808D01*
X158387818Y-65857138D01*
X158359312Y-65849500D01*
X158359309Y-65849500D01*
X158240691Y-65849500D01*
X158240688Y-65849500D01*
X158126115Y-65880200D01*
X158126112Y-65880201D01*
X158023386Y-65939511D01*
X158023386Y-65939512D01*
X157939512Y-66023386D01*
X157939511Y-66023386D01*
X157880201Y-66126112D01*
X157880200Y-66126115D01*
X157848668Y-66243793D01*
X157847980Y-66243608D01*
X157835596Y-66268721D01*
X155234148Y-68870170D01*
X155199500Y-68884522D01*
X155164852Y-68870170D01*
X155150500Y-68835522D01*
X155150500Y-66665477D01*
X155164851Y-66630830D01*
X157965852Y-63829828D01*
X158000500Y-63815477D01*
X158035148Y-63829829D01*
X158049500Y-63864477D01*
X158049500Y-63959311D01*
X158080200Y-64073884D01*
X158080201Y-64073887D01*
X158095151Y-64099780D01*
X158139511Y-64176613D01*
X158223387Y-64260489D01*
X158326114Y-64319799D01*
X158354758Y-64327474D01*
X158440688Y-64350500D01*
X158440691Y-64350500D01*
X158559311Y-64350500D01*
X158616597Y-64335149D01*
X158673886Y-64319799D01*
X158776613Y-64260489D01*
X158860489Y-64176613D01*
X158919799Y-64073886D01*
X158936555Y-64011354D01*
X158950500Y-63959311D01*
X158950500Y-63840688D01*
X158919799Y-63726115D01*
X158919798Y-63726112D01*
X158860488Y-63623386D01*
X158776615Y-63539513D01*
X158776613Y-63539511D01*
X158776610Y-63539509D01*
X158775133Y-63538376D01*
X158774661Y-63537559D01*
X158774342Y-63537240D01*
X158774427Y-63537154D01*
X158756380Y-63505898D01*
X158766084Y-63469673D01*
X158798562Y-63450920D01*
X158804960Y-63450500D01*
X159334522Y-63450500D01*
X159369170Y-63464852D01*
X159784788Y-63880470D01*
X159814040Y-63897359D01*
X159864709Y-63926613D01*
X159864711Y-63926613D01*
X159864712Y-63926614D01*
X159886998Y-63932585D01*
X159953853Y-63950500D01*
X159953856Y-63950500D01*
X160646146Y-63950500D01*
X160690716Y-63938557D01*
X160735288Y-63926614D01*
X160739618Y-63924114D01*
X160815212Y-63880470D01*
X168530830Y-56164852D01*
X168565478Y-56150500D01*
X168791956Y-56150500D01*
X168826604Y-56164852D01*
G37*
%TD.AperFunction*%
%TD*%
M02*
